<svg xmlns="http://www.w3.org/2000/svg" viewBox="0 0 319.13 313.78" class="" style=""><defs><style>.cls-1{fill:none;stroke:#fff;stroke-miterlimit:10;}</style></defs><title>logo</title><g id="レイヤー_2" data-name="レイヤー 2"><g id="レイヤー_2-2" data-name="レイヤー 2"><path class="cls-1 bbHXcjAq_0" d="M305.49,139.68c-8.79-15.76-21.45-29.53-36.86-40.83A111.78,111.78,0,0,0,245.7,73.68,129.16,129.16,0,0,0,233,64.57a91.33,91.33,0,0,0-78-43.84c-14.19,0-14.48-3.54-25.53-11.41-7.54-5.38-20.59-12.22-29.34-6.89,5.28,6.68,8.79,14.79,8.42,23.43v.07c-.56,12.52-5.32,9.85-14.47,18-5.82,5.2-11.13,16.83-17.15,20.6a127.21,127.21,0,0,0-12.75,9.11A107.52,107.52,0,0,0,33,114a121.22,121.22,0,0,0-19.37,25.72,100.11,100.11,0,0,0,0,99.16C26.24,261.42,46.77,280,72,292.91s55.32,20.37,87.56,20.37c43,0,82.11-13.15,111.1-35.13,14.48-11,26.44-24.26,34.82-39.31a100.11,100.11,0,0,0,0-99.16ZM88.54,112.11c0-1.63.08-3.24.2-4.84,1.87-26,23.13-61.18,48.52-34,17.88,19.16,32.25,73.8,1.3,87.72-28.67,12.89-50-24.42-50-48.87ZM282.06,225.79c-9.51,17.12-25.92,32.36-47.18,43.26s-47.21,17.42-75.31,17.41c-37.47,0-71.16-11.61-94.89-29.67-11.87-9-21.25-19.58-27.6-31-3.35-6-9.42-16.89-8.55-24.08,2.64-21.69,16.21,4.36,21.52,9.51s23.58,24.24,32.5,19.55S80,219,76,215.08c-15.22-14.94-28.08-43.24-28.07-64.45a68.85,68.85,0,0,1,1.7-15.15,75,75,0,0,1,14.16-29.37c-.13,2-.21,4-.21,6a90.8,90.8,0,0,0,.56,10.08c3.4,30.94,23.66,63.05,56.8,65.15,35.1,2.23,61.67-32.64,61.74-66.45a156.74,156.74,0,0,0-2.42-27.65,144,144,0,0,0-7.41-26.58l-.4-1c-.7-1.77-1.43-3.54-2.21-5.31A140.51,140.51,0,0,0,163,46.22a66.11,66.11,0,0,1,38.88,19,69.55,69.55,0,0,1,5,5.61c24.28,30.46,10.94,61.52,4.71,95-4.91,26.34,18.58.37,23.16-9.12,5.82-12.08,10.94-27.14,11.5-40.68.05-1.28.09-2.57.09-3.86,0-2-.08-4-.2-6a78.74,78.74,0,0,1,10.08,17,69.33,69.33,0,0,1,5.77,27.57c0,22.78-11.24,43.69-30.5,59.46s-46.34,25.72-76.53,25.71c-5.91,0-29.44-5.34-32.07,2.06-3.58,10.07,23.4,15.45,29.53,16.82,32.84,7.34,67.88-6.41,93.33-27.1,11.95-9.7,23.69-22.86,29.89-37.09,2.83-6.48,7.55-24.24,16-15.42C300.37,184.28,286.81,217.25,282.06,225.79Z"></path></g></g><style data-made-with="vivus-instant">.bbHXcjAq_0{stroke-dasharray:2814 2816;stroke-dashoffset:2815;}.start .bbHXcjAq_0{animation:bbHXcjAq_draw 3500ms ease-in-out 0ms forwards;}@keyframes bbHXcjAq_draw{100%{stroke-dashoffset:0;}}@keyframes bbHXcjAq_fade{0%{stroke-opacity:1;}95.1219512195122%{stroke-opacity:1;}100%{stroke-opacity:0;}}</style></svg>