<svg xmlns="http://www.w3.org/2000/svg" viewBox="0 0 84.6 68.7"><defs><style>.cls-1{fill:#232222;}</style></defs><title>title06</title><g id="レイヤー_2" data-name="レイヤー 2"><g id="レイヤー_2-2" data-name="レイヤー 2"><path class="cls-1" d="M33.5,46.5c0,7.6-1,12-3.5,15.8-2.8,4.1-7.5,6.4-13.2,6.4S6.3,66.4,3.5,62.3C1,58.5,0,54,0,46.5V22.2c0-7.5,1-12,3.5-15.8C6.3,2.3,11,0,16.8,0S27.2,2.3,30,6.4c2.5,3.8,3.5,8.2,3.5,15.8ZM9.7,48.6c0,4.6.2,5.9,1.2,7.8a6.34,6.34,0,0,0,5.9,3.1,6.29,6.29,0,0,0,5.8-3.1c1-1.9,1.2-3.1,1.2-7.8V20.1c0-4.7-.2-5.9-1.2-7.8a6.29,6.29,0,0,0-5.8-3.1,6.34,6.34,0,0,0-5.9,3.1c-1,1.9-1.2,3.1-1.2,7.8Z"/><path class="cls-1" d="M74.1,18.3V16.7c0-5-2-7.5-6.2-7.5a5.72,5.72,0,0,0-5.5,3.1C61.3,14.5,61,17,61,23.3v8.3c2.9-3.8,5.7-5.3,10.1-5.3,9.1,0,13.5,6.5,13.5,20.1,0,14.7-5.7,22.3-16.7,22.3-5.3,0-9.6-2-12.3-5.6-3-4-4.3-9.3-4.3-17.8V21.5c0-7.5,1.2-12,4-15.7A15.7,15.7,0,0,1,68,0c9.6,0,15.8,6.5,15.8,16.7v1.6ZM61,48.7c0,7.3,2.2,10.8,6.8,10.8,4.9,0,6.8-3.5,6.8-12.3,0-8.4-1.8-11.7-6.6-11.7-2.8,0-4.6,1.1-7,4.1Z"/></g></g></svg>