<svg xmlns="http://www.w3.org/2000/svg" viewBox="0 0 366 68.7"><defs><style>.cls-1{fill:#232222;}</style></defs><title>title1_2</title><g id="レイヤー_2" data-name="レイヤー 2"><g id="レイヤー_2-2" data-name="レイヤー 2"><path class="cls-1" d="M10.3,67.7H0V1H30.5v9.5H10.3v18h15V38h-15Z"/><path class="cls-1" d="M114.4,46.5c0,7.5-1.1,12-3.8,15.8-3,4.2-8,6.4-14.4,6.4s-11.4-2.2-14.4-6.4C79.1,58.5,78,54,78,46.5V22.2c0-7.5,1.1-12,3.8-15.8,3-4.2,8-6.4,14.4-6.4s11.4,2.2,14.4,6.4c2.7,3.8,3.8,8.3,3.8,15.8Zm-26.1-.2c0,5.3.3,7.1,1.3,9.1a7.85,7.85,0,0,0,13.2,0c1.1-2.1,1.3-3.7,1.3-9.1V22.4c0-5.4-.2-7-1.3-9.1a7.85,7.85,0,0,0-13.2,0c-1,2-1.3,3.8-1.3,9.1Z"/><path class="cls-1" d="M178.2,67.7H167.9V1H184c6.1,0,10,1.2,13.2,4,4,3.4,6,8.5,6,15.1,0,8.4-3,14.2-9,17.3L204,67.7H193.2l-8.8-27.4h-6.2ZM182,30.8c4.4,0,6.4-.5,8-2.1s2.5-4.4,2.5-8.1-.8-6.3-2.5-8-3.6-2.1-8-2.1h-3.8V30.8Z"/><path class="cls-1" d="M276.1,67.7H265.8V1h10.3Z"/><path class="cls-1" d="M366,46.5c0,7.5-1.1,12-3.8,15.8-3,4.2-8,6.4-14.4,6.4s-11.4-2.2-14.4-6.4c-2.7-3.8-3.8-8.3-3.8-15.8V22.2c0-7.5,1.1-12,3.8-15.8,3-4.2,8-6.4,14.4-6.4s11.4,2.2,14.4,6.4c2.7,3.8,3.8,8.3,3.8,15.8Zm-26.1-.2c0,5.3.3,7.1,1.3,9.1a7.85,7.85,0,0,0,13.2,0c1.1-2.1,1.3-3.7,1.3-9.1V22.4c0-5.4-.2-7-1.3-9.1a7.85,7.85,0,0,0-13.2,0c-1,2-1.3,3.8-1.3,9.1Z"/></g></g></svg>