<svg xmlns="http://www.w3.org/2000/svg" viewBox="0 0 255.5 68.7"><defs><style>.cls-1{fill:#232222;}</style></defs><title>title_about</title><g id="レイヤー_2" data-name="レイヤー 2"><g id="レイヤー_2-2" data-name="レイヤー 2"><path class="cls-1" d="M12.8,53.2,10.1,67.7H0L12.8,1H26.9L40.4,67.7H29.8L27,53.2Zm7-39.4L14.4,43.7H25.3Z"/><path class="cls-1" d="M57.5,1H72.9C85.4,1,92.4,7.1,92.4,17.9c0,7.9-3.5,12.6-11,14.9,9,2.6,12.6,7.2,12.6,16,0,11.8-7.4,18.9-19.8,18.9H57.5Zm14,27.2c6.3,0,10.4-3.7,10.4-9.4a8.36,8.36,0,0,0-2.5-6.2c-1.7-1.5-3.8-2.1-7.7-2.1H67.8V28.2Zm1.5,30c6.6,0,10.3-3.4,10.3-9.4,0-6.7-4.6-11.1-11.8-11.1H67.8V58.2Z"/><path class="cls-1" d="M148.8,46.5c0,7.5-1.1,12-3.8,15.8-3,4.2-8,6.4-14.4,6.4s-11.4-2.2-14.4-6.4c-2.7-3.8-3.8-8.3-3.8-15.8V22.2c0-7.5,1.1-12,3.8-15.8,3-4.2,8-6.4,14.4-6.4S142,2.2,145,6.4c2.7,3.8,3.8,8.3,3.8,15.8Zm-26.1-.2c0,5.3.3,7.1,1.3,9.1a7.85,7.85,0,0,0,13.2,0c1.1-2.1,1.3-3.7,1.3-9.1V22.4c0-5.4-.2-7-1.3-9.1a7.85,7.85,0,0,0-13.2,0c-1,2-1.3,3.8-1.3,9.1Z"/><path class="cls-1" d="M203.6,1V46.2c0,8.4-1,12.7-3.8,16.5s-7.8,6-13.8,6-11-2.1-13.9-6-3.8-8.1-3.8-16.5V1h10.3V47.9c0,7.9,2.1,11.1,7.4,11.1s7.3-3.2,7.3-11.1V1Z"/><path class="cls-1" d="M242.5,67.7H232.2V10.5H219.3V1h36.2v9.5h-13Z"/></g></g></svg>