<svg xmlns="http://www.w3.org/2000/svg" viewBox="0 0 74.7 68.7"><defs><style>.cls-1{fill:#232222;}</style></defs><title>title01</title><g id="レイヤー_2" data-name="レイヤー 2"><g id="レイヤー_2-2" data-name="レイヤー 2"><path class="cls-1" d="M33.5,46.5c0,7.6-1,12-3.5,15.8-2.8,4.1-7.5,6.4-13.2,6.4S6.3,66.4,3.5,62.3C1,58.5,0,54,0,46.5V22.2c0-7.5,1-12,3.5-15.8C6.3,2.3,11,0,16.8,0S27.2,2.3,30,6.4c2.5,3.8,3.5,8.2,3.5,15.8ZM9.7,48.6c0,4.6.2,5.9,1.2,7.8a6.34,6.34,0,0,0,5.9,3.1,6.29,6.29,0,0,0,5.8-3.1c1-1.9,1.2-3.1,1.2-7.8V20.1c0-4.7-.2-5.9-1.2-7.8a6.29,6.29,0,0,0-5.8-3.1,6.34,6.34,0,0,0-5.9,3.1c-1,1.9-1.2,3.1-1.2,7.8Z"/><path class="cls-1" d="M74.7,67.7H65v-51H55.4V10.6C60.8,8.3,66.6,4.1,69,1h5.7Z"/></g></g></svg>