<svg xmlns="http://www.w3.org/2000/svg" viewBox="0 0 84.3 68.7"><defs><style>.cls-1{fill:#232222;}</style></defs><title>title05</title><g id="レイヤー_2" data-name="レイヤー 2"><g id="レイヤー_2-2" data-name="レイヤー 2"><path class="cls-1" d="M33.5,46.5c0,7.6-1,12-3.5,15.8-2.8,4.1-7.5,6.4-13.2,6.4S6.3,66.4,3.5,62.3C1,58.5,0,54,0,46.5V22.2c0-7.5,1-12,3.5-15.8C6.3,2.3,11,0,16.8,0S27.2,2.3,30,6.4c2.5,3.8,3.5,8.2,3.5,15.8ZM9.7,48.6c0,4.6.2,5.9,1.2,7.8a6.34,6.34,0,0,0,5.9,3.1,6.29,6.29,0,0,0,5.8-3.1c1-1.9,1.2-3.1,1.2-7.8V20.1c0-4.7-.2-5.9-1.2-7.8a6.29,6.29,0,0,0-5.8-3.1,6.34,6.34,0,0,0-5.9,3.1c-1,1.9-1.2,3.1-1.2,7.8Z"/><path class="cls-1" d="M81.8,10H61.1l-.3,15.2c3.3-2.9,6.2-4.1,10.1-4.1a11.89,11.89,0,0,1,10.5,5.5c2.2,3.7,2.9,7.9,2.9,17.2,0,10.1-.8,14.4-3.5,18.7-2.6,4.1-7.2,6.2-13.3,6.2-10.3,0-15.8-6.2-15.8-17.9a16.67,16.67,0,0,1,.1-1.9h9.6v1.7c0,6.1,1.9,8.9,6.2,8.9a5.75,5.75,0,0,0,5.5-3.3c.9-1.9,1.2-5,1.2-11.7,0-6.5-.3-9.3-1.4-11.8a5.61,5.61,0,0,0-5.3-3.4c-2.9,0-4.6,1.3-6.8,5.3H51.9L52.6,1H81.8Z"/></g></g></svg>