<svg xmlns="http://www.w3.org/2000/svg" viewBox="0 0 213.29 28.72"><defs><style>.cls-1{fill:#fff;}</style></defs><title>title_name2</title><g id="レイヤー_2" data-name="レイヤー 2"><g id="レイヤー_2-2" data-name="レイヤー 2"><path class="cls-1" d="M21.66,11.93a4.89,4.89,0,0,1-.44.89,2,2,0,0,1-.47.52,1.33,1.33,0,0,1-.57.24,4,4,0,0,1-.74.06c-1.21-.11-2.25-.18-3.12-.23s-1.65-.08-2.32-.08a14.9,14.9,0,0,0-1.73.08,9.15,9.15,0,0,0-1.46.27q-.29.46-.87,1.47c-.38.67-.81,1.43-1.28,2.29s-1,1.77-1.45,2.73S6.27,22.07,5.86,23a26,26,0,0,1-2.39,4.33c-.7,1-1.3,1.43-1.79,1.43A2.06,2.06,0,0,1,.4,28.41a1.14,1.14,0,0,1-.4-.94,6.12,6.12,0,0,1,.53-2.06c.36-.89.85-2,1.48-3.22.23-.47.49-1,.77-1.49s.55-1.06.84-1.59l.83-1.55.73-1.36.56-1L6,14.6a1.35,1.35,0,0,1,.08-.21l0-.09a0,0,0,0,0,0,0l0-.09H5.82a4.7,4.7,0,0,1-1.18-.12.49.49,0,0,1-.44-.5A1.31,1.31,0,0,1,4.37,13a3.56,3.56,0,0,1,.91-1.15,3.35,3.35,0,0,1,1-.57,2.68,2.68,0,0,1,.87-.19h.61c.34-.71.69-1.42,1-2.12L9.83,6.85a19.55,19.55,0,0,1,2-3.27A9.13,9.13,0,0,1,14,1.47,8,8,0,0,1,16.69.34,14.4,14.4,0,0,1,20,0c1.14,0,2,0,2.72.1a12,12,0,0,1,1.42.19A1.71,1.71,0,0,1,25.23,1a2,2,0,0,1,.32,1.13,2.93,2.93,0,0,1-.16,1,3.18,3.18,0,0,1-.45.88,2.48,2.48,0,0,1-.64.65,1.21,1.21,0,0,1-.72.25.84.84,0,0,1-.37-.07l-.76-.34a3.73,3.73,0,0,0-.69-.23A5.28,5.28,0,0,0,21,4.12c-.29,0-.65,0-1.08,0l-1.55,0-2.2.09c-.35.6-.67,1.17-1,1.69l-.88,1.55L13.4,9c-.31.52-.64,1.09-1,1.71.48-.17,1-.32,1.56-.46s1.13-.25,1.72-.34,1.17-.16,1.77-.21,1.16-.08,1.7-.08a6.72,6.72,0,0,1,2.12.24.91.91,0,0,1,.65.94c0,.11,0,.26,0,.46A1.64,1.64,0,0,1,21.66,11.93Z"/><path class="cls-1" d="M38,23.29a17.07,17.07,0,0,1-2,1.88,19.7,19.7,0,0,1-2.33,1.64A14.59,14.59,0,0,1,31.3,28a6.08,6.08,0,0,1-2.09.44,2.17,2.17,0,0,1-1.51-.53,2.28,2.28,0,0,1-.58-1.78A8.18,8.18,0,0,1,27.43,24a10.61,10.61,0,0,1-1.26,1.53A10,10,0,0,1,24.45,27a8.89,8.89,0,0,1-2.17,1,8.4,8.4,0,0,1-2.61.4,5.59,5.59,0,0,1-1.23-.14,2.76,2.76,0,0,1-1-.46,2.41,2.41,0,0,1-.72-.88,3.16,3.16,0,0,1-.27-1.39s0-.21.08-.59a10.51,10.51,0,0,1,.49-1.8c.28-.81.71-1.88,1.29-3.18s1.4-2.88,2.46-4.74a2.7,2.7,0,0,1,.93-1.05,2.24,2.24,0,0,1,1.15-.32,2.34,2.34,0,0,1,.57.07,1.78,1.78,0,0,1,.54.21,1.29,1.29,0,0,1,.4.37.84.84,0,0,1,.16.51,1.15,1.15,0,0,1-.06.37,3.64,3.64,0,0,1-.42.86l-.74,1.22-.9,1.48a18.35,18.35,0,0,0-.88,1.64,16.93,16.93,0,0,0-.7,1.73A6.78,6.78,0,0,0,20.46,24a1.1,1.1,0,0,0,.2.64.7.7,0,0,0,.64.29,4.62,4.62,0,0,0,2.4-.69,10.39,10.39,0,0,0,2.1-1.73,17,17,0,0,0,1.75-2.23,24.62,24.62,0,0,0,1.31-2.18,10.19,10.19,0,0,0,.65-1.41,11.87,11.87,0,0,1,.61-1.39,4.16,4.16,0,0,1,.75-1.06,1.56,1.56,0,0,1,2.17,0,1.51,1.51,0,0,1,.4,1.06,2.56,2.56,0,0,1-.26,1c-.17.4-.39.87-.65,1.39l-.87,1.67c-.31.6-.59,1.2-.86,1.81a15.69,15.69,0,0,0-.65,1.8,5.6,5.6,0,0,0-.27,1.63c0,.47.29.7.86.7A4.35,4.35,0,0,0,32.23,25a11.12,11.12,0,0,0,1.86-1,19,19,0,0,0,2-1.48,13,13,0,0,0,1.73-1.84Z"/><path class="cls-1" d="M41.45,27.25a4.73,4.73,0,0,1,.42-1.89,14.23,14.23,0,0,1,1.05-2c.43-.69.89-1.38,1.39-2.08s1-1.42,1.44-2.16a4.23,4.23,0,0,0,.31-.59,1.65,1.65,0,0,0,.11-.57.77.77,0,0,0-.17-.51.64.64,0,0,0-.51-.21,3.7,3.7,0,0,0-1.52.34,7.45,7.45,0,0,0-1.42.89,9.58,9.58,0,0,0-1.28,1.27,17.68,17.68,0,0,0-1.14,1.48c-.36.51-.69,1-1,1.52l-.85,1.37a11.9,11.9,0,0,0-.64,1.39,11.34,11.34,0,0,1-.63,1.4A4.64,4.64,0,0,1,36.25,28a1.45,1.45,0,0,1-1.07.44,1.41,1.41,0,0,1-1.1-.45,1.52,1.52,0,0,1-.4-1.06,3.68,3.68,0,0,1,.25-1.09c.16-.49.38-1.06.65-1.71s.56-1.34.89-2.08.67-1.46,1-2.18l.93-2c.29-.64.53-1.19.72-1.64A2.88,2.88,0,0,1,39,14.93a2,2,0,0,1,1.13-.4,1.27,1.27,0,0,1,.87.35,1.38,1.38,0,0,1,.37,1,3,3,0,0,1-.23,1.1l1.12-1a10.32,10.32,0,0,1,1.31-1,7.42,7.42,0,0,1,1.57-.78,5.8,5.8,0,0,1,2-.31,3.75,3.75,0,0,1,1,.14,2.47,2.47,0,0,1,.86.42,2.12,2.12,0,0,1,.62.76,2.64,2.64,0,0,1,.28,1.12c.3-.3.62-.59,1-.88A9.11,9.11,0,0,1,52,14.62a6.9,6.9,0,0,1,1.33-.56,5.54,5.54,0,0,1,1.58-.21,5.3,5.3,0,0,1,1.22.14,3,3,0,0,1,1,.45,2.25,2.25,0,0,1,.71.82,2.61,2.61,0,0,1,.26,1.24,4.77,4.77,0,0,1-.53,2.21,10.31,10.31,0,0,1-1.25,1.91c-.15.19-.36.44-.61.73s-.51.62-.76.95a8.08,8.08,0,0,0-.64,1,2.17,2.17,0,0,0-.27,1c0,.29.09.47.26.55a1.92,1.92,0,0,0,.69.11,3.93,3.93,0,0,0,1.76-.48,12.71,12.71,0,0,0,1.85-1.17,21.73,21.73,0,0,0,1.68-1.43c.52-.5.94-.92,1.25-1.25a.66.66,0,0,1,.27-.2,1.06,1.06,0,0,1,.31-.05.83.83,0,0,1,.63.31,1.17,1.17,0,0,1,.28.81,1.87,1.87,0,0,1-.24.85,2.7,2.7,0,0,1-.79.91c-.69.67-1.41,1.31-2.13,1.92a19.86,19.86,0,0,1-2.21,1.63A12.24,12.24,0,0,1,55.49,28a6.29,6.29,0,0,1-2.22.43A3.71,3.71,0,0,1,51,27.72a2.53,2.53,0,0,1-.88-2.15,4.49,4.49,0,0,1,.37-1.82,8.76,8.76,0,0,1,.91-1.63c.36-.52.74-1,1.14-1.52a13.25,13.25,0,0,0,1-1.47,4.23,4.23,0,0,0,.31-.59A1.46,1.46,0,0,0,54,18a.72.72,0,0,0-.18-.51.6.6,0,0,0-.5-.21,3.71,3.71,0,0,0-1.53.34,7.08,7.08,0,0,0-1.41.89,10.28,10.28,0,0,0-1.29,1.27c-.4.48-.78,1-1.14,1.48s-.68,1-1,1.52l-.85,1.37a10.46,10.46,0,0,0-.64,1.39c-.2.51-.41,1-.63,1.4A4.66,4.66,0,0,1,44,28a1.41,1.41,0,0,1-1.06.44,1.61,1.61,0,0,1-.5-.09,2.1,2.1,0,0,1-.5-.24,1.4,1.4,0,0,1-.36-.37A.9.9,0,0,1,41.45,27.25Z"/><path class="cls-1" d="M63.23,15.53a2,2,0,0,1,.76-.77,1.72,1.72,0,0,1,.87-.23,1.79,1.79,0,0,1,1.26.47,1.54,1.54,0,0,1,.54,1.21c0,.12,0,.23,0,.35a1.08,1.08,0,0,1-.13.35c-.18.33-.33.62-.44.85s-.23.45-.32.65-.19.39-.28.59l-.33.69-.52,1.06c-.2.38-.38.77-.56,1.17a12.2,12.2,0,0,0-.44,1.18,3.57,3.57,0,0,0-.18,1.06c0,.35.08.58.26.69a1.38,1.38,0,0,0,.74.16,3.17,3.17,0,0,0,1.13-.23,8.3,8.3,0,0,0,1.19-.6,11.57,11.57,0,0,0,1.18-.84c.39-.32.75-.64,1.1-1s.65-.63.94-.93.54-.56.73-.79a1.11,1.11,0,0,1,.77-.37.66.66,0,0,1,.57.31,1.32,1.32,0,0,1,.23.79,2.32,2.32,0,0,1-.23.95,2.72,2.72,0,0,1-.72.95q-1,1-2,1.92a18,18,0,0,1-2.1,1.63A11.79,11.79,0,0,1,65,28a6,6,0,0,1-2.19.43,3.54,3.54,0,0,1-2.46-.81,3.18,3.18,0,0,1-.9-2.5,6.05,6.05,0,0,1,.25-1.74,15.6,15.6,0,0,1,.6-1.66c.23-.53.48-1.05.74-1.54s.47-1,.65-1.43c.07-.16.18-.42.34-.77s.33-.7.51-1.06Zm2.13-4.35A2.73,2.73,0,0,1,66,9.4a2.63,2.63,0,0,1,.82-.64A2.52,2.52,0,0,1,68,8.51,2.23,2.23,0,0,1,69.58,9,1.48,1.48,0,0,1,70,10a2.87,2.87,0,0,1-.14.81,2.82,2.82,0,0,1-.44.82,2.33,2.33,0,0,1-.75.63,2.28,2.28,0,0,1-1.11.25,2.82,2.82,0,0,1-1.68-.37A1.41,1.41,0,0,1,65.36,11.18Z"/><path class="cls-1" d="M68.12,24.86c.31-.66.67-1.39,1.07-2.2s.8-1.61,1.21-2.4L71.55,18l.91-1.83L78.84,3.62a1.76,1.76,0,0,1,.36-.49,2.92,2.92,0,0,1,.55-.41,3.23,3.23,0,0,1,.66-.29,2.37,2.37,0,0,1,.69-.11,1.7,1.7,0,0,1,1.18.32,1,1,0,0,1,.33.78,2.18,2.18,0,0,1-.21.9,5.68,5.68,0,0,1-.48.88c-.57,1-1.12,2-1.64,2.93l-1.56,3c-.53,1-1,2-1.58,3s-1.08,2-1.66,2.93c.36-.35.74-.71,1.15-1.08a9.7,9.7,0,0,1,1.32-1,7.36,7.36,0,0,1,1.57-.76,5.68,5.68,0,0,1,1.89-.3,5.55,5.55,0,0,1,1.18.12,2.91,2.91,0,0,1,1,.37,2,2,0,0,1,.68.72,2.33,2.33,0,0,1,.25,1.11,4.84,4.84,0,0,1-.26,1.6,7.56,7.56,0,0,1-.67,1.37,13.37,13.37,0,0,1-.89,1.24c-.32.39-.63.79-.92,1.2A8.54,8.54,0,0,0,81,22.84a4.05,4.05,0,0,0-.4,1.44.17.17,0,0,1,0,.07.22.22,0,0,0,0,.08c0,.26.09.42.26.48a1.86,1.86,0,0,0,.67.1,3.63,3.63,0,0,0,1.12-.2,8.49,8.49,0,0,0,1.21-.54,13.68,13.68,0,0,0,1.22-.77c.41-.28.79-.57,1.16-.87s.71-.58,1-.86l.79-.73a1.62,1.62,0,0,1,.37-.23,1,1,0,0,1,.36-.07.74.74,0,0,1,.59.26,1,1,0,0,1,.25.7,2,2,0,0,1-.29.93,3.35,3.35,0,0,1-1,1.05c-.71.61-1.43,1.21-2.17,1.78A21.13,21.13,0,0,1,84,27,12.87,12.87,0,0,1,81.75,28a6.51,6.51,0,0,1-2.17.39,3.58,3.58,0,0,1-2.21-.63,2.34,2.34,0,0,1-.83-2,5,5,0,0,1,.34-1.86,9.9,9.9,0,0,1,.83-1.7q.5-.82,1.05-1.59a14.86,14.86,0,0,0,1-1.5,3.71,3.71,0,0,0,.36-.61,1.54,1.54,0,0,0,.12-.61.72.72,0,0,0-.15-.47.61.61,0,0,0-.48-.19,4,4,0,0,0-2.11.57,7.51,7.51,0,0,0-1.78,1.43,15,15,0,0,0-1.51,1.9c-.47.69-.9,1.35-1.3,2-.18.29-.36.61-.55,1s-.38.75-.58,1.13-.41.77-.63,1.15a9.5,9.5,0,0,1-.68,1,3.35,3.35,0,0,1-.76.71,1.38,1.38,0,0,1-.82.28,1.39,1.39,0,0,1-1-.4,1.43,1.43,0,0,1-.36-1,3.28,3.28,0,0,1,.15-.94A10.5,10.5,0,0,1,68.12,24.86Z"/><path class="cls-1" d="M89.89,15.53a2.06,2.06,0,0,1,.75-.77,1.72,1.72,0,0,1,.87-.23,1.84,1.84,0,0,1,1.27.47,1.57,1.57,0,0,1,.53,1.21c0,.12,0,.23,0,.35a1.32,1.32,0,0,1-.12.35c-.18.33-.33.62-.45.85l-.32.65c-.09.2-.19.39-.28.59l-.33.69c-.15.32-.33.68-.52,1.06s-.38.77-.55,1.17a12.32,12.32,0,0,0-.45,1.18,3.57,3.57,0,0,0-.18,1.06.77.77,0,0,0,.26.69,1.42,1.42,0,0,0,.75.16,3.21,3.21,0,0,0,1.13-.23,8.85,8.85,0,0,0,1.19-.6,12.8,12.8,0,0,0,1.18-.84c.38-.32.75-.64,1.09-1s.66-.63,1-.93.53-.56.72-.79a1.13,1.13,0,0,1,.78-.37.67.67,0,0,1,.57.31,1.32,1.32,0,0,1,.22.79,2.3,2.3,0,0,1-.22.95,2.76,2.76,0,0,1-.73.95q-1,1-2,1.92a16.49,16.49,0,0,1-2.1,1.63A11.4,11.4,0,0,1,91.69,28a6.09,6.09,0,0,1-2.19.43A3.57,3.57,0,0,1,87,27.59a3.18,3.18,0,0,1-.9-2.5,6.42,6.42,0,0,1,.25-1.74,15.6,15.6,0,0,1,.6-1.66c.24-.53.48-1.05.74-1.54a14.79,14.79,0,0,0,.66-1.43c.06-.16.17-.42.34-.77s.33-.7.51-1.06S89.65,16,89.89,15.53ZM92,11.18a2.81,2.81,0,0,1,.17-.92,2.62,2.62,0,0,1,1.31-1.5,2.52,2.52,0,0,1,1.17-.25A2.23,2.23,0,0,1,96.23,9,1.45,1.45,0,0,1,96.68,10a2.59,2.59,0,0,1-.15.81,2.8,2.8,0,0,1-.43.82,2.49,2.49,0,0,1-.76.63,2.26,2.26,0,0,1-1.1.25,2.82,2.82,0,0,1-1.68-.37A1.39,1.39,0,0,1,92,11.18Z"/><path class="cls-1" d="M101.86,18q.73-.75,1.56-1.5a13.71,13.71,0,0,1,1.72-1.34,9.48,9.48,0,0,1,1.88-.95,5.79,5.79,0,0,1,2.07-.37,6.07,6.07,0,0,1,1.32.15,3.88,3.88,0,0,1,1.23.47,2.92,2.92,0,0,1,.9.85,2.26,2.26,0,0,1,.34,1.28,4.47,4.47,0,0,1-.57,2.24,6.84,6.84,0,0,1-1.48,1.8,10.82,10.82,0,0,1-2,1.4,20.27,20.27,0,0,1-2.17,1,1.9,1.9,0,0,0-.51.3,2.82,2.82,0,0,0-.39.38,1.87,1.87,0,0,0-.26.41.75.75,0,0,0-.1.34.6.6,0,0,0,.14.39.67.67,0,0,0,.52.17,5.5,5.5,0,0,0,1.62-.29,17.67,17.67,0,0,0,2.12-.88c.81-.4,1.73-.89,2.77-1.5s2.23-1.32,3.58-2.15a1.23,1.23,0,0,1,.62-.19.69.69,0,0,1,.58.27,1.08,1.08,0,0,1,.22.71,2.53,2.53,0,0,1-.4,1.23,4.15,4.15,0,0,1-1.33,1.31l-2.65,1.64a30.35,30.35,0,0,1-2.78,1.56,18.9,18.9,0,0,1-2.94,1.16,10.82,10.82,0,0,1-3.1.46c-1.83,0-2.74-.8-2.74-2.38a4.55,4.55,0,0,1,.53-2.22,6.69,6.69,0,0,1,1.3-1.67A9.55,9.55,0,0,1,105,20.9c.56-.34,1-.65,1.43-.92a7.74,7.74,0,0,0,.87-.58,5.76,5.76,0,0,0,.73-.64,3.19,3.19,0,0,0,.5-.66,1.5,1.5,0,0,0,.19-.69c0-.37-.18-.56-.53-.56q-1.93,0-5.41,3.73c-.53.57-1,1.12-1.45,1.66s-.85,1.06-1.23,1.57-.75,1-1.09,1.5-.7.94-1,1.38c-1,1.14-1.9,1.71-2.69,1.71a1.27,1.27,0,0,1-.81-.21.92.92,0,0,1-.25-.76v-.16a.52.52,0,0,1,0-.17,4.82,4.82,0,0,1,.33-1.18q.28-.8.72-1.8c.29-.67.61-1.39,1-2.15s.7-1.5,1-2.23l1-2c.31-.64.57-1.17.77-1.6l6.11-12.47a1.76,1.76,0,0,1,.36-.49,3.2,3.2,0,0,1,.54-.41,3.07,3.07,0,0,1,.64-.29,2.37,2.37,0,0,1,.69-.11,1.73,1.73,0,0,1,1.21.33,1.08,1.08,0,0,1,.34.79,2.14,2.14,0,0,1-.21.89,5.18,5.18,0,0,1-.47.87q-.81,1.45-1.62,3.09c-.53,1.09-1.06,2.19-1.59,3.32s-1.07,2.22-1.61,3.31S102.41,17,101.86,18Z"/><path class="cls-1" d="M123.62,13.85a7,7,0,0,1,1.58.19,4.75,4.75,0,0,1,1.55.66,3.79,3.79,0,0,1,1.19,1.23,3.49,3.49,0,0,1,.48,1.89,6.2,6.2,0,0,1-.16,1.32,10.43,10.43,0,0,1-.46,1.56,1.24,1.24,0,0,0,.44.33,1.61,1.61,0,0,0,.54.09,2.14,2.14,0,0,0,.9-.23,6.14,6.14,0,0,0,1-.6,9.69,9.69,0,0,0,1-.83q.52-.47,1-.93c.31-.31.59-.6.84-.88l.63-.71a.44.44,0,0,1,.33-.13.59.59,0,0,1,.48.28,1.29,1.29,0,0,1,.22.78,2.81,2.81,0,0,1-.3,1.16,4.27,4.27,0,0,1-1.12,1.38l-1.06,1.16a15,15,0,0,1-1.28,1.24,8.71,8.71,0,0,1-1.41,1,2.93,2.93,0,0,1-2.45.25,3.49,3.49,0,0,1-1-.5,12.24,12.24,0,0,1-1.59,2,9.2,9.2,0,0,1-2,1.53,10.09,10.09,0,0,1-2.36,1,9.89,9.89,0,0,1-2.7.36,4.64,4.64,0,0,1-1.26-.22,4.11,4.11,0,0,1-2.45-2,3.85,3.85,0,0,1-.45-1.93,8.86,8.86,0,0,1,.25-1.86,11.83,11.83,0,0,1,.77-2.23,14.26,14.26,0,0,1,1.29-2.29,10.57,10.57,0,0,1,1.87-2,9.09,9.09,0,0,1,2.48-1.45A8.25,8.25,0,0,1,123.62,13.85Zm-1,3.4a3.69,3.69,0,0,0-1.75.46,5.32,5.32,0,0,0-1.49,1.2,6.12,6.12,0,0,0-1,1.68,5,5,0,0,0-.39,1.93,5.93,5.93,0,0,0,.06.8,2.72,2.72,0,0,0,.24.81,1.79,1.79,0,0,0,.53.63,1.57,1.57,0,0,0,.93.25,3.52,3.52,0,0,0,1.73-.47,5.71,5.71,0,0,0,1.5-1.24,6.21,6.21,0,0,0,1-1.73,5.21,5.21,0,0,0,.38-2,7.51,7.51,0,0,0,0-.8,2.12,2.12,0,0,0-.24-.76,1.45,1.45,0,0,0-.53-.57A1.73,1.73,0,0,0,122.61,17.25Z"/><path class="cls-1" d="M149.21,17.14a.88.88,0,0,1,.82.45,2,2,0,0,1,.26,1,2.41,2.41,0,0,1,0,.5,1,1,0,0,1-.24.4,2,2,0,0,1-.46.35c-.19.1-.45.22-.75.35a5.17,5.17,0,0,0-1.71,1.11,1.94,1.94,0,0,0-.62,1.29,1.27,1.27,0,0,0,.28.78,2.18,2.18,0,0,0,.85.64,5.62,5.62,0,0,0,1.49.45,13,13,0,0,0,2.22.16,9.48,9.48,0,0,0,2.53-.32,7.16,7.16,0,0,0,2.1-.9,4.7,4.7,0,0,0,1.43-1.37,3,3,0,0,0,.54-1.72,2.43,2.43,0,0,0-.58-1.45,7.41,7.41,0,0,0-1.84-1.57c-1.48-1-2.61-1.75-3.38-2.34s-1.24-1-1.42-1.12a10.93,10.93,0,0,1-2.17-2.46A4.69,4.69,0,0,1,147.8,9a5.05,5.05,0,0,1,.57-2.31,8.39,8.39,0,0,1,1.54-2.1,13.62,13.62,0,0,1,2.23-1.83,17.46,17.46,0,0,1,2.65-1.44,16.36,16.36,0,0,1,2.79-.94A11.09,11.09,0,0,1,160.24,0,6.94,6.94,0,0,1,162,.21a4.23,4.23,0,0,1,1.4.67,3.11,3.11,0,0,1,.94,1.17,4.09,4.09,0,0,1,.34,1.72,5.07,5.07,0,0,1-.84,2.77A8.64,8.64,0,0,1,161.3,9a2.56,2.56,0,0,1-1.39.52,1.28,1.28,0,0,1-1-.48,1.66,1.66,0,0,1-.38-1.11,2.12,2.12,0,0,1,.31-1.08,2.65,2.65,0,0,1,1-.93,3.56,3.56,0,0,0,1-.78,1.47,1.47,0,0,0,.43-1,.56.56,0,0,0-.3-.58,1.74,1.74,0,0,0-.72-.14,8.18,8.18,0,0,0-1.77.21,12.59,12.59,0,0,0-1.92.55,14.06,14.06,0,0,0-1.86.83,10.05,10.05,0,0,0-1.58,1A5.27,5.27,0,0,0,152,7.28a2.25,2.25,0,0,0-.42,1.25,1.9,1.9,0,0,0,.17.79,3,3,0,0,0,.52.74,7.8,7.8,0,0,0,.82.76c.32.27.69.55,1.12.86L158.75,15c.58.43,1.1.84,1.55,1.25a8.18,8.18,0,0,1,1.16,1.22,5.67,5.67,0,0,1,.71,1.22,3.48,3.48,0,0,1,.25,1.32,6.36,6.36,0,0,1-.8,3,8.83,8.83,0,0,1-2.28,2.64,12.13,12.13,0,0,1-3.56,1.87,14.08,14.08,0,0,1-4.62.72,18.37,18.37,0,0,1-4-.38,9.21,9.21,0,0,1-2.72-1,4.33,4.33,0,0,1-1.54-1.49,3.43,3.43,0,0,1-.49-1.77,4.43,4.43,0,0,1,.5-2,6.87,6.87,0,0,1,1.39-1.88,10.25,10.25,0,0,1,2.15-1.59A11.21,11.21,0,0,1,149.21,17.14Z"/><path class="cls-1" d="M185.07,22.34l-.93.91q-.57.59-1.32,1.26c-.5.45-1,.9-1.59,1.36a16.68,16.68,0,0,1-1.72,1.25,12.15,12.15,0,0,1-1.73.92,4.13,4.13,0,0,1-1.61.36,2.27,2.27,0,0,1-1.16-.29,2.64,2.64,0,0,1-.8-.76,3.34,3.34,0,0,1-.47-1.05,4.52,4.52,0,0,1-.16-1.21,5.29,5.29,0,0,1,.06-.8,3.43,3.43,0,0,1,.19-.75c-.4.54-.85,1.1-1.36,1.67a13.46,13.46,0,0,1-1.64,1.57A9.28,9.28,0,0,1,169,27.94a4.57,4.57,0,0,1-2,.46,4.3,4.3,0,0,1-2.43-.87,3.85,3.85,0,0,1-1-1.2,3.68,3.68,0,0,1-.4-1.8,9.18,9.18,0,0,1,.24-1.9,13.41,13.41,0,0,1,.73-2.29A14.13,14.13,0,0,1,165.43,18a10.25,10.25,0,0,1,1.81-2.08,8.78,8.78,0,0,1,2.38-1.49,7.5,7.5,0,0,1,3-.57,4.72,4.72,0,0,1,1.48.21,6.7,6.7,0,0,1,1.09.47,5.6,5.6,0,0,1,.89.67c.22-.11.44-.22.68-.32a5.39,5.39,0,0,1,.6-.25,1.84,1.84,0,0,1,.56-.1,1.76,1.76,0,0,1,1.2.4,1.2,1.2,0,0,1,.46.89,1.27,1.27,0,0,1,0,.22,8.62,8.62,0,0,1-.3.92c-.14.38-.29.79-.45,1.25l-.52,1.43c-.17.5-.33,1-.47,1.46s-.26.93-.35,1.35a5.14,5.14,0,0,0-.13,1.07,2.08,2.08,0,0,0,.19,1,.69.69,0,0,0,.66.38,1.72,1.72,0,0,0,.68-.19,5.58,5.58,0,0,0,.86-.49c.31-.21.63-.44,1-.71s.65-.53,1-.8c.72-.64,1.49-1.38,2.3-2.21a1,1,0,0,1,.6-.25.78.78,0,0,1,.65.38,1.46,1.46,0,0,1,.26.84A1.21,1.21,0,0,1,185.07,22.34Zm-13.4-5a3.6,3.6,0,0,0-1.76.47A5.3,5.3,0,0,0,168.4,19a6.2,6.2,0,0,0-1.05,1.7,5,5,0,0,0-.38,1.88,5.68,5.68,0,0,0,.05.81,2.16,2.16,0,0,0,.22.76,1.6,1.6,0,0,0,.49.58,1.46,1.46,0,0,0,.86.23,1.82,1.82,0,0,0,1-.38,8.59,8.59,0,0,0,1.18-1c.4-.4.8-.83,1.19-1.3s.73-.93,1-1.38.56-.86.76-1.22a2.07,2.07,0,0,0,.29-.79,1,1,0,0,0-.26-.67,2.18,2.18,0,0,0-.61-.51,2.85,2.85,0,0,0-.79-.32A3,3,0,0,0,171.67,17.35Z"/><path class="cls-1" d="M188.82,17.16c-.47.93-.92,1.83-1.35,2.72s-.82,1.69-1.2,2.44a9.55,9.55,0,0,0-.45,1.08,3.13,3.13,0,0,0-.23,1.07.66.66,0,0,0,.13.42.48.48,0,0,0,.42.16,2.94,2.94,0,0,0,1-.24,12.21,12.21,0,0,0,1.34-.64c.47-.26,1-.57,1.5-.91s1.05-.7,1.56-1.06,1-.74,1.46-1.11.88-.7,1.24-1a1.06,1.06,0,0,1,.58-.21.62.62,0,0,1,.54.29,1.19,1.19,0,0,1,.21.73,2.19,2.19,0,0,1-.21.91,2.62,2.62,0,0,1-.77.91c-.84.76-1.69,1.48-2.55,2.17a24.86,24.86,0,0,1-2.55,1.8,13.89,13.89,0,0,1-2.5,1.25,6.86,6.86,0,0,1-2.4.47,3.5,3.5,0,0,1-1.3-.21,2,2,0,0,1-.84-.56,2.1,2.1,0,0,1-.45-.83,3.7,3.7,0,0,1-.14-1,6.7,6.7,0,0,1,.33-2,13.77,13.77,0,0,1,.73-1.87l1.15-2.38,1.12-2.27h-.83a2.36,2.36,0,0,1-1.49-.34,1.05,1.05,0,0,1-.41-.8,1.12,1.12,0,0,1,.13-.47,1.62,1.62,0,0,1,.36-.52,2.4,2.4,0,0,1,.59-.42,1.71,1.71,0,0,1,.8-.17h2.09l4.08-8.11a2.4,2.4,0,0,1,.95-1,2.44,2.44,0,0,1,1.19-.32,1.91,1.91,0,0,1,1.07.31,1.12,1.12,0,0,1,.48,1,1.84,1.84,0,0,1-.16.75c-.11.25-.26.54-.44.88s-.26.48-.42.78l-.54,1-.58,1.07c-.2.38-.39.74-.59,1.09-.43.82-.9,1.69-1.39,2.61h6.31a5.64,5.64,0,0,1,.85.05,1.88,1.88,0,0,1,.67.19,1.11,1.11,0,0,1,.43.4,1.27,1.27,0,0,1,.16.67,1.61,1.61,0,0,1-.07.43.93.93,0,0,1-.25.38,1.32,1.32,0,0,1-.51.29,3.12,3.12,0,0,1-.82.16Z"/><path class="cls-1" d="M201.69,13.85a6.92,6.92,0,0,1,1.57.19,4.8,4.8,0,0,1,1.56.66A3.89,3.89,0,0,1,206,15.93a3.49,3.49,0,0,1,.47,1.89,6.83,6.83,0,0,1-.15,1.32,10.43,10.43,0,0,1-.46,1.56,1.09,1.09,0,0,0,.44.33,1.61,1.61,0,0,0,.54.09,2.22,2.22,0,0,0,.9-.23,6.14,6.14,0,0,0,1-.6,10.79,10.79,0,0,0,1-.83q.52-.47,1-.93c.31-.31.59-.6.84-.88l.63-.71a.44.44,0,0,1,.33-.13.59.59,0,0,1,.48.28,1.29,1.29,0,0,1,.21.78A2.81,2.81,0,0,1,213,19a4.36,4.36,0,0,1-1.11,1.38l-1.06,1.16a15,15,0,0,1-1.28,1.24,8.71,8.71,0,0,1-1.41,1,3,3,0,0,1-1.47.41,3,3,0,0,1-1-.16,3.69,3.69,0,0,1-1-.5,11.67,11.67,0,0,1-1.58,2,9.71,9.71,0,0,1-2,1.53,10.09,10.09,0,0,1-2.36,1,9.89,9.89,0,0,1-2.7.36,4.64,4.64,0,0,1-1.26-.22,4.17,4.17,0,0,1-2.46-2,4,4,0,0,1-.44-1.93,8.24,8.24,0,0,1,.25-1.86,12.52,12.52,0,0,1,.76-2.23,15.15,15.15,0,0,1,1.3-2.29,10,10,0,0,1,1.87-2,9,9,0,0,1,2.47-1.45A8.31,8.31,0,0,1,201.69,13.85Zm-1,3.4a3.69,3.69,0,0,0-1.75.46,5.19,5.19,0,0,0-1.49,1.2,6.12,6.12,0,0,0-1,1.68,5,5,0,0,0-.39,1.93,5.93,5.93,0,0,0,.06.8,2.72,2.72,0,0,0,.24.81,1.69,1.69,0,0,0,.53.63,1.53,1.53,0,0,0,.93.25,3.55,3.55,0,0,0,1.73-.47A5.71,5.71,0,0,0,201,23.3a6,6,0,0,0,1-1.73,5.23,5.23,0,0,0,.39-2,5.63,5.63,0,0,0-.05-.8,2.11,2.11,0,0,0-.23-.76,1.45,1.45,0,0,0-.53-.57A1.73,1.73,0,0,0,200.68,17.25Z"/></g></g></svg>