<?xml version="1.0" encoding="UTF-8"?>
<svg width="120px" height="120px" viewBox="0 0 120 120" version="1.1" xmlns="http://www.w3.org/2000/svg" xmlns:xlink="http://www.w3.org/1999/xlink">
    <!-- Generator: Sketch 50.2 (55047) - http://www.bohemiancoding.com/sketch -->
    <title>icon_twitter</title>
    <desc>Created with Sketch.</desc>
    <defs></defs>
    <g id="Page-1" stroke="none" stroke-width="1" fill="none" fill-rule="evenodd">
        <g id="icon_twitter">
            <circle id="Oval-Copy" stroke="#FFF" stroke-width="4" cx="60" cy="60" r="58"></circle>
            <path d="M88.3705357,45.4464286 C88.4151786,46.0714286 88.4151786,46.71875 88.4151786,47.34375 C88.4151786,66.6964286 73.6830357,88.9955357 46.7633929,88.9955357 C38.4598214,88.9955357 30.7589286,86.5848214 24.2857143,82.4330357 C25.46875,82.5669643 26.6071429,82.6116071 27.8125,82.6116071 C34.6651786,82.6116071 40.9598214,80.2901786 45.9821429,76.3616071 C39.5535714,76.2276786 34.1517857,72.0089286 32.2991071,66.2053571 C34.5535714,66.5401786 36.5848214,66.5401786 38.90625,65.9375 C32.2098214,64.5758929 27.1875,58.6830357 27.1875,51.5625 L27.1875,51.3839286 C29.1294643,52.4776786 31.40625,53.1473214 33.7946429,53.2366071 C29.7161789,50.5237427 27.2687665,45.9474168 27.2767857,41.0491071 C27.2767857,38.3258929 27.9910714,35.8258929 29.2633929,33.6607143 C36.4732143,42.5446429 47.2991071,48.3482143 59.4419643,48.9732143 C57.3660714,39.0401786 64.7991071,30.9821429 73.7276786,30.9821429 C77.9464286,30.9821429 81.7410714,32.7455357 84.4196429,35.6026786 C87.7232143,34.9776786 90.8928571,33.75 93.7053571,32.0758929 C92.6116071,35.46875 90.3125,38.3258929 87.2767857,40.1339286 C90.2232143,39.8214286 93.0803571,38.9955357 95.7142857,37.8571429 C93.7276786,40.78125 91.2276786,43.3705357 88.3705357,45.4464286 Z" id="Shape" fill="#FFF" fill-rule="nonzero"></path>
        </g>
    </g>
</svg>