<svg xmlns="http://www.w3.org/2000/svg" viewBox="0 0 227.46 227.48"><defs><style>.cls-1{fill:#fff;}</style></defs><title>icon_open</title><g id="レイヤー_2" data-name="レイヤー 2"><g id="レイヤー_1-2" data-name="レイヤー 1"><path class="cls-1" d="M65.5.69a18.06,18.06,0,0,0-11.59,9.84c-.82,1.74-1,4.3-1.18,22l-.25,20-20,.25c-19,.26-20.1.31-22.3,1.33a17.19,17.19,0,0,0-8.3,8.31L.2,65.83l-.16,73c-.1,72.94-.1,73,1,76.58.92,3.07,1.54,4,4.25,6.76S9,225.54,12,226.47c3.53,1.08,3.64,1.08,76.57,1l73-.15,3.44-1.69a17.23,17.23,0,0,0,8.3-8.31c1-2.2,1.08-3.28,1.34-22.29l.25-20,20-.25c19-.26,20.1-.31,22.3-1.33a17.19,17.19,0,0,0,8.3-8.31l1.69-3.43.16-73c.1-72.94.1-73-1-76.58-.93-3.07-1.54-4-4.26-6.76S218.45,2,215.53,1C212,0,211.79,0,139.92,0,84.51,0,67.29.17,65.5.69ZM210.09,87.36v70H70.16V17.39H210.09v70ZM52.73,115.91v45.77l1.49,3.08a18,18,0,0,0,8,8.35l2.56,1.39,46.23.15,46.29.1v35.37H17.37V70.19H52.73Z"/><path class="cls-1" d="M128.34,35.59a8.77,8.77,0,0,0-1.28,15.84c1.69,1,2.71,1.08,18.4,1.23l16.61.15L134.34,80.59c-19.12,19.17-28,28.4-28.55,29.68a8.25,8.25,0,0,0,.41,7.59,8.61,8.61,0,0,0,11,3.84c1.28-.56,10.5-9.43,29.67-28.55l27.79-27.73L174.83,82c.15,15.68.2,16.71,1.23,18.4a9.78,9.78,0,0,0,6.2,4.41c4.1.76,8.76-2.26,9.89-6.36.36-1.54.52-10.4.41-29.73l-.15-27.52-1.18-1.9a12.65,12.65,0,0,0-3.07-3.08l-1.9-1.17L158.32,35C135.16,34.87,130,35,128.34,35.59Z"/></g></g></svg>