<svg xmlns="http://www.w3.org/2000/svg" viewBox="0 0 84.4 68.7"><defs><style>.cls-1{fill:#232222;}</style></defs><title>title03</title><g id="レイヤー_2" data-name="レイヤー 2"><g id="レイヤー_2-2" data-name="レイヤー 2"><path class="cls-1" d="M33.5,46.5c0,7.6-1,12-3.5,15.8-2.8,4.1-7.5,6.4-13.2,6.4S6.3,66.4,3.5,62.3C1,58.5,0,54,0,46.5V22.2c0-7.5,1-12,3.5-15.8C6.3,2.3,11,0,16.8,0S27.2,2.3,30,6.4c2.5,3.8,3.5,8.2,3.5,15.8ZM9.7,48.6c0,4.6.2,5.9,1.2,7.8a6.34,6.34,0,0,0,5.9,3.1,6.29,6.29,0,0,0,5.8-3.1c1-1.9,1.2-3.1,1.2-7.8V20.1c0-4.7-.2-5.9-1.2-7.8a6.29,6.29,0,0,0-5.8-3.1,6.34,6.34,0,0,0-5.9,3.1c-1,1.9-1.2,3.1-1.2,7.8Z"/><path class="cls-1" d="M64.9,28c4.1-.1,5.4-.6,6.8-2.1s1.9-3.9,1.9-7.3c0-6.3-2-9.4-6.1-9.4-3.9,0-6.2,2.9-6.3,7.8v1H51.5V16.8C51.5,6.8,58.1,0,67.8,0c9.9,0,15.5,6.7,15.5,18.4,0,8.1-2.1,11.8-8,14,6.8,2,9.1,6,9.1,15.8,0,6.8-1.4,11.5-4.5,15.1s-7.4,5.4-12.6,5.4c-10,0-16.7-7.1-16.7-17.6V48.7h10v1.4c0,6,2.5,9.4,6.8,9.4,4.6,0,7-3.8,7-11.3,0-7.9-2.4-10.7-9.5-10.9Z"/></g></g></svg>