<svg xmlns="http://www.w3.org/2000/svg" viewBox="0 0 84.3 68.7"><defs><style>.cls-1{fill:#232222;}</style></defs><title>title02</title><g id="レイヤー_2" data-name="レイヤー 2"><g id="レイヤー_2-2" data-name="レイヤー 2"><path class="cls-1" d="M33.5,46.5c0,7.6-1,12-3.5,15.8-2.8,4.1-7.5,6.4-13.2,6.4S6.3,66.4,3.5,62.3C1,58.5,0,54,0,46.5V22.2c0-7.5,1-12,3.5-15.8C6.3,2.3,11,0,16.8,0S27.2,2.3,30,6.4c2.5,3.8,3.5,8.2,3.5,15.8ZM9.7,48.6c0,4.6.2,5.9,1.2,7.8a6.34,6.34,0,0,0,5.9,3.1,6.29,6.29,0,0,0,5.8-3.1c1-1.9,1.2-3.1,1.2-7.8V20.1c0-4.7-.2-5.9-1.2-7.8a6.29,6.29,0,0,0-5.8-3.1,6.34,6.34,0,0,0-5.9,3.1c-1,1.9-1.2,3.1-1.2,7.8Z"/><path class="cls-1" d="M83,67.7H50.5v-9C71.7,30.9,74.3,26.5,74.3,17.6c0-5.5-2.2-8.4-6.4-8.4a6.54,6.54,0,0,0-6.1,3.9c-.7,1.5-.9,3.1-.9,7.3H51.2c0-7.3.7-10.5,2.8-13.5C56.9,2.5,62.1,0,68.1,0,78.2,0,84.3,6.6,84.3,17.7A29.7,29.7,0,0,1,80.1,33c-3.2,5.4-3.2,5.4-14.9,21.1-1.1,1.6-2.3,3.1-3.4,4.6H83Z"/></g></g></svg>