<svg xmlns="http://www.w3.org/2000/svg" viewBox="0 0 492.8 68.7"><defs><style>.cls-1{fill:#232222;}</style></defs><title>title_processing</title><g id="レイヤー_2" data-name="レイヤー 2"><g id="レイヤー_2-2" data-name="レイヤー 2"><path class="cls-1" d="M10.3,67.7H0V1H17.1c6.7,0,10.9,1.3,14,4.3,3.6,3.4,5.3,8.4,5.3,15.5S34.7,33,31.1,36.4c-3.1,3-7.3,4.3-14,4.3H10.3Zm4.5-36.5c8.3,0,10.9-2.5,10.9-10.4S23.1,10.5,14.8,10.5H10.3V31.2Z"/><path class="cls-1" d="M63.8,67.7H53.5V1H69.6c6.1,0,10,1.2,13.2,4,4,3.4,6,8.5,6,15.1,0,8.4-3,14.2-9,17.3l9.8,30.3H78.8L70,40.3H63.8Zm3.8-36.9c4.4,0,6.4-.5,8-2.1s2.5-4.4,2.5-8.1-.8-6.3-2.5-8-3.6-2.1-8-2.1H63.8V30.8Z"/><path class="cls-1" d="M143.1,46.5c0,7.5-1.1,12-3.8,15.8-3,4.2-8,6.4-14.4,6.4s-11.4-2.2-14.4-6.4c-2.7-3.8-3.8-8.3-3.8-15.8V22.2c0-7.5,1.1-12,3.8-15.8,3-4.2,8-6.4,14.4-6.4s11.4,2.2,14.4,6.4c2.7,3.8,3.8,8.3,3.8,15.8ZM117,46.3c0,5.3.3,7.1,1.3,9.1a7.85,7.85,0,0,0,13.2,0c1.1-2.1,1.3-3.7,1.3-9.1V22.4c0-5.4-.2-7-1.3-9.1a7.85,7.85,0,0,0-13.2,0c-1,2-1.3,3.8-1.3,9.1Z"/><path class="cls-1" d="M187.7,22.7V21.3c0-7.7-2.7-11.6-7.8-11.6a6.52,6.52,0,0,0-6.1,3.3c-1.3,2.2-1.6,4.2-1.6,9.6V44.8c0,5.1.3,7.7,1.1,9.9a6.93,6.93,0,0,0,6.6,4.3c3.8,0,6.3-2.2,7.4-6.6.4-1.7.5-3.2.6-8.1h10.4v2.3c0,14.5-6.3,22.1-18.3,22.1-6.7,0-12-2.6-14.9-7.4-2.5-4.1-3.2-8-3.2-17.9V24.7c0-10.6.8-14.3,3.9-18.5,2.9-4,7.9-6.2,14.1-6.2C191.3,0,198,7.6,198,20.7v2Z"/><path class="cls-1" d="M247.2,10.5H227.3V28.1H242v9.5H227.3V58.2h19.9v9.5H217V1h30.2Z"/><path class="cls-1" d="M289.4,19.6c-1.6-6.6-4.6-9.9-8.8-9.9a6.6,6.6,0,0,0-6.7,6.8,10,10,0,0,0,2.8,6.7c1.7,1.9,1.7,1.9,8.8,7.3,5.6,4.4,7.7,6.3,9.9,9a19.49,19.49,0,0,1,4.3,12.2c0,10.1-7.4,17-18.3,17-11.4,0-18.1-6.1-20.2-18.8l9.9-2.9c1.3,8,4.8,12,10.3,12a7.24,7.24,0,0,0,7.6-7.6c0-4.2-2.1-6.9-9.9-13-9.3-7.3-9.7-7.7-12.2-10.9a18.08,18.08,0,0,1-3.7-11.1c0-9.6,7.2-16.4,17.4-16.4,9.5,0,15.9,5.7,18.7,16.7Z"/><path class="cls-1" d="M342,19.6c-1.6-6.6-4.6-9.9-8.8-9.9a6.6,6.6,0,0,0-6.7,6.8,10,10,0,0,0,2.8,6.7c1.7,1.9,1.7,1.9,8.8,7.3,5.6,4.4,7.7,6.3,9.9,9a19.49,19.49,0,0,1,4.3,12.2c0,10.1-7.4,17-18.3,17-11.4,0-18.1-6.1-20.2-18.8l9.9-2.9c1.3,8,4.8,12,10.3,12a7.24,7.24,0,0,0,7.6-7.6c0-4.2-2.1-6.9-9.9-13-9.3-7.3-9.7-7.7-12.2-10.9a18.08,18.08,0,0,1-3.7-11.1C315.8,6.8,323,0,333.2,0c9.5,0,15.9,5.7,18.7,16.7Z"/><path class="cls-1" d="M379.8,67.7H369.5V1h10.3Z"/><path class="cls-1" d="M437,67.7h-9.2l-18-44.4V67.7H400V1h10.4L427.2,42.5V1H437Z"/><path class="cls-1" d="M492.8,34.6V67.7h-5.3L485.6,62c-3.4,4.8-7.11,6.7-12.51,6.7-6.1,0-11.2-2.9-13.8-7.8-2.2-4.3-2.9-8.6-2.9-17.8V24.7c0-10.6.8-14.4,3.9-18.5,2.9-4,8-6.2,14.1-6.2,7.31,0,12.71,3.1,15.71,8.9,1.69,3.3,2.4,7.4,2.4,13.8H482.2c0-9.2-2.31-13-7.91-13a6.52,6.52,0,0,0-6.1,3.4c-1.2,2.2-1.5,4.2-1.5,9.6V43.1c0,5.5.3,8.4,1.1,10.9a7.2,7.2,0,0,0,7,5c5.41,0,7.71-3.9,7.71-13.2V43.1H474V34.6Z"/></g></g></svg>