<svg xmlns="http://www.w3.org/2000/svg" viewBox="0 0 562.63 79.52"><defs><style>.cls-1{fill:#fff;}</style></defs><title>title_name2_1</title><g id="レイヤー_2" data-name="レイヤー 2"><g id="レイヤー_2-2" data-name="レイヤー 2"><path class="cls-1" d="M15,54.39c-1.56,1.08-3,2-4.58,3.1A12.47,12.47,0,0,1,6,58.78c-3.74,0-5-2.23-6-4.82-.11-.22.8-3.89.76-4.54,0-.29.44-.72.33-.94C3.16,45,5.5,43.3,5.9,42.08c.07-.15.58-.58.79-.87,1.45-2.3,4.4-3.89,6.85-4.61,1.23-.28.11-.5,2.13-.5.11-.07,0-.07,1-.07s1,1.58.68,2.23c-.47.94-2.13,2.52-2.41,3.1l-.44.86c.07,0,.07.14.22.14.36,0,.75.08,1.18.08.94,0,1.81-.44,3.07-.22a20.6,20.6,0,0,1,3.67,1.15l.57,1.3c.29,0,.14,1.15-.51,2.59A36.24,36.24,0,0,1,15,54.39ZM12.2,44.88h-.51A19.11,19.11,0,0,1,9,46c-1,1.58-1.91,1.8-2.41,2.81a5.26,5.26,0,0,1-.65,1c-.33.65-.3,1.16-.77,2.09A19.58,19.58,0,0,0,4.58,54a2.48,2.48,0,0,0,2.34,2.52c2.23,0,7.31-3.82,8.54-5.4A16.16,16.16,0,0,0,17,49.56l.29-.57C18.24,47.33,14,44.88,12.2,44.88Z"/><path class="cls-1" d="M46.22,44.24a7.34,7.34,0,0,0-.91,1.36c-1,2-1.59,4-2.56,6a21.28,21.28,0,0,0-1.7,4c-.73,1.44-1.16,2.88-2,4.32,0,.36-.39.51-.18.65-1.15,2.16-2.06,4.39-3.18,6.62-1.7,3.39-8.95,12.25-13.2,12.25l-.18-.22a18.62,18.62,0,0,0-1.84.36c-.5-.43-.18-.22-.75-.22s-.79-.43-1.08-.72c-2.52-2.73-4.42-5.4-3.76-10,.31,3.82,1.5,4.9,4.12,7a15,15,0,0,0,1.8.29c5.26,0,10.93-11,13.61-14.76.36-.44.21-1.16.76-1.52.93-1.72,1.8-3.45,2.67-5.18.58-1.15,4.27-8.79,4.27-9.36l-9,1.37a9.45,9.45,0,0,1-2.41.64c-.44-.28-2.49.65-3.17.73l-.58.28H26c-1.65,0-.9-1.51-1.11-2.37l.29-.58c1.91-3.82,5.69-3.46,8.47-4.25a3.56,3.56,0,0,0,1.33.22c.94,0,2-.22,3-.22,1.73,0,3.27.22,5,.22.29,0,1,0,1.23-.43a38,38,0,0,1,1.88-4.18l0-.36c1.7-2.52,0-2.23,1-4.1.73-1.44,2.1-2.6,2.78-4a22.61,22.61,0,0,0,1.27-2.81,11.86,11.86,0,0,0,1.23-2.74l.22-.43.86-1.59.58-.86.07-.72a2.21,2.21,0,0,0,.83-.94A18.16,18.16,0,0,0,55.49,16c.61-.5.5-.29.61-.94A8.27,8.27,0,0,0,57,13.49c0-.94.87-1.87.58-2.74.22-.28.72-1,.54-.93.58-1.59,4.73-4.39,6.31-4.39,1.08,0-1.92,9.28-2.79,11,.07.58-1.78,4.83-2.1,5.47-.22,1.88-1.38,4.18-1.81,6.2-.25.36-.22.14-.37,1.29-.28.44-.28.87-.54,1.37-.76,1.51-2.88,2.88-4.43,3.82-1.62-.07-2.31.29-3.18,2-.43,1.16-1.19,2.67-1.84,4,1.48.22,14.62-1.58,16-2.16.5,0,.29.72.11,1.08C60.73,41.57,49.6,43.37,46.22,44.24Z"/><path class="cls-1" d="M152.32,42.53c-9,1.89-18,3.68-27.26,6.67-.7.8-3,3.39-2.79,4-.7,1.4-1.8,3.39-1.71,4.59-1,1.29-1.2,2.78-2,4.08.35.7-1.75,5.48-2.25,6.47-1.5,3-2.64,3.29-5.33,3.29-1.9,0-4.28-3.79-3.28-5.78.75-.49-.4-.2.65-1.49a36.45,36.45,0,0,1,3.3-7c.35-.3-.15.5,2.4-4.19a.88.88,0,0,0-.45-.69c-2.89,0-6.83,5.08-11.31,5.08-3.29,0-4.78-3-3.18-6.18,3.3-6.57,6.74-5.48,9.18-8.37a14.94,14.94,0,0,1,3.39-.79c3.19,0,1.24,2.89,4.43,2.89,3.48,0,4.89-4,6.19-6.58,1.6-3.18,3.74-6.27,5.34-9.46.85-.89.8-1.79,1.25-2.09.4-.6,1.65-2.69.65-2.69a54.87,54.87,0,0,0-11.15,1.4c-.8,0-.1,0-3.84.29s-9.32,2.3-9.61,2.3c-2.84-.1-2.24-.1-2.54-.3-3,.49-3.28-2.2-3.38-4.78l.7-1.4c1-2,6.28-4.38,8.08-4.38,3.38,0,5.52,1.49,9,1.49-.3,1,2.74.1,3.18,0s8.47,0,9.17-.39a.44.44,0,0,0,.4.19c4.08,0,3.59-5,9-5,2.79,0,2.19,2.19,2.53,4.08h1.29c1.7-.8,2.94.5,4.74-.5,2.09,0,1.09-.2,2.24-.3,4.48-.4,9.16-.8,12-1.59l2.34-.1c.9,0,1.6-.2,2.59-.2.8,0,1.35.89,1.74,1.29-1,.9-.89.8-1,.6-2.74,1.69-6.83,3.49-9.42,3.49l-.05-.1c-.8.2-4.74,1.49-4.93.89a42.4,42.4,0,0,1-7.92,1.1,42.19,42.19,0,0,1-7.08,1c-.84-.1-1.64,1.09-2.44,1.69-.45.89-3.8,7.17-3.85,7.47-.25.5-1.8,4-1.9,4-.1,1.79-3.35,6.28-.66,6.28,2.19,0,9.92-2.49,22.07-3.89,2.79-.4,7.82-.89,10.21-1.49.4,0,1.2.4.9,1C161.29,39.74,153.81,42.13,152.32,42.53Z"/><path class="cls-1" d="M195.41,55.47s-.1-.19-1.5,1.2c-1.64,1.1-.35.5-1.79,1.39,0-.39-1.1,1-1.9,1.6a111.16,111.16,0,0,1-11.91,7.07c-.85-.1-1.35.3-2,.2-.44-.1-1.59.4-1.94.3-2.29-.6-2.53-4.48-1.13-7.27.4-.8,1.15-3.09.95-3.49-9,6.38-12.61,8.47-17.1,10.46a7,7,0,0,1-3,.6c-1.14-.1-2-1.5-2.63-1.9-1.79-2.78.86-7.27,2.56-10.85a1.79,1.79,0,0,0,.6-1l2.65-4.48c1.09-1.59,2.19-3.59,1.85-4.68.4-2,.6-3,1.35-3.29,1.59-.59,1.65-1.89,3.19-2a18.86,18.86,0,0,0,2.49-1.79,44.53,44.53,0,0,1,4.74-1.89c.55-.1,1.19.2,1.94-.1.95.1,1.14.69,1.69.79a14.54,14.54,0,0,1,1.84.5,8.34,8.34,0,0,1,.8,1.2,5.37,5.37,0,0,0-.55,2.09l-1,1.59c-.65,1.1-6.09,4.18-6.69,4.58-1.24.9-2.69,2-3.69,2.79-2.14,1.69-8,11.25-6.5,12.75,7.18-1,17.16-10,20.1-14.24a8.06,8.06,0,0,1,6-2.69c.4,0,.65.1.95.1,1.14.1.39,1.59-.11,2.39l-.5,1.19c-.15.3-.59.2-.35.9l-.65,1.09c-.69,1.2-1.1,2.4-1.9,3.59-.14.3-4.25,9.46-3.3,9.76,1.29.4,14-8.07,14.26-8.37a3.84,3.84,0,0,1,2.09-1C195.86,55.18,195,54.78,195.41,55.47Z"/><path class="cls-1" d="M251.18,52.49c-.3.6-1.74.89-1.49,1.59a62.6,62.6,0,0,1-6.29,5c-4.43,3.09-5.63,4.08-9.07,5.58-.65,1.29-4.39,1.79-5.23,1.49l-.7.2c-3.09,0-4.82-5.48-2.37-9.16,0-.4-.1,0,.95-2.09.75-.7-.2-.2.5-.8.9-1.79.7-1.39,1.2-2l.55-1.1.55-1.09-.15-.1c-.7,0-7.64,6.67-8.83,7.67L214,64.14l-.8.4H212l-.5.2c-1.39,0-2.53-2.29-2.93-3.29-.1-1.79.2-2.59,1.25-4.68a9.87,9.87,0,0,1,1.75-3.49c.9-1.79,2.1-3.38,3-5.17a2.37,2.37,0,0,0,0-.6c-2.94,1.49-5.28,3.78-8.08,6-1.79,1.2-3.29,2.79-4.88,3.79-1,1.19-3,2.79-3.6,4-.5,1-.5,2.39-1,3.49-.75,1.49-3.59,3.78-5.19,3.78l-.25-.1c-2,0-4.22-1.69-3.42-3.88v-.8l1.8-3.58c.5-.4.4-.2.45-.7a12,12,0,0,1,4.09-3.79c1.89-2.39,8-9.86,9.08-12,.31-.6-.64-.3-.19-1.19,3.84-3.89,5.49-7.77,13.11-8.47,1.05-.1,1.19,1.6.84,2.49l-.25.1-.79,1.4c-3.65,4.28-7.73,5.67-14.68,15.73l-1.05,1.89c6.44-4.28,15.12-12.25,20.3-14.84a8.58,8.58,0,0,1,2.49-.39c3.34-.5,2.34,3.48,1,6.07l-.35.3c-1.85,3.68-5.2,7.17-7.05,10.86-.35.3-.25.1-.8,1.19a3.37,3.37,0,0,1-.45,1.3l.15.09a161.68,161.68,0,0,0,14.27-12.54,3.11,3.11,0,0,1,.2-.8c.5-1,4.34-2.89,5.38-3.39l1.15-.1c3.34-.3,3.63,3.89,1.48,6.58-.1.59,0,.4-.55,1.09l-.05,1.1a48,48,0,0,0-4.3,7.57c-.5,1-.9,3.18.29,3.18,3,0,18.11-12.64,18.5-12.64l-.2,1.19,0-.1C251.73,51.39,251.38,52.09,251.18,52.49Z"/><path class="cls-1" d="M271.05,53.38c-.35.7-1.2.4-1,1.2-.35.3-5.14,4.88-6.09,5.18-.74.3-2.44,1.69-3.74,2.49A35.28,35.28,0,0,1,254,65.63a10.46,10.46,0,0,1-3.89,1.6c-.54.3-1,.4-1.14.1l-1.35-.1c-1.69-.2-2.18-2.79-3-3.59-.14-.89-.84-1.29-.54-2.29a26.62,26.62,0,0,1,1.45-3.68,2.33,2.33,0,0,1,.5-2,32,32,0,0,1,1.65-2.88c.7-1.2,1.3-2.39,2-3.59,2.45-3.88,3-4.58,5.09-5.78A34.36,34.36,0,0,1,258.72,41c.75-.29,1.94-.1,2.69-.39l1.1.19c1,.1.69,3-.21,4.39a5.82,5.82,0,0,0-1.25,1.89,20.5,20.5,0,0,1-2,3.38,12.13,12.13,0,0,0-1,1.4c-.55.9-1.9,3.58-2.3,4.38-.6,1-1.05,2.49-2.05,4.68a8.29,8.29,0,0,0-.7,2.79,1,1,0,0,0,.55.1c1.59,0,8-4.18,8.42-4.48a96.76,96.76,0,0,0,7.63-6.08c2.65-2.29,2.29-1,2.29-1C271.65,52.79,271.7,52.09,271.05,53.38Zm4-30c-2.14.29-1.84-.3-3.24-.3-1.09.2-2.33-2.69-2.38-2.79.25-.9,1.15-2.89,1.1-3.79,1.6-3.18,5.84-4.28,8.13-4.28a2.75,2.75,0,0,1,1,0c1.85.3,3.13,3.49,2.13,5.48l-.5,1C279.68,20.52,277.33,23,275,23.41Z"/><path class="cls-1" d="M301.7,62.15c-.25.1-5.18,3.38-5.18,3.38-1.5.8-3.3,2.2-5,2.39a11,11,0,0,1-1.74.1c-3.14.1-5.82-5.67-4.86-10.55-2,2-4.14,4.28-5.74,6.07a6.31,6.31,0,0,0-2.1,2.19c-1.24,1.5-1.34,1.9-2.69,2.39a3,3,0,0,0-1.55.7c-2,.2-2.43-.5-3.28-.4-2.29.2-3.43-4.08-2.48-6.37l1.3-3.19A65.62,65.62,0,0,1,273.34,50c3.15-4.68,6-9.46,8.89-14.14,2.8-4.39,5.55-8.87,8-13.25.15-.3,1.49-2,1.59-2.19l.31-1c.55-1.29,3.09-4.58,3.34-5.28.05-.1.15-.3.1-.39a7.15,7.15,0,0,1,5.59-3.59c2.64-.3,3.43,1.89,2.68,3.78a.6.6,0,0,0,0,.6c-.6,1.4-1.05,2.09-1.6,3.39A3.7,3.7,0,0,1,301,19.62c-2.15,2.09-3.29,4-5.39,6.17-.9,1-1.55,2.3-2.35,3.29a34.51,34.51,0,0,0-2.4,3.59c-1,2-2.39,3.19-3.34,5.67-.65,1.7-2.45,3.69-3.2,5.58-.5,1.2-1.2,2-1.6,3a78.75,78.75,0,0,1-3.5,7.17,47.82,47.82,0,0,0-2,4.38c-1.8,4.19-1.9,4.78-1.65,4.68,1.14-.1,9.22-8.26,9.27-8.56a17.9,17.9,0,0,0,.61-2.19,32.64,32.64,0,0,1,2.44-2.29c1.95-1.1,4.09-3.19,6.28-3.39l1.3-.2c2.09-.2,2.09,2,1.53,3.29-.85,2.09-3.24,4.28-4,6.27a6.51,6.51,0,0,0-.25.7c-.4,1-2.26,7.47.68,8a17.15,17.15,0,0,0,6.88-3.19c1-.6,2.64-2.09,3.89-3,.45-.3-.45,1.5-.45,1.5C303.5,60.75,302.45,61.25,301.7,62.15Z"/><path class="cls-1" d="M330.6,53.38c-.35.7-1.2.4-1,1.2-.35.3-5.14,4.88-6.09,5.18-.74.3-2.44,1.69-3.74,2.49a35.28,35.28,0,0,1-6.18,3.38,10.46,10.46,0,0,1-3.89,1.6c-.54.3-1,.4-1.14.1l-1.34-.1c-1.7-.2-2.19-2.79-3-3.59-.14-.89-.84-1.29-.54-2.29a26.62,26.62,0,0,1,1.45-3.68c-.25-.5.06-1.3.5-2a32,32,0,0,1,1.65-2.88c.7-1.2,1.3-2.39,2-3.59,2.45-3.88,3-4.58,5.09-5.78A34.36,34.36,0,0,1,318.27,41c.75-.29,1.94-.1,2.69-.39l1.1.19c1,.1.69,3-.21,4.39a5.82,5.82,0,0,0-1.25,1.89,20.5,20.5,0,0,1-2,3.38,12.13,12.13,0,0,0-1,1.4c-.55.9-1.9,3.58-2.3,4.38-.6,1-1.05,2.49-2.05,4.68a8.29,8.29,0,0,0-.7,2.79,1,1,0,0,0,.55.1c1.59,0,8-4.18,8.42-4.48a96.76,96.76,0,0,0,7.63-6.08c2.65-2.29,2.3-1,2.3-1C331.2,52.79,331.25,52.09,330.6,53.38Zm4-30c-2.14.29-1.84-.3-3.24-.3-1.09.2-2.33-2.69-2.38-2.79.25-.9,1.15-2.89,1.1-3.79,1.6-3.18,5.84-4.28,8.13-4.28a2.75,2.75,0,0,1,1,0c1.85.3,3.13,3.49,2.13,5.48l-.5,1C339.23,20.52,336.88,23,334.59,23.41Z"/><path class="cls-1" d="M356.62,63.64c-1.25,1.5-3.24,1.89-4.74,3.09-1.49.4-3.29,1.39-4.58,1.39a6.14,6.14,0,0,1-3.59-.79c-1.59,0-1.54-.7-2.18-1.8-3-2.39-.8-2.59-2.93-4.88-.3-2.59,1.1-5.37-.09-7a16.13,16.13,0,0,0-1.15,2.69c-1.1,2.19-1.9,5.78-2.95,7.87-.35.7-1.3,1-1.75,1.49h-1.39C326,62.45,333.58,54,333.19,51.79l.55-.7c.1-1.19,2.85-6.47,3.65-8.07,1.2-2,1.3-2.19,4.05-7.26.29-.4-.46,1.09,4.19-8,.55-.3.41-1.2.85-1.5.75-1.49,3.81-8.76,3.86-8.86a15.22,15.22,0,0,0,2.35-5.28,50.67,50.67,0,0,0,2.9-5.58c.35-.3.45-.89.6-1.19,1.59-1.79,1.29-1.4,1.55-2.09.64-1.3,3-3.29,4.43-3.29,4.88,0,4.88,1,6.72,4.08a9.19,9.19,0,0,1-1.21,3.79c-.54,1.09-1.2,2-1.69,3-.86,1.69-2.95,3.28-3.85,4.88,0,.59.1.39-.35.89-.35.1-10.58,13.15-10.68,14.15-2.4,3.38-3.65,5.87-6.4,9.36.25.1-.2.6-.4.79a22.55,22.55,0,0,1-2.39,4.19c0,.69-.25.1-.41,1.19-1.49,1.6-.55,1.7-1.39,2.19-.26,1.1-1.1,2.39-1.06,3.29a28.39,28.39,0,0,0,3.05-4.48c1.15-1.1,3.84-3.29,5.24-3.49l.89-.6c1.4-.39,3.69-1.39,4.89-1.39,2.49,0,5.62,1.29,4,4.48a24.87,24.87,0,0,0-1.4,2.19,8.57,8.57,0,0,0-1.94,2.09c.14.5-4.54,3.09-5.34,4.29A8.17,8.17,0,0,0,350,61.65a10.46,10.46,0,0,0,2.79,1.2l1-.1a8.77,8.77,0,0,1,3-.5c1.35-.3,1.05-.3,1.44-.1l-.2.4A3.42,3.42,0,0,0,356.62,63.64Z"/><path class="cls-1" d="M383.31,61.05c-2.14,1.5-4.09,2.79-6.33,4.29-1.8.79-4.19,1.79-6.08,1.79-5.18,0-6.92-3.09-8.3-6.68-.15-.29,1.1-5.37,1-6.27,0-.4.6-1,.46-1.29C367,48,370.19,45.71,370.75,44c.1-.2.79-.8,1.09-1.19,2-3.19,6.09-5.38,9.48-6.38,1.69-.4.15-.69,2.94-.69.15-.1-.05-.1,1.44-.1s1.39,2.19.94,3.08C386,40,383.7,42.23,383.3,43l-.6,1.2c.1,0,.1.2.3.2.49,0,1,.1,1.64.1,1.29,0,2.49-.6,4.23-.3A29.43,29.43,0,0,1,394,45.81l.79,1.8c.4,0,.2,1.59-.7,3.58A50,50,0,0,1,383.31,61.05Zm-3.86-13.14h-.69A27.37,27.37,0,0,1,375,49.5c-1.4,2.19-2.65,2.49-3.35,3.88a7.11,7.11,0,0,1-.89,1.4c-.46.89-.41,1.59-1.06,2.89-.55,1.09-.35,1.89-.75,2.88-.3,1.6,1.54,3.49,3.23,3.49,3.09,0,10.12-5.28,11.82-7.47a23,23,0,0,0,2.09-2.19l.4-.8C387.81,51.29,381.94,47.91,379.45,47.91Z"/><path class="cls-1" d="M463.34,55.18c-3.74,4.48-9.27,5.77-14,7.27-9.76,3.18-19.09,7.47-28.6,11.55a1.82,1.82,0,0,1-1.64-2.69c.65-1.29,4.74-3.49,6.18-4.18,5.93-.7,29.36-12.45,31.56-16.83,1.65-2.69-12.15-2-20.55-8.87-2.59-1.59-5.62-6.27-9.3-6.27l-.5.2c-2.94-.1-1.93-5.68-.58-8.37.9-1.79,2.29-2.59,3.64-4.08,1.15-.5,2.25-1.5,3.34-1.9,1.3-.59,2.39-.19,3.74-.69,3.19,0,6.52-1.1,9.61-1.1,1.45-.5,1.25-.5,1.25-.3,3.63-.69,23.07-6.87,23.81-5.37l.55-.3a20,20,0,0,0,2.34-.3c4.08,0,6.57,2.39,4.32,6.87-2.15,4.28-7.78,6.17-11.92,8.07h-1c-2.6.79-10.32,2.69-12.51,2.69-.4,0-.65-.1-1-.1,3.88-2.19,8-3.09,11.86-4.78.15-.1.74-.3.84-.5.85-1.7-6.42-2.29-7.81-2.29-.85.3-.45-.3-.85.1-3-.1-13.35,1.59-15.39,3.08a8.12,8.12,0,0,0-2.3,3C435.44,35,450.52,41.23,454.2,43c4.38,2.2,10.6,2.5,12,7.47C465.89,51.89,464.44,53.78,463.34,55.18Z"/><path class="cls-1" d="M504,54.68a10.9,10.9,0,0,1-3.74,3.48l-.6,1a51.06,51.06,0,0,0-4.44,3.69l-1.15.49A14.57,14.57,0,0,1,483.88,68c-3.49,0-2.13-6.27-1.73-8.86h-.1c-1.15.9-2.39,2.39-3.74,2.69-.5.8-.25-.1-.65.7s-2.79,1-4.14,2.88a3.1,3.1,0,0,0-1.94,1.1,13.13,13.13,0,0,1-4,1.39c-2.39,0-5.31-5.27-4.07-7.76A15.79,15.79,0,0,0,465,56.37a5.78,5.78,0,0,1,1.44-1.49c.35-.7.6-1,.9-1.6A48,48,0,0,0,472.31,48c1.1-.6,6.09-4.39,6.54-5.28,2.59-2.19,6.68-3.79,8.32-5.08.05-.1.65-.3.8-.4,1.6-.6,5.53-2.09,6.83-2.09s4.58,1.19,4.42,2.49c.3.59-.55,2.09-1.15,2.89-3.64,2.68-4.93,2.48-8.22,2.48-.49-.39-2.49-.19-3.43.1-5.49,3.79-6.39,6-11.78,12.55A7.46,7.46,0,0,1,472.29,59l-.45.9a4.08,4.08,0,0,1-.6,1.79l-.5,1,.05.49h.3c5.73-2.89,11.12-7.67,15.46-12.35.1-.59-.5-.79-.15-1.49.5-1,5.09-4,5.89-3.78a9.65,9.65,0,0,1,2.69-.8c1,0,2.49,1.39,2,2.39-.75,1.49-2.85,3.09-4.05,4.48a58.83,58.83,0,0,0-6.14,9.86,8.22,8.22,0,0,0-.95,3.29,3.48,3.48,0,0,0,1,.3c3.88,0,15.71-10.26,18.95-14l-.1,1C505.77,52,504.52,54.68,504,54.68Z"/><path class="cls-1" d="M550.07,35.16c-5.23,1.49-21.62,4.58-26,4.58a3.67,3.67,0,0,0-1.7.6,50.87,50.87,0,0,1-3,5L517.92,48c0,.69-2.1,4.18-2,4.38-2.8,5-6.41,17.53,0,17.53,4.28,0,11.51-5.28,15.65-8.37.4,0,.3,0,.15.3l-1.45,1.29c-.64.7-2,2.29-2.74,1.9-.75,1.09-1.6,1.19-1.55,1.69l-.55.5c-.89,0-1.14.69-2,1,.35-.89-1.25,1.1-1.59,1.4-.1,0-1.7.4-1.75.7a4.47,4.47,0,0,0-1.89,1c-1.1-.2-3,1.69-3.94.9a11.4,11.4,0,0,0-1.79.2c-7.07-.2-8.35-9.37-5.4-14.64a13.77,13.77,0,0,1,.95-2.89,1.41,1.41,0,0,0,.6-1.2c.45-.89,3-5.77,2.95-6.07a25.66,25.66,0,0,0,1.65-3.09A19,19,0,0,0,515,41h-.9c-.1.4-1,.1-1.24.1-1.94-.3-4.74,2.89-7.53,2.89-1.79,0-2.88-1.39-1.93-3.28,1.25-2.5,5.19-4.59,7.57-4.59a4.41,4.41,0,0,1,2.64.7c.3-.2.1-.2,1.15.3l2.34-.3a16.85,16.85,0,0,1,1.55-2.29,6,6,0,0,1,1-1.89c.15-1.3,1.45-2.69,1.7-4,1.35-2.09,1-1.39,1.55-3.28.35-.3.25-.1.6-1.2a7.58,7.58,0,0,0,1.4-2.39c.45-.7,3.09-3.78,2.94-3.88.8-1.4.65-1.1.9-1.4a17.22,17.22,0,0,1,2.35-2.69l1.34-.49c.4-.8,1.8-1.4,2.5-2a8.72,8.72,0,0,1,6.78-2.78c1.69,0,3.43.49,2.33,2.68-.15.3-1.85,3.49-2,3.59l-.25.7c-1.6,1.79-3.59,3.38-4.69,5.37l-.75.7c-1.15,2.09-2.79,3-3.84,5.08-.7.6-.4.2-1.25,1.69a27.2,27.2,0,0,0-6,7.67c-.4.4-.4.2,0,.6,7.42-.5,12.45-1,19.57-1.69,0,0,6.33-.9,6.18-.8C550.67,34.76,550.72,34.86,550.07,35.16Z"/><path class="cls-1" d="M551,61.05c-2.14,1.5-4.09,2.79-6.33,4.29-1.8.79-4.19,1.79-6.08,1.79-5.18,0-6.92-3.09-8.3-6.68-.15-.29,1.1-5.37,1.05-6.27,0-.4.6-1,.45-1.29,2.85-4.88,6.09-7.18,6.64-8.87.11-.2.8-.8,1.1-1.19,2-3.19,6.09-5.38,9.48-6.38,1.69-.4.15-.69,2.94-.69.15-.1-.05-.1,1.44-.1s1.39,2.19.94,3.08C553.69,40,551.4,42.23,551,43l-.6,1.2c.09,0,.09.2.29.2.5,0,1,.1,1.65.1,1.29,0,2.49-.6,4.23-.3a29.43,29.43,0,0,1,5.08,1.59l.79,1.8c.4,0,.2,1.59-.7,3.58A50,50,0,0,1,551,61.05Zm-3.86-13.14h-.7a26.78,26.78,0,0,1-3.78,1.59c-1.4,2.19-2.65,2.49-3.35,3.88a6.83,6.83,0,0,1-.9,1.4c-.45.89-.4,1.59-1,2.89-.55,1.09-.35,1.89-.75,2.88-.3,1.6,1.54,3.49,3.23,3.49,3.09,0,10.12-5.28,11.82-7.47a23,23,0,0,0,2.09-2.19l.4-.8C555.51,51.29,549.64,47.91,547.15,47.91Z"/></g></g></svg>