<svg xmlns="http://www.w3.org/2000/svg" viewBox="0 0 79.9 67.7"><defs><style>.cls-1{fill:#232222;}</style></defs><title>title12</title><g id="レイヤー_2" data-name="レイヤー 2"><g id="レイヤー_2-2" data-name="レイヤー 2"><path class="cls-1" d="M19.3,67.7H9.6v-51H0V10.6C5.4,8.3,11.2,4.1,13.6,1h5.7Z"/><path class="cls-1" d="M78.6,67.7H46.1v-9C67.3,30.9,69.9,26.5,69.9,17.6c0-5.5-2.2-8.4-6.4-8.4a6.54,6.54,0,0,0-6.1,3.9c-.7,1.5-.9,3.1-.9,7.3H46.8c0-7.3.7-10.5,2.8-13.5C52.5,2.5,57.7,0,63.7,0,73.8,0,79.9,6.6,79.9,17.7A29.7,29.7,0,0,1,75.7,33c-3.2,5.4-3.2,5.4-14.9,21.1-1.1,1.6-2.3,3.1-3.4,4.6H78.6Z"/></g></g></svg>