<svg xmlns="http://www.w3.org/2000/svg" viewBox="0 0 84.6 68.7"><defs><style>.cls-1{fill:#232222;}</style></defs><title>title08</title><g id="レイヤー_2" data-name="レイヤー 2"><g id="レイヤー_2-2" data-name="レイヤー 2"><path class="cls-1" d="M33.5,46.5c0,7.6-1,12-3.5,15.8-2.8,4.1-7.5,6.4-13.2,6.4S6.3,66.4,3.5,62.3C1,58.5,0,54,0,46.5V22.2c0-7.5,1-12,3.5-15.8C6.3,2.3,11,0,16.8,0S27.2,2.3,30,6.4c2.5,3.8,3.5,8.2,3.5,15.8ZM9.7,48.6c0,4.6.2,5.9,1.2,7.8a6.34,6.34,0,0,0,5.9,3.1,6.29,6.29,0,0,0,5.8-3.1c1-1.9,1.2-3.1,1.2-7.8V20.1c0-4.7-.2-5.9-1.2-7.8a6.29,6.29,0,0,0-5.8-3.1,6.34,6.34,0,0,0-5.9,3.1c-1,1.9-1.2,3.1-1.2,7.8Z"/><path class="cls-1" d="M84.6,48.7c0,7-1.3,11.5-4.4,15-2.9,3.2-7.2,5-12.5,5s-9.6-1.8-12.5-5c-3.1-3.6-4.4-8-4.4-15,0-9.2,2.2-13.7,8.1-16.1-5.4-2.7-7.3-6.4-7.3-14.7C51.6,6.3,57.3,0,67.7,0S83.8,6.3,83.8,17.9c0,8.3-1.9,12-7.3,14.7C82.4,35,84.6,39.5,84.6,48.7Zm-23.8-.2c0,7.4,2.2,11,6.9,11s6.9-3.6,6.9-10.8c0-7.7-2.2-11.2-6.9-11.2S60.8,41.1,60.8,48.5Zm.5-29.9c0,6.2,2.2,9.4,6.4,9.4s6.4-3.2,6.4-9.3c0-6.4-2.1-9.5-6.4-9.5S61.3,12.4,61.3,18.6Z"/></g></g></svg>