<svg xmlns="http://www.w3.org/2000/svg" viewBox="0 0 529.69 68.7"><defs><style>.cls-1{fill:#232222;}</style></defs><title>title_3d</title><g id="レイヤー_2" data-name="レイヤー 2"><g id="レイヤー_2-2" data-name="レイヤー 2"><path class="cls-1" d="M14.3,28c4.1-.1,5.4-.6,6.8-2.1S23,22,23,18.6c0-6.3-2-9.4-6.1-9.4-3.9,0-6.2,2.9-6.3,7.8v1H.9V16.8C.9,6.8,7.5,0,17.2,0c9.9,0,15.5,6.7,15.5,18.4,0,8.1-2.1,11.8-8,14,6.8,2,9.1,6,9.1,15.8,0,6.8-1.4,11.5-4.5,15.1s-7.4,5.4-12.6,5.4C6.7,68.7,0,61.6,0,51.1V48.7H10v1.4c0,6,2.5,9.4,6.8,9.4,4.6,0,7-3.8,7-11.3,0-7.9-2.4-10.7-9.5-10.9Z"/><path class="cls-1" d="M52.7,1H69C82.1,1,88.3,7.7,88.3,21.9V46.8C88.3,61,82.1,67.7,69,67.7H52.7ZM68.1,58.2c7.3,0,9.9-3.8,9.9-14.2V24.7c0-10.5-2.6-14.2-9.9-14.2H63V58.2Z"/><path class="cls-1" d="M181.5,67.7h-9.8V18.6L160.1,67.7h-5.8L142.8,18.6V67.7H133V1h15.1l9.2,41.9L166.6,1h14.9Z"/><path class="cls-1" d="M237.4,46.5c0,7.5-1.1,12-3.8,15.8-3,4.2-8,6.4-14.4,6.4s-11.4-2.2-14.4-6.4c-2.7-3.8-3.8-8.3-3.8-15.8V22.2c0-7.5,1.1-12,3.8-15.8,3-4.2,8-6.4,14.4-6.4s11.4,2.2,14.4,6.4c2.7,3.8,3.8,8.3,3.8,15.8Zm-26.1-.2c0,5.3.3,7.1,1.3,9.1a7.85,7.85,0,0,0,13.2,0c1.1-2.1,1.3-3.7,1.3-9.1V22.4c0-5.4-.2-7-1.3-9.1a7.85,7.85,0,0,0-13.2,0c-1,2-1.3,3.8-1.3,9.1Z"/><path class="cls-1" d="M256.9,1h16.3c13.1,0,19.3,6.7,19.3,20.9V46.8c0,14.2-6.2,20.9-19.3,20.9H256.9Zm15.4,57.2c7.3,0,9.9-3.8,9.9-14.2V24.7c0-10.5-2.6-14.2-9.9-14.2h-5.1V58.2Z"/><path class="cls-1" d="M342.1,10.5H322.2V28.1h14.7v9.5H322.2V58.2h19.9v9.5H311.9V1h30.2Z"/><path class="cls-1" d="M369.5,58.2H390v9.5H359.2V1h10.3Z"/><path class="cls-1" d="M416.7,67.7H406.39V1H416.7Z"/><path class="cls-1" d="M473.89,67.7h-9.2l-18-44.4V67.7h-9.8V1h10.4l16.8,41.5V1h9.8Z"/><path class="cls-1" d="M529.69,34.6V67.7h-5.3l-1.9-5.7c-3.4,4.8-7.1,6.7-12.5,6.7-6.1,0-11.2-2.9-13.8-7.8-2.2-4.3-2.9-8.6-2.9-17.8V24.7c0-10.6.8-14.4,3.9-18.5,2.9-4,8-6.2,14.1-6.2,7.3,0,12.7,3.1,15.7,8.9,1.7,3.3,2.4,7.4,2.4,13.8h-10.3c0-9.2-2.3-13-7.9-13a6.52,6.52,0,0,0-6.1,3.4c-1.2,2.2-1.5,4.2-1.5,9.6V43.1c0,5.5.3,8.4,1.1,10.9a7.2,7.2,0,0,0,7,5c5.4,0,7.7-3.9,7.7-13.2V43.1h-8.5V34.6Z"/></g></g></svg>