<svg xmlns="http://www.w3.org/2000/svg" viewBox="0 0 271.28 45.28"><defs><style>.cls-1{fill:#fff;}</style></defs><title>アセット 29</title><g id="レイヤー_2" data-name="レイヤー 2"><g id="レイヤー_2-2" data-name="レイヤー 2"><path class="cls-1" d="M5.23,16.32a.55.55,0,0,1,.4.24C5.23,14.7,7.85,14,8.28,14.78c2.22,4,5.27,6.29,10.38,6.57,1-5.7,2.26-11,3.65-13.82.39-.8.08-.91.39-1.67C24.17,2.38,25.16.59,26.43.59s2.21,2.06,2.17,5a27,27,0,0,1-2.13,10c-1,2.06-2.18,1.9-2.9,1.74,3.05-4.87,4-10.66,3.53-13.75-2.69,1.15-4.16,6.07-5.51,10.86C21,16.4,20.48,18.82,20,21.39A41.45,41.45,0,0,0,32.72,19c.48,0,.88.68-.08,1.11a36,36,0,0,1-12.87,2.66c-1.74,9.78-3,21.51-3.64,21.78-.95.16-1.19.72-1.83.72-2.81,0-5.34-5.67-6.17-8.08a.54.54,0,0,1,.71.19,15,15,0,0,0,3.72,5.19c1.23.91,2.18,1,2.81-.87.08-.24-.11,0-.07-.24.79-3.92,1.82-11.48,3.08-18.69a25.76,25.76,0,0,1-5.18-.68,2.56,2.56,0,0,1,0,.87c-.28,1.23-4.88,5.91-6.9,7.49a4.49,4.49,0,0,1-4,.95C-.35,30.62-.15,27.69.2,26c.4-2.1,2.46-4.8,2.46-8.68C2.66,16.52,4.52,16.32,5.23,16.32ZM6,17.51a3.57,3.57,0,0,1,0,1.66C5.55,20.24.92,25.83,2.38,29.55c.52,1.31,2.22.16,3.53-.87.75-.64,3.64-3.17,4.71-5.43a2.56,2.56,0,0,0,0-2.1,10.74,10.74,0,0,1-4.08-3A5.64,5.64,0,0,1,6,17.51Z"/><path class="cls-1" d="M48.45,20.2c1.55-4.47,3.13-9,4-11.76-4,.75-7.48,1.78-8.67,2-1.47.28-2.5-.56-2.5-.95a1.16,1.16,0,0,1,.8-1C46.43,7.84,55.31,5.67,59,5.67c.36,0,.24.27.59.23s.32-.28.76-.28a22.45,22.45,0,0,1,5.94.68,1.77,1.77,0,0,1,.91,1.35c0,.35-.28,1.18-.67,1.18s0-.35-.84-.59c-3.12-1-7.32-.75-11.25-.12-1.18,3.45-2.57,7.84-3.84,12A30,30,0,0,0,61,17.39a.24.24,0,0,1,0-.16c1.66-.91,2.73,1.59,2.54,2.18a8.91,8.91,0,0,1-1.79,2.5c-.91,1.18-2,5-2.14,6.93,0,.71.32.75,1.31.35,1.94-.75,6.06-4.43,7.41-7.4-.08-.4.16-1,.59-1.11a4.29,4.29,0,0,1,1.35.12,2.48,2.48,0,0,1,.63,2c0,.16-.43.23-.63.39-.24,1.23-.95,6.34,0,6.78,1.54.71,9.82-5.75,11.88-8.32.4.08.4.55,0,1-3.68,4.47-10.34,9.11-12,9-.28-.2-.48,0-.71-.2-2.42-1.38-2-4.79-1.47-6.69.08-.28,0-.36-.2-.08-1.94,2.53-5.15,6.06-6.61,6.77-.91.44-1.27.48-1.55.28s-.63.51-1.34.28-1.43-1.11-1-2.78c0-1.78,1.82-6.53,3-9.94C57.84,20.6,53.64,21.43,50,21.87c-1.07,3.6-2,6.81-2.46,8.75-.16.71.28.79.24,1.27s-.71.79-1.55.79a1.16,1.16,0,0,1-1.18-1.55c.47-2.05,1.58-5.42,2.77-9.07-2,.08-4-.11-4.44.24-.51,0-1.07-1.38-1-1.78a.86.86,0,0,1,1.07-.83A25.47,25.47,0,0,0,48.45,20.2Z"/><path class="cls-1" d="M86.29,16.4a11.21,11.21,0,0,1-.72,2c-1.42,1-3.21,5.66-4.44,8.44-.35.79,0,.87.24.39.32-.63,5.27-7.8,7-9.74.12-.16.12-.32.44-.36.48-.08,2.69.2,2.57,3.53,0,.39-.15.24-.15.67s-.16,3.57-.16,4.44c0,.55.2.43.39.16,1.59-2.22,3.53-5.23,5.35-6.9.68-.59.79-.39,1.31-.47,1-.12,1.62,1.54,1.58,1.9s-.23.4,0,.75a1.16,1.16,0,0,1,.24,1.07,51,51,0,0,0-.51,6.86c.08.91.43,1,1.11.63a18.7,18.7,0,0,0,3.24-2.5c.4.16.48.64-.19,1.39-1,1.15-2.86,3.13-4.24,3.13-.76,0-1.94-.44-1.79-2.26,0-.16.16,0,.2-.16-.31-2.26.87-8.51,0-9.11-4.39,4.68-4.83,8.4-5.82,9-.36.2-.63-.35-1.62.4-.72-.28-1.63-.63-1-2.38-.32-1.74.51-6.22-.16-8-1.47.48-5.83,6.18-7.93,11.93,0,.47-.43.87-1,.43-.79.52-2.57-.24-1.46-1.58.4-3.09,4-10.86,5.19-15.17C84.38,14.66,86.29,15.25,86.29,16.4Z"/><path class="cls-1" d="M109.74,16.48c.23.28-.12.59.11.75a2.5,2.5,0,0,1,1,1.82c.28.76-2.41,6.1-3.24,9.23-.4,1.47-.44,2.34.67,2.06,4.36-1.7,12.24-10.42,15.85-15.45.51-.15.95.72.39,1.51-4,5.74-13.35,15.25-16.56,15.61a1.73,1.73,0,0,1-2.53-1.87c-.64-2.33,3.72-11.32,2.69-13.42A1.27,1.27,0,0,1,109.74,16.48Zm1.18-8.83c0-.76,2.3-1,2.7-1.07.28.27.55.55.55.83s-.24,2-.75,2.06C112.31,9.67,110.88,8.71,110.92,7.65Z"/><path class="cls-1" d="M125.86,7.05c.36,0,1.82.79,1.78,1.39-.12,1.38-1.34,3.68-1.86,5.39-.2.63-.44.39-.87.35a90.21,90.21,0,0,0-3.49,13c-.12.6.4.84.64.52,2.93-3.72,8.51-9.59,9-9.59a2.9,2.9,0,0,1,1.62.68c.44.55.16,1.66.6,2.25.35,1-1.59,7.09-1,8.6,2.93-1.66,7.4-6,10.1-9,.51-.16,1.15.63.43,1.27-3.25,3-8.71,10.1-11.56,10.18-.44,0-1.19-1-.88-2.38-.83-1.39,1.23-7.53.52-9-2,.51-5.27,4.67-7.21,7.29a4.2,4.2,0,0,1-1.39,2.77,1.33,1.33,0,0,1-1,.39c-.27,0-.79.8-1.11.8s-.67-.4-.83-.87a2.46,2.46,0,0,1,.08-1c1.23-10.5,5.19-17.39,5.35-22.54A1.31,1.31,0,0,1,125.86,7.05Z"/><path class="cls-1" d="M143.84,16.48c.24.28-.11.59.12.75a2.54,2.54,0,0,1,1,1.82c.28.76-2.41,6.1-3.24,9.23-.4,1.47-.44,2.34.67,2.06,4.36-1.7,12.24-10.42,15.84-15.45.52-.15.95.72.4,1.51-4,5.74-13.35,15.25-16.56,15.61a1.73,1.73,0,0,1-2.53-1.87c-.64-2.33,3.72-11.32,2.69-13.42A1.25,1.25,0,0,1,143.84,16.48ZM145,7.65c0-.76,2.3-1,2.7-1.07.27.27.55.55.55.83s-.24,2-.75,2.06C146.42,9.67,145,8.71,145,7.65Z"/><path class="cls-1" d="M165.55,7.25a31.57,31.57,0,0,1-5.82,7.17c-1.86,2.85-4,9.39-4.4,11.25s-.16,3,.4,3c3-2.58,6.3-8.36,13-12.64a2.62,2.62,0,0,1,2.14,1.39,1.34,1.34,0,0,1-.59,1.5c-2.14,3.21-6.18,5.83-6.18,7.33,0,.68,1.86,4.2,5,4,3.44-.55,7-4.39,7.25-4.91.31-1.35,1.38-.28.71.71-1.62,2.42-5.43,5.39-8.4,5.71s-7.25-3.29-7.92-6.85c-1.59,2-2.61,3.8-4,5.46a2.38,2.38,0,0,1-3.17.16c0-.71-.24-.71-.28-1.07-.27-5.11,4.84-16.36,10.22-25.19C165.35,3.84,166.31,5.82,165.55,7.25Zm-3.72,16.36c.36.16.59.59,1.19.2a22.52,22.52,0,0,0,3.8-4.08c.28-.48.08-.8-.51-.32A39.57,39.57,0,0,0,161.83,23.61Z"/><path class="cls-1" d="M181.56,16.32c.31,0,.59.44.75,1a12.84,12.84,0,0,1,5.31,2.18c1.22.87,2.22,2.26,1.94,3.44s-4.87,5.91-6.89,7.49a4.51,4.51,0,0,1-4,.95c-2.73-.79-2.53-3.72-2.17-5.42.39-2.1,2.45-4.8,2.45-8.68C179,16.52,180.84,16.32,181.56,16.32Zm.47,3.37c-1.11,1.78-4.63,6.57-3.33,9.86.52,1.31,2.22.16,3.53-.87.75-.64,3.64-3.17,4.71-5.43a2.46,2.46,0,0,0-1.54-3.4A9.18,9.18,0,0,1,182,19.69Z"/><path class="cls-1" d="M225.05,6.14c0,1.86-1.62,4.79-2.26,4.79-1.22,0-2.21-.59-2.25-.95-.08-.55.87-.87,1-1.15a9.92,9.92,0,0,0,1.26-4,4.19,4.19,0,0,0-1.46-2.89c-.44-.28-.64,0-.83-.08s0-.47-.32-.47c-5.86,0-11.8,7.68-11.8,11,0,4.36,2.93,6.73,6.06,8.87L217.09,23c5.43-2.93,11.49-5.46,14.89-5.46.56,0,.92.24.92.87s-.28,1.07-.72,1.15-4.51.08-5.42.2c-1.39.19-5,1.9-8.6,4a4.82,4.82,0,0,1,2.22,4c0,1.78-5,4.67-5.35,4.75s-.28-.24-.44-.12,0,0-.35.32a8.7,8.7,0,0,1-3.69,1.19c-1.22,0-4.39-1.43-4.39-2.5,0-1.42,4.2-4.59,9.39-7.56-3.49-2.46-8.76-5.67-8.76-11.06,0-.19.12-.11.12-.31s0,.16,0-.36C206.59,6.26,215.35,0,219,0A6.38,6.38,0,0,1,225.05,6.14Zm-8.36,18.54c-4.23,2.61-8.12,5.54-8.12,6.81,0,.83.91,1.11,1.75,1.11,1.66,0,8.28-3.17,8.28-5.58C218.6,26.3,217.84,25.51,216.69,24.68Z"/><path class="cls-1" d="M237.13,19.05c.48-.79,1-1.54,1.39-2.33.71-.52,2.14.31,2.42.59a1.15,1.15,0,0,1,0,1.23c-.36.71-1.07,2-1.51,2.14A17.92,17.92,0,0,0,238,25.27c-.52,3.13.43,3.85,2.37,2.42,4.76-3.53,9.47-9.63,11.53-12.87,1,0,1.19.67.51,1.62-2.89,4-10.1,12.6-13.15,13.94-1.34.6-4,.68-3.76-3.25a25.15,25.15,0,0,1,1.15-4.83c.08-.28-.08-.35-.2-.12A72.78,72.78,0,0,1,231,29.51c-1.94,2.14-5.07,1.31-4.71-2.38.6-6.1,4.36-9.82,6.58-9.82a7.6,7.6,0,0,1,3.28.75C236.7,18.38,237.06,18.7,237.13,19.05Zm-.71,1.15h-.24c-.63,0-1.22-1.15-3-1.15a2.7,2.7,0,0,0-1.66.8,12,12,0,0,0-3,7.2c-.2,2.07.28,2.18,1.11,1.55C231.19,27.41,234,23.93,236.42,20.2Z"/><path class="cls-1" d="M258.17,4.2a56.9,56.9,0,0,1-2.22,6c-.28.52-.91.28-1.11.79L252,19c.83,0,1.66-.07,2.46-.07,1.07,0,2.61,0,4.2.19.47-1,3.16-2.33,5.07-1.94,2.69-.43,7.6,2.18,7.6,3.92,0,4-5,8.4-7,9.91-.4.31-.36.79-.83.79a2.35,2.35,0,0,1-2.18-2.46c0-.63.4-1.23.36-1.58a19.15,19.15,0,0,1,.55-5.07,1.38,1.38,0,0,0-.75-1.35,28,28,0,0,0-10-.79c-1.19,3.37-2.34,6.85-3.13,9.9-.12.44,0,1.15,0,1.39-.2.47-.32,1.23-.72,1.19s-1,.08-1-.44a6.48,6.48,0,0,1,.28-1.23c.71-3,1.86-6.85,3-10.65-3.45.43-6.18,1.34-6.69,2.49-.2.44,0,1.19-.48,1.19s-2.53-1.07-2.53-2.26c0-1.34,5.26-2.53,10.18-3,1.38-4.35,2.81-8.59,3.76-11.52A33.44,33.44,0,0,0,255,3a1.56,1.56,0,0,1,1.35-.75C256.82,2.3,258.21,3.6,258.17,4.2Zm3.52,15.29c1.59.32,2.7.75,2.62,1.35-.55,3.28-.83,5.15-.59,6.53.11.67.15,1.43.75,1,2-1.31,4.91-4.67,4.91-6.53S266.57,18.7,264,18.7A10.72,10.72,0,0,0,261.69,19.49Z"/></g></g></svg>