<svg xmlns="http://www.w3.org/2000/svg" viewBox="0 0 262.81 33.77"><defs><style>.cls-1{fill:#fff;}</style></defs><title>title_name2_2</title><g id="レイヤー_2" data-name="レイヤー 2"><g id="レイヤー_2-2" data-name="レイヤー 2"><path class="cls-1" d="M9.75,13.85a7.07,7.07,0,0,1,1.58.19,4.75,4.75,0,0,1,1.55.66,3.79,3.79,0,0,1,1.19,1.23,3.49,3.49,0,0,1,.48,1.89,6.92,6.92,0,0,1-.16,1.32,10.43,10.43,0,0,1-.46,1.56,1.16,1.16,0,0,0,.44.33,1.61,1.61,0,0,0,.54.09,2.22,2.22,0,0,0,.9-.23,6.14,6.14,0,0,0,1-.6,10.79,10.79,0,0,0,1-.83q.52-.47,1-.93c.31-.31.59-.6.84-.88l.63-.71a.44.44,0,0,1,.33-.13.59.59,0,0,1,.48.28,1.29,1.29,0,0,1,.21.78,2.81,2.81,0,0,1-.3,1.16,4.36,4.36,0,0,1-1.11,1.38l-1.06,1.16a15,15,0,0,1-1.28,1.24,8.71,8.71,0,0,1-1.41,1,3,3,0,0,1-1.47.41,3,3,0,0,1-1-.16,3.49,3.49,0,0,1-1-.5,12.24,12.24,0,0,1-1.59,2,9.2,9.2,0,0,1-2,1.53,10.09,10.09,0,0,1-2.36,1,9.89,9.89,0,0,1-2.7.36,4.64,4.64,0,0,1-1.26-.22,4.11,4.11,0,0,1-2.45-2A3.85,3.85,0,0,1,0,24.26,8.24,8.24,0,0,1,.25,22.4,11.83,11.83,0,0,1,1,20.17a14.26,14.26,0,0,1,1.29-2.29,10.26,10.26,0,0,1,1.87-2A9.18,9.18,0,0,1,6.65,14.4,8.31,8.31,0,0,1,9.75,13.85Zm-1,3.4A3.69,3.69,0,0,0,7,17.71a5.19,5.19,0,0,0-1.49,1.2,6.12,6.12,0,0,0-1,1.68,5,5,0,0,0-.39,1.93,5.93,5.93,0,0,0,.06.8,2.72,2.72,0,0,0,.24.81,1.69,1.69,0,0,0,.53.63,1.57,1.57,0,0,0,.93.25,3.55,3.55,0,0,0,1.73-.47,5.71,5.71,0,0,0,1.5-1.24,6.21,6.21,0,0,0,1-1.73,5.42,5.42,0,0,0,.38-2,7.51,7.51,0,0,0,0-.8,2.12,2.12,0,0,0-.24-.76,1.45,1.45,0,0,0-.53-.57A1.73,1.73,0,0,0,8.74,17.25Z"/><path class="cls-1" d="M31.08,16.93l-1.9.05-1.75,0H24.06c-.33.66-.71,1.42-1.13,2.29l-1.31,2.74-1.38,2.89c-.45,1-.89,1.9-1.3,2.77s-.79,1.66-1.12,2.36-.61,1.26-.82,1.67a3.67,3.67,0,0,1-.52.82,3.47,3.47,0,0,1-.68.65,3.11,3.11,0,0,1-.75.42,2.23,2.23,0,0,1-.72.14,1.48,1.48,0,0,1-.83-.23.81.81,0,0,1-.37-.73,1.77,1.77,0,0,1,.12-.59c.08-.23.19-.49.33-.79L20.41,17h-1a2.32,2.32,0,0,1-1.45-.33,1,1,0,0,1-.39-.77A1.25,1.25,0,0,1,18,15a2,2,0,0,1,1.41-.43h2.28A28.16,28.16,0,0,1,24.48,10,15.55,15.55,0,0,1,27.2,7.12a8.33,8.33,0,0,1,2.6-1.45,7.94,7.94,0,0,1,2.43-.41,2.48,2.48,0,0,1,1.9.85,3.21,3.21,0,0,1,.61,1.08A4.32,4.32,0,0,1,35,8.7a7.9,7.9,0,0,1-.23,1.84,1.05,1.05,0,0,1-.23.46,1.85,1.85,0,0,1-.39.3,1.81,1.81,0,0,1-.42.16,2,2,0,0,1-.37,0,1.48,1.48,0,0,1-.72-.18.63.63,0,0,1-.33-.58,3.33,3.33,0,0,1,0-.46,3,3,0,0,0,0-.42A1.81,1.81,0,0,0,32,8.7a1,1,0,0,0-.8-.34,2.64,2.64,0,0,0-1.4.52,9.08,9.08,0,0,0-1.63,1.39,15.37,15.37,0,0,0-1.57,2,12.42,12.42,0,0,0-1.24,2.28h4.5c.4,0,.78,0,1.13,0a4.83,4.83,0,0,1,.92.11,1.27,1.27,0,0,1,.61.32.89.89,0,0,1,.23.65,1.25,1.25,0,0,1-.08.42,1,1,0,0,1-.26.4,1.39,1.39,0,0,1-.51.31A3.43,3.43,0,0,1,31.08,16.93Z"/><path class="cls-1" d="M45.13,17.14a.89.89,0,0,1,.82.45,2.11,2.11,0,0,1,.26,1,1.85,1.85,0,0,1-.06.5,1,1,0,0,1-.23.4,2.21,2.21,0,0,1-.46.35c-.2.1-.45.22-.76.35A5.11,5.11,0,0,0,43,21.34a1.94,1.94,0,0,0-.62,1.29,1.32,1.32,0,0,0,.27.78,2.26,2.26,0,0,0,.85.64,5.83,5.83,0,0,0,1.5.45,12.79,12.79,0,0,0,2.22.16,9.48,9.48,0,0,0,2.53-.32,7.16,7.16,0,0,0,2.1-.9,4.81,4.81,0,0,0,1.43-1.37,3.06,3.06,0,0,0,.53-1.72,2.37,2.37,0,0,0-.58-1.45,7.41,7.41,0,0,0-1.84-1.57c-1.48-1-2.6-1.75-3.37-2.34s-1.24-1-1.42-1.12a10.93,10.93,0,0,1-2.17-2.46A4.61,4.61,0,0,1,43.71,9a5.07,5.07,0,0,1,.58-2.31,8.6,8.6,0,0,1,1.53-2.1,13.7,13.7,0,0,1,2.24-1.83,17,17,0,0,1,2.65-1.44A16.55,16.55,0,0,1,53.49.34,11.15,11.15,0,0,1,56.15,0,6.88,6.88,0,0,1,57.9.21a4.19,4.19,0,0,1,1.41.67,3,3,0,0,1,.93,1.17,3.94,3.94,0,0,1,.34,1.72,5.15,5.15,0,0,1-.83,2.77A8.64,8.64,0,0,1,57.22,9a2.59,2.59,0,0,1-1.4.52,1.26,1.26,0,0,1-1-.48,1.67,1.67,0,0,1-.39-1.11,2.14,2.14,0,0,1,.32-1.08,2.58,2.58,0,0,1,1-.93,3.52,3.52,0,0,0,1-.78,1.49,1.49,0,0,0,.44-1,.56.56,0,0,0-.3-.58,1.76,1.76,0,0,0-.73-.14,8.33,8.33,0,0,0-1.77.21,12.48,12.48,0,0,0-1.91.55,14.06,14.06,0,0,0-1.86.83,10.17,10.17,0,0,0-1.59,1,5.78,5.78,0,0,0-1.1,1.19,2.24,2.24,0,0,0-.41,1.25,1.75,1.75,0,0,0,.17.79,3.28,3.28,0,0,0,.51.74,8.94,8.94,0,0,0,.82.76c.33.27.7.55,1.13.86L54.66,15c.58.43,1.1.84,1.56,1.25a8.08,8.08,0,0,1,1.15,1.22,5.34,5.34,0,0,1,.72,1.22A3.68,3.68,0,0,1,58.34,20a6.36,6.36,0,0,1-.8,3,8.72,8.72,0,0,1-2.29,2.64,11.88,11.88,0,0,1-3.56,1.87,14,14,0,0,1-4.61.72,18.37,18.37,0,0,1-4-.38,9.1,9.1,0,0,1-2.72-1,4.37,4.37,0,0,1-1.55-1.49,3.51,3.51,0,0,1-.48-1.77,4.41,4.41,0,0,1,.49-2,7.08,7.08,0,0,1,1.39-1.88,10.07,10.07,0,0,1,2.16-1.59A11.06,11.06,0,0,1,45.13,17.14Z"/><path class="cls-1" d="M81,22.34l-.93.91c-.39.39-.83.81-1.33,1.26s-1,.9-1.58,1.36a17.83,17.83,0,0,1-1.72,1.25A12.71,12.71,0,0,1,73.7,28a4.17,4.17,0,0,1-1.61.36,2.24,2.24,0,0,1-1.16-.29,2.64,2.64,0,0,1-.8-.76,3.36,3.36,0,0,1-.48-1.05,5,5,0,0,1-.15-1.21,5.29,5.29,0,0,1,.06-.8,3.43,3.43,0,0,1,.19-.75c-.4.54-.85,1.1-1.36,1.67a12.85,12.85,0,0,1-1.65,1.57,9,9,0,0,1-1.84,1.16A4.49,4.49,0,0,1,63,28.4a4,4,0,0,1-1.17-.21,4.06,4.06,0,0,1-1.27-.66,3.82,3.82,0,0,1-1-1.2,3.68,3.68,0,0,1-.41-1.8,9.18,9.18,0,0,1,.24-1.9,13.48,13.48,0,0,1,.74-2.29A14.13,14.13,0,0,1,61.35,18a10.2,10.2,0,0,1,1.8-2.08,8.94,8.94,0,0,1,2.38-1.49,7.54,7.54,0,0,1,3-.57,4.74,4.74,0,0,1,1.49.21,6.21,6.21,0,0,1,1.08.47,4.82,4.82,0,0,1,.89.67l.68-.32a5.56,5.56,0,0,1,.61-.25,1.79,1.79,0,0,1,.55-.1,1.76,1.76,0,0,1,1.2.4,1.19,1.19,0,0,1,.47.89,1.27,1.27,0,0,1,0,.22c-.07.24-.17.55-.3.92l-.46,1.25c-.17.46-.34.94-.51,1.43s-.33,1-.48,1.46-.25.93-.34,1.35a5.24,5.24,0,0,0-.14,1.07,2.21,2.21,0,0,0,.19,1,.69.69,0,0,0,.66.38,1.76,1.76,0,0,0,.69-.19,6.09,6.09,0,0,0,.86-.49c.31-.21.63-.44,1-.71s.65-.53,1-.8c.73-.64,1.49-1.38,2.31-2.21a1,1,0,0,1,.6-.25.77.77,0,0,1,.64.38,1.4,1.4,0,0,1,.27.84A1.25,1.25,0,0,1,81,22.34Zm-13.41-5a3.66,3.66,0,0,0-1.76.47A5.44,5.44,0,0,0,64.31,19a6.41,6.41,0,0,0-1,1.7,4.84,4.84,0,0,0-.39,1.88,7.65,7.65,0,0,0,0,.81,2.39,2.39,0,0,0,.22.76,1.63,1.63,0,0,0,.5.58,1.46,1.46,0,0,0,.86.23,1.82,1.82,0,0,0,1-.38,8,8,0,0,0,1.18-1,14.93,14.93,0,0,0,1.19-1.3q.59-.71,1-1.38a12.35,12.35,0,0,0,.75-1.22A1.91,1.91,0,0,0,70,19a1,1,0,0,0-.25-.67,2.23,2.23,0,0,0-.62-.51,2.67,2.67,0,0,0-.78-.32A3.08,3.08,0,0,0,67.58,17.35Z"/><path class="cls-1" d="M84.74,17.16c-.48.93-.93,1.83-1.35,2.72l-1.2,2.44a9.47,9.47,0,0,0-.46,1.08,3.09,3.09,0,0,0-.22,1.07.6.6,0,0,0,.13.42.48.48,0,0,0,.41.16,3,3,0,0,0,1-.24,12.13,12.13,0,0,0,1.33-.64c.48-.26,1-.57,1.51-.91s1-.7,1.56-1.06,1-.74,1.46-1.11.87-.7,1.24-1a1,1,0,0,1,.58-.21.62.62,0,0,1,.54.29,1.19,1.19,0,0,1,.21.73,2.19,2.19,0,0,1-.21.91,2.55,2.55,0,0,1-.78.91c-.83.76-1.68,1.48-2.54,2.17a27.25,27.25,0,0,1-2.55,1.8,14,14,0,0,1-2.51,1.25,6.77,6.77,0,0,1-2.4.47,3.48,3.48,0,0,1-1.29-.21,2,2,0,0,1-.84-.56,2,2,0,0,1-.46-.83,3.7,3.7,0,0,1-.13-1,7,7,0,0,1,.32-2,13.75,13.75,0,0,1,.74-1.87L80,19.52c.38-.79.75-1.54,1.11-2.27h-.83a2.38,2.38,0,0,1-1.49-.34,1,1,0,0,1-.4-.8,1.25,1.25,0,0,1,.12-.47,1.84,1.84,0,0,1,.37-.52,2.4,2.4,0,0,1,.59-.42,1.7,1.7,0,0,1,.79-.17h2.09l4.08-8.11a2.47,2.47,0,0,1,1-1,2.44,2.44,0,0,1,1.19-.32,1.88,1.88,0,0,1,1.06.31,1.1,1.1,0,0,1,.49,1,1.86,1.86,0,0,1-.17.75c-.11.25-.25.54-.43.88l-.43.78c-.17.3-.34.63-.53,1s-.38.7-.58,1.07-.4.74-.59,1.09L86,14.53h6.3a5.56,5.56,0,0,1,.85.05,1.88,1.88,0,0,1,.67.19,1.14,1.14,0,0,1,.44.4,1.48,1.48,0,0,1,.08,1.1.84.84,0,0,1-.25.38,1.27,1.27,0,0,1-.5.29,3.21,3.21,0,0,1-.82.16Z"/><path class="cls-1" d="M97.6,13.85a7,7,0,0,1,1.58.19,4.89,4.89,0,0,1,1.56.66,4,4,0,0,1,1.19,1.23,3.58,3.58,0,0,1,.47,1.89,6.83,6.83,0,0,1-.15,1.32,10.51,10.51,0,0,1-.47,1.56,1.19,1.19,0,0,0,.45.33,1.53,1.53,0,0,0,.54.09,2.22,2.22,0,0,0,.9-.23,6.08,6.08,0,0,0,1-.6,10.88,10.88,0,0,0,1-.83c.35-.31.67-.62,1-.93s.59-.6.85-.88.46-.51.62-.71a.44.44,0,0,1,.33-.13.62.62,0,0,1,.49.28,1.29,1.29,0,0,1,.21.78,2.81,2.81,0,0,1-.3,1.16,4.36,4.36,0,0,1-1.11,1.38l-1.07,1.16a14.87,14.87,0,0,1-1.27,1.24,9.24,9.24,0,0,1-1.42,1,3,3,0,0,1-1.47.41,2.9,2.9,0,0,1-1-.16,3.4,3.4,0,0,1-1-.5,11.24,11.24,0,0,1-1.59,2,9.2,9.2,0,0,1-2,1.53,9.92,9.92,0,0,1-2.36,1,9.79,9.79,0,0,1-2.7.36,4.51,4.51,0,0,1-1.25-.22,4.14,4.14,0,0,1-1.37-.7,4.2,4.2,0,0,1-1.09-1.29,3.85,3.85,0,0,1-.45-1.93,8.32,8.32,0,0,1,.26-1.86,11.77,11.77,0,0,1,.76-2.23,13.61,13.61,0,0,1,1.3-2.29,10.2,10.2,0,0,1,1.86-2,9.09,9.09,0,0,1,2.48-1.45A8.29,8.29,0,0,1,97.6,13.85Zm-1,3.4a3.66,3.66,0,0,0-1.75.46,5.19,5.19,0,0,0-1.49,1.2,6.15,6.15,0,0,0-1,1.68,5,5,0,0,0-.38,1.93,8,8,0,0,0,0,.8,2.47,2.47,0,0,0,.25.81,1.69,1.69,0,0,0,.53.63,1.53,1.53,0,0,0,.93.25,3.55,3.55,0,0,0,1.73-.47,5.71,5.71,0,0,0,1.5-1.24,6.43,6.43,0,0,0,1-1.73,5.23,5.23,0,0,0,.39-2,7.63,7.63,0,0,0,0-.8,2.11,2.11,0,0,0-.23-.76,1.41,1.41,0,0,0-.54-.57A1.7,1.7,0,0,0,96.6,17.25Z"/><path class="cls-1" d="M118.94,16.93,117,17l-1.75,0h-3.36c-.34.66-.72,1.42-1.13,2.29l-1.32,2.74c-.46,1-.92,1.92-1.37,2.89l-1.31,2.77-1.12,2.36-.81,1.67a4.11,4.11,0,0,1-.53.82,3.42,3.42,0,0,1-.67.65,3.37,3.37,0,0,1-.76.42,2.13,2.13,0,0,1-.71.14,1.46,1.46,0,0,1-.83-.23.79.79,0,0,1-.37-.73,2,2,0,0,1,.11-.59c.08-.23.19-.49.33-.79L108.26,17h-1a2.3,2.3,0,0,1-1.45-.33,1,1,0,0,1-.39-.77,1.23,1.23,0,0,1,.48-.9,2,2,0,0,1,1.41-.43h2.29A27.49,27.49,0,0,1,112.33,10a15.55,15.55,0,0,1,2.72-2.84,8.44,8.44,0,0,1,2.6-1.45,8,8,0,0,1,2.43-.41,2.48,2.48,0,0,1,1.9.85,3.05,3.05,0,0,1,.61,1.08,4.31,4.31,0,0,1,.24,1.51,8,8,0,0,1-.24,1.84.88.88,0,0,1-.23.46,1.45,1.45,0,0,1-.39.3,1.8,1.8,0,0,1-.79.21,1.44,1.44,0,0,1-.71-.18.63.63,0,0,1-.33-.58,3.33,3.33,0,0,1,0-.46,3,3,0,0,0,0-.42,1.81,1.81,0,0,0-.3-1.17,1,1,0,0,0-.81-.34,2.67,2.67,0,0,0-1.4.52,9,9,0,0,0-1.62,1.39,15.42,15.42,0,0,0-1.58,2,13,13,0,0,0-1.24,2.28h4.51c.4,0,.77,0,1.12,0a4.83,4.83,0,0,1,.92.11,1.35,1.35,0,0,1,.62.32.88.88,0,0,1,.22.65,1.25,1.25,0,0,1-.08.42,1,1,0,0,1-.26.4,1.39,1.39,0,0,1-.51.31A3.34,3.34,0,0,1,118.94,16.93Z"/><path class="cls-1" d="M136.42,22.34c-.23.22-.54.52-.92.91s-.83.81-1.33,1.26-1,.9-1.59,1.36a16.68,16.68,0,0,1-1.72,1.25,11.64,11.64,0,0,1-1.73.92,4.13,4.13,0,0,1-1.6.36,2.22,2.22,0,0,1-1.16-.29,2.67,2.67,0,0,1-.81-.76,3.34,3.34,0,0,1-.47-1.05,5,5,0,0,1-.16-1.21,5.29,5.29,0,0,1,.06-.8,3,3,0,0,1,.2-.75c-.4.54-.86,1.1-1.37,1.67a13.46,13.46,0,0,1-1.64,1.57,9.28,9.28,0,0,1-1.84,1.16,4.56,4.56,0,0,1-1.94.46,4.36,4.36,0,0,1-2.44-.87,3.85,3.85,0,0,1-1-1.2,3.68,3.68,0,0,1-.4-1.8,9.18,9.18,0,0,1,.24-1.9,14.36,14.36,0,0,1,.73-2.29A14.13,14.13,0,0,1,116.78,18a10.25,10.25,0,0,1,1.81-2.08A8.94,8.94,0,0,1,121,14.42a7.5,7.5,0,0,1,3-.57,4.83,4.83,0,0,1,1.49.21,7,7,0,0,1,1.08.47,5.18,5.18,0,0,1,.89.67c.22-.11.44-.22.68-.32a4.85,4.85,0,0,1,.61-.25,1.74,1.74,0,0,1,.55-.1,1.76,1.76,0,0,1,1.2.4,1.17,1.17,0,0,1,.46.89,1.27,1.27,0,0,1,0,.22,8.62,8.62,0,0,1-.3.92c-.13.38-.29.79-.45,1.25l-.52,1.43c-.17.5-.33,1-.47,1.46s-.26.93-.35,1.35a5.14,5.14,0,0,0-.13,1.07,2.08,2.08,0,0,0,.19,1,.69.69,0,0,0,.66.38,1.8,1.8,0,0,0,.69-.19,6.09,6.09,0,0,0,.86-.49c.31-.21.62-.44,1-.71s.65-.53,1-.8c.72-.64,1.49-1.38,2.3-2.21a1,1,0,0,1,.6-.25.77.77,0,0,1,.65.38,1.46,1.46,0,0,1,.26.84A1.21,1.21,0,0,1,136.42,22.34Zm-13.4-5a3.63,3.63,0,0,0-1.76.47A5.3,5.3,0,0,0,119.75,19a5.93,5.93,0,0,0-1,1.7,4.84,4.84,0,0,0-.39,1.88,5.68,5.68,0,0,0,.05.81,2.16,2.16,0,0,0,.22.76,1.71,1.71,0,0,0,.49.58,1.48,1.48,0,0,0,.86.23,1.82,1.82,0,0,0,1-.38,8.59,8.59,0,0,0,1.18-1,16.7,16.7,0,0,0,1.19-1.3c.39-.47.73-.93,1-1.38a12.63,12.63,0,0,0,.76-1.22,2.07,2.07,0,0,0,.29-.79,1,1,0,0,0-.25-.67,2.38,2.38,0,0,0-.62-.51,2.85,2.85,0,0,0-.79-.32A2.94,2.94,0,0,0,123,17.35Z"/><path class="cls-1" d="M145.32,15.63a7.17,7.17,0,0,1-.13,1.32,5.25,5.25,0,0,1-.45,1.37,3.42,3.42,0,0,1-.79,1.06,1.73,1.73,0,0,1-1.2.43c-.26,0-.42,0-.49-.12a.55.55,0,0,1-.11-.4c0-.12,0-.29,0-.52s0-.44,0-.65a1.52,1.52,0,0,0-.1-.59q-.09-.24-.48-.24a2,2,0,0,0-1,.34,6.52,6.52,0,0,0-1.1.88,10,10,0,0,0-1.07,1.23,13.07,13.07,0,0,0-.94,1.39,8.11,8.11,0,0,0-.66,1.37,3.32,3.32,0,0,0-.24,1.12,1.31,1.31,0,0,0,.47,1.06,2,2,0,0,0,1.29.39,6.75,6.75,0,0,0,1.86-.29,15.65,15.65,0,0,0,2-.74c.65-.29,1.28-.62,1.88-1s1.16-.68,1.66-1l1.25-.81a7,7,0,0,1,.65-.42,1.35,1.35,0,0,1,.58-.15.72.72,0,0,1,.4.1,1,1,0,0,1,.26.25,1,1,0,0,1,.14.31,1.86,1.86,0,0,1,0,.28,3.66,3.66,0,0,1,0,.42,1.34,1.34,0,0,1-.29.55c-.07.08-.28.28-.63.59s-.81.69-1.38,1.11-1.2.88-1.93,1.37A20.27,20.27,0,0,1,142.41,27a16.79,16.79,0,0,1-2.58,1,9.39,9.39,0,0,1-2.63.4,4.75,4.75,0,0,1-1.75-.31,3.9,3.9,0,0,1-1.29-.84,3.64,3.64,0,0,1-.79-1.25,4.25,4.25,0,0,1-.27-1.51,6,6,0,0,1,.4-2,13.26,13.26,0,0,1,1.12-2.32,19.18,19.18,0,0,1,1.69-2.32,14.37,14.37,0,0,1,2.1-2,10.94,10.94,0,0,1,2.36-1.43,6.06,6.06,0,0,1,2.48-.54,2.92,2.92,0,0,1,.8.1,1.67,1.67,0,0,1,.66.3,1.37,1.37,0,0,1,.45.55A1.92,1.92,0,0,1,145.32,15.63Z"/><path class="cls-1" d="M152.65,17.16c-.47.93-.93,1.83-1.35,2.72l-1.2,2.44a9.47,9.47,0,0,0-.46,1.08,3.34,3.34,0,0,0-.22,1.07.6.6,0,0,0,.13.42.48.48,0,0,0,.41.16,3,3,0,0,0,1-.24,11.31,11.31,0,0,0,1.33-.64c.48-.26,1-.57,1.51-.91s1-.7,1.56-1.06,1-.74,1.46-1.11.88-.7,1.24-1a1,1,0,0,1,.58-.21.62.62,0,0,1,.54.29,1.19,1.19,0,0,1,.21.73,2.19,2.19,0,0,1-.21.91,2.62,2.62,0,0,1-.77.91c-.84.76-1.69,1.48-2.55,2.17a26,26,0,0,1-2.55,1.8,14,14,0,0,1-2.51,1.25,6.76,6.76,0,0,1-2.39.47,3.5,3.5,0,0,1-1.3-.21,2,2,0,0,1-.84-.56,2.12,2.12,0,0,1-.46-.83,3.7,3.7,0,0,1-.13-1,6.7,6.7,0,0,1,.33-2,13.77,13.77,0,0,1,.73-1.87l1.15-2.38c.38-.79.75-1.54,1.12-2.27h-.84a2.4,2.4,0,0,1-1.49-.34,1,1,0,0,1-.4-.8,1.25,1.25,0,0,1,.12-.47,1.84,1.84,0,0,1,.37-.52,2.4,2.4,0,0,1,.59-.42,1.7,1.7,0,0,1,.79-.17h2.09l4.08-8.11a2.47,2.47,0,0,1,1-1,2.44,2.44,0,0,1,1.19-.32,1.94,1.94,0,0,1,1.07.31,1.12,1.12,0,0,1,.48,1,1.86,1.86,0,0,1-.17.75c-.1.25-.25.54-.43.88l-.43.78-.53,1c-.19.34-.38.7-.58,1.07s-.39.74-.59,1.09l-1.39,2.61h6.31a5.72,5.72,0,0,1,.85.05,1.83,1.83,0,0,1,.66.19,1.14,1.14,0,0,1,.44.4,1.28,1.28,0,0,1,.15.67,1.59,1.59,0,0,1-.06.43.87.87,0,0,1-.26.38,1.27,1.27,0,0,1-.5.29,3.21,3.21,0,0,1-.82.16Z"/><path class="cls-1" d="M159.63,15.53a2.08,2.08,0,0,1,.76-.77,1.72,1.72,0,0,1,.87-.23,1.84,1.84,0,0,1,1.27.47,1.57,1.57,0,0,1,.53,1.21c0,.12,0,.23-.05.35a1.08,1.08,0,0,1-.13.35c-.18.33-.32.62-.44.85s-.22.45-.32.65-.19.39-.28.59l-.33.69c-.15.32-.33.68-.52,1.06s-.38.77-.55,1.17A12.32,12.32,0,0,0,160,23.1a3.57,3.57,0,0,0-.18,1.06.77.77,0,0,0,.26.69,1.39,1.39,0,0,0,.75.16,3.21,3.21,0,0,0,1.13-.23,8.85,8.85,0,0,0,1.19-.6,12.8,12.8,0,0,0,1.18-.84c.38-.32.75-.64,1.09-1s.66-.63,1-.93.53-.56.72-.79a1.13,1.13,0,0,1,.78-.37.67.67,0,0,1,.57.31,1.32,1.32,0,0,1,.22.79,2.3,2.3,0,0,1-.22.95,2.76,2.76,0,0,1-.73.95q-1,1-2,1.92a16.49,16.49,0,0,1-2.1,1.63A11.18,11.18,0,0,1,161.43,28a6,6,0,0,1-2.18.43,3.55,3.55,0,0,1-2.47-.81,3.18,3.18,0,0,1-.9-2.5,6.42,6.42,0,0,1,.25-1.74,15.6,15.6,0,0,1,.6-1.66c.24-.53.48-1.05.74-1.54a14.79,14.79,0,0,0,.66-1.43c.06-.16.17-.42.33-.77l.52-1.06C159.18,16.46,159.4,16,159.63,15.53Zm2.13-4.35a2.81,2.81,0,0,1,.17-.92,2.74,2.74,0,0,1,.49-.86,2.63,2.63,0,0,1,.82-.64,2.52,2.52,0,0,1,1.17-.25A2.23,2.23,0,0,1,166,9a1.44,1.44,0,0,1,.44,1.09,2.55,2.55,0,0,1-.14.81,2.6,2.6,0,0,1-.44.82,2.33,2.33,0,0,1-.75.63,2.26,2.26,0,0,1-1.1.25,2.87,2.87,0,0,1-1.69-.37A1.41,1.41,0,0,1,161.76,11.18Z"/><path class="cls-1" d="M174.8,13.85a7,7,0,0,1,1.58.19,4.75,4.75,0,0,1,1.55.66,3.79,3.79,0,0,1,1.19,1.23,3.49,3.49,0,0,1,.48,1.89,6.92,6.92,0,0,1-.16,1.32A10.43,10.43,0,0,1,179,20.7a1.16,1.16,0,0,0,.44.33,1.61,1.61,0,0,0,.54.09,2.14,2.14,0,0,0,.9-.23,6.14,6.14,0,0,0,1-.6,9.69,9.69,0,0,0,1-.83q.53-.47,1-.93c.31-.31.59-.6.84-.88l.63-.71a.44.44,0,0,1,.33-.13.59.59,0,0,1,.48.28,1.29,1.29,0,0,1,.22.78,2.81,2.81,0,0,1-.3,1.16A4.27,4.27,0,0,1,185,20.41l-1.06,1.16a15,15,0,0,1-1.28,1.24,8.71,8.71,0,0,1-1.41,1,2.93,2.93,0,0,1-2.45.25,3.49,3.49,0,0,1-.95-.5,12.24,12.24,0,0,1-1.59,2,9.2,9.2,0,0,1-2,1.53,10.09,10.09,0,0,1-2.36,1,9.89,9.89,0,0,1-2.7.36,4.64,4.64,0,0,1-1.26-.22,4.11,4.11,0,0,1-2.45-2,3.85,3.85,0,0,1-.45-1.93,8.24,8.24,0,0,1,.25-1.86,11.83,11.83,0,0,1,.77-2.23,14.26,14.26,0,0,1,1.29-2.29,10.26,10.26,0,0,1,1.87-2,9.09,9.09,0,0,1,2.48-1.45A8.25,8.25,0,0,1,174.8,13.85Zm-1,3.4a3.69,3.69,0,0,0-1.75.46,5.32,5.32,0,0,0-1.49,1.2,6.12,6.12,0,0,0-1,1.68,5,5,0,0,0-.39,1.93,5.93,5.93,0,0,0,.06.8,2.72,2.72,0,0,0,.24.81,1.69,1.69,0,0,0,.53.63,1.57,1.57,0,0,0,.93.25,3.52,3.52,0,0,0,1.73-.47,5.71,5.71,0,0,0,1.5-1.24,6.21,6.21,0,0,0,1-1.73,5.42,5.42,0,0,0,.38-2,7.51,7.51,0,0,0,0-.8,2.12,2.12,0,0,0-.24-.76,1.45,1.45,0,0,0-.53-.57A1.73,1.73,0,0,0,173.79,17.25Z"/><path class="cls-1" d="M185.88,16.17a3,3,0,0,1,1-1.24,2,2,0,0,1,1.14-.4,1.16,1.16,0,0,1,.83.34,1.25,1.25,0,0,1,.37,1,2.62,2.62,0,0,1-.06.54,2.84,2.84,0,0,1-.21.62,5.89,5.89,0,0,1,1.22-1.11,11.85,11.85,0,0,1,1.75-1,13,13,0,0,1,2-.74,7.18,7.18,0,0,1,1.93-.29,2.86,2.86,0,0,1,1.71.49,1.93,1.93,0,0,1,.69,1.68,5.11,5.11,0,0,1-.22,1.45,10.62,10.62,0,0,1-.55,1.51c-.22.5-.48,1-.75,1.48s-.55.93-.82,1.36-.52.81-.75,1.17-.4.65-.53.88a1.08,1.08,0,0,0-.25.71.45.45,0,0,0,.09.28.42.42,0,0,0,.31.11l.31,0a1.07,1.07,0,0,0,.43-.2,17.37,17.37,0,0,0,2.14-1c.72-.38,1.42-.79,2.09-1.23s1.29-.86,1.85-1.29,1-.82,1.4-1.17a1.24,1.24,0,0,1,.31-.2,1.1,1.1,0,0,1,.29-.05.61.61,0,0,1,.52.25,1.08,1.08,0,0,1,.18.64,3,3,0,0,1-.38,1.33,4.18,4.18,0,0,1-1.19,1.37l-2,1.46c-.61.43-1.24.84-1.87,1.22a21.92,21.92,0,0,1-2.05,1.07,20.32,20.32,0,0,1-2.57.92,8.23,8.23,0,0,1-.92.23,4.28,4.28,0,0,1-.76.08,1.85,1.85,0,0,1-1.5-.57,2.42,2.42,0,0,1-.47-1.6,2.17,2.17,0,0,1,0-.26c0-.09,0-.18,0-.28a4.85,4.85,0,0,1,.32-1.32c.19-.47.42-1,.68-1.47s.55-1,.84-1.5.57-1,.83-1.41.46-.84.62-1.19a2.05,2.05,0,0,0,.25-.85.74.74,0,0,0-.16-.49.58.58,0,0,0-.49-.21,4.18,4.18,0,0,0-2.35.74A10.64,10.64,0,0,0,189,19.8a19.55,19.55,0,0,0-1.78,2.27c-.54.8-1,1.52-1.43,2.15a10.89,10.89,0,0,0-.71,1.36,14.34,14.34,0,0,1-.67,1.36,4.49,4.49,0,0,1-.78,1,1.5,1.5,0,0,1-1.09.42,1.4,1.4,0,0,1-1.07-.43,1.51,1.51,0,0,1-.38-1,3.6,3.6,0,0,1,.27-1.07c.18-.49.41-1.06.69-1.7s.61-1.34,1-2.08.71-1.48,1.07-2.2.69-1.42,1-2.06S185.68,16.62,185.88,16.17Z"/><path class="cls-1" d="M210.37,25.22a2.93,2.93,0,0,1-.22,1.14,3.25,3.25,0,0,1-.6,1,2.83,2.83,0,0,1-.88.66,2.45,2.45,0,0,1-1.06.24,2.16,2.16,0,0,1-1.58-.68,2.09,2.09,0,0,1-.47-.72,2.2,2.2,0,0,1-.18-.88,3,3,0,0,1,.22-1.11,3.17,3.17,0,0,1,.61-.94,3,3,0,0,1,.91-.65,2.65,2.65,0,0,1,1.12-.24,2,2,0,0,1,1.54.64A2.2,2.2,0,0,1,210.37,25.22Z"/><path class="cls-1" d="M218.44,16.17a3,3,0,0,1,1-1.24,2,2,0,0,1,1.14-.4,1.18,1.18,0,0,1,.83.34,1.28,1.28,0,0,1,.37,1,2.62,2.62,0,0,1-.06.54,2.84,2.84,0,0,1-.21.62,6.08,6.08,0,0,1,1.21-1.11,12.39,12.39,0,0,1,1.75-1,12.75,12.75,0,0,1,2-.74,7.11,7.11,0,0,1,1.92-.29,2.81,2.81,0,0,1,1.71.49,1.93,1.93,0,0,1,.69,1.68,5.46,5.46,0,0,1-.21,1.45A12,12,0,0,1,230,19c-.23.5-.48,1-.76,1.48s-.55.93-.82,1.36-.52.81-.74,1.17-.41.65-.54.88a1.14,1.14,0,0,0-.25.71.37.37,0,0,0,.41.39l.31,0a1,1,0,0,0,.42-.2,17.37,17.37,0,0,0,2.14-1,24.06,24.06,0,0,0,2.1-1.23c.67-.43,1.29-.86,1.85-1.29s1-.82,1.4-1.17a1.08,1.08,0,0,1,.31-.2,1,1,0,0,1,.29-.05.58.58,0,0,1,.51.25,1.08,1.08,0,0,1,.18.64,3,3,0,0,1-.37,1.33,4.18,4.18,0,0,1-1.19,1.37l-2,1.46c-.62.43-1.24.84-1.88,1.22a20.74,20.74,0,0,1-2.05,1.07,20.13,20.13,0,0,1-2.56.92,8.81,8.81,0,0,1-.92.23,4.38,4.38,0,0,1-.77.08,1.82,1.82,0,0,1-1.49-.57,2.43,2.43,0,0,1-.48-1.6,2.17,2.17,0,0,1,0-.26l0-.28a4.51,4.51,0,0,1,.32-1.32,15.66,15.66,0,0,1,.68-1.47q.39-.75.84-1.5c.29-.49.57-1,.82-1.41s.46-.84.63-1.19a2.05,2.05,0,0,0,.25-.85.8.8,0,0,0-.16-.49.6.6,0,0,0-.5-.21,4.21,4.21,0,0,0-2.35.74,10.93,10.93,0,0,0-2.08,1.81,20.69,20.69,0,0,0-1.78,2.27c-.54.8-1,1.52-1.43,2.15a10.86,10.86,0,0,0-.7,1.36c-.22.48-.44.94-.67,1.36a4.51,4.51,0,0,1-.79,1,1.5,1.5,0,0,1-1.09.42A1.38,1.38,0,0,1,214,28a1.48,1.48,0,0,1-.39-1,3.6,3.6,0,0,1,.27-1.07c.18-.49.41-1.06.7-1.7s.6-1.34,1-2.08.71-1.48,1.06-2.2.69-1.42,1-2.06S218.23,16.62,218.44,16.17Z"/><path class="cls-1" d="M242.42,13.83a3.34,3.34,0,0,1,2.4.77,2.88,2.88,0,0,1,.8,2.15,4,4,0,0,1-.43,1.7,5.69,5.69,0,0,1-1.47,1.81,15.37,15.37,0,0,1-2.8,1.88,31.46,31.46,0,0,1-4.38,1.92,1.28,1.28,0,0,0,.6.88,2.42,2.42,0,0,0,1.34.32,7.8,7.8,0,0,0,1.9-.26,14.81,14.81,0,0,0,2-.67c.67-.27,1.32-.56,2-.88s1.2-.61,1.71-.9.94-.52,1.28-.73a7.81,7.81,0,0,1,.68-.39.74.74,0,0,1,.32-.13,1.28,1.28,0,0,1,.26,0,.67.67,0,0,1,.39.1,1.28,1.28,0,0,1,.26.26.85.85,0,0,1,.15.3,1.81,1.81,0,0,1,0,.29,3.73,3.73,0,0,1,0,.41,1.34,1.34,0,0,1-.29.55c-.07.07-.28.24-.65.52s-.84.62-1.42,1-1.26.8-2,1.23a24,24,0,0,1-2.44,1.19,19.61,19.61,0,0,1-2.68.9,10.94,10.94,0,0,1-2.75.36,4.56,4.56,0,0,1-2.06-.45,4.6,4.6,0,0,1-1.52-1.2,5.26,5.26,0,0,1-1-1.74,6.5,6.5,0,0,1-.33-2.07,5.92,5.92,0,0,1,.33-1.83,9.29,9.29,0,0,1,1-2,12.11,12.11,0,0,1,1.51-2,11.32,11.32,0,0,1,2-1.69,10,10,0,0,1,2.47-1.18A9,9,0,0,1,242.42,13.83Zm-.69,2.67-.18,0h-.17a3.3,3.3,0,0,0-1.37.29,4.53,4.53,0,0,0-1.17.76,6.13,6.13,0,0,0-1,1.08,13,13,0,0,0-.75,1.19,10.57,10.57,0,0,0-.55,1.13c-.15.36-.26.66-.34.91.46-.23.92-.5,1.41-.8l1.36-.85c.43-.27.8-.51,1.11-.73l.67-.45a4,4,0,0,0,1.2-1,1.53,1.53,0,0,0,.33-.82.6.6,0,0,0-.19-.47A.85.85,0,0,0,241.73,16.5Z"/><path class="cls-1" d="M253.12,17.16c-.48.93-.93,1.83-1.35,2.72l-1.2,2.44a9.47,9.47,0,0,0-.46,1.08,3.09,3.09,0,0,0-.22,1.07.6.6,0,0,0,.13.42.48.48,0,0,0,.41.16,3,3,0,0,0,1-.24,12.13,12.13,0,0,0,1.33-.64c.48-.26,1-.57,1.51-.91s1-.7,1.56-1.06,1-.74,1.46-1.11.87-.7,1.24-1a1,1,0,0,1,.58-.21.62.62,0,0,1,.54.29,1.19,1.19,0,0,1,.21.73,2.19,2.19,0,0,1-.21.91,2.55,2.55,0,0,1-.78.91c-.83.76-1.68,1.48-2.54,2.17a27.25,27.25,0,0,1-2.55,1.8,14,14,0,0,1-2.51,1.25,6.77,6.77,0,0,1-2.4.47,3.48,3.48,0,0,1-1.29-.21,2,2,0,0,1-.84-.56,2,2,0,0,1-.46-.83,3.7,3.7,0,0,1-.13-1,7,7,0,0,1,.32-2,13.75,13.75,0,0,1,.74-1.87l1.15-2.38c.38-.79.75-1.54,1.11-2.27h-.83a2.38,2.38,0,0,1-1.49-.34,1,1,0,0,1-.4-.8,1.25,1.25,0,0,1,.12-.47,1.84,1.84,0,0,1,.37-.52,2.4,2.4,0,0,1,.59-.42,1.7,1.7,0,0,1,.79-.17h2.09l4.08-8.11a2.47,2.47,0,0,1,1-1A2.44,2.44,0,0,1,257,5.05a1.88,1.88,0,0,1,1.06.31,1.1,1.1,0,0,1,.49,1,1.86,1.86,0,0,1-.17.75c-.11.25-.25.54-.43.88l-.43.78c-.17.3-.34.63-.53,1s-.38.7-.58,1.07-.4.74-.59,1.09l-1.39,2.61h6.3a5.56,5.56,0,0,1,.85.05,1.88,1.88,0,0,1,.67.19,1.14,1.14,0,0,1,.44.4,1.48,1.48,0,0,1,.08,1.1.84.84,0,0,1-.25.38,1.27,1.27,0,0,1-.5.29,3.21,3.21,0,0,1-.82.16Z"/></g></g></svg>