<?xml version="1.0" encoding="UTF-8"?>
<svg width="120px" height="120px" viewBox="0 0 120 120" version="1.1" xmlns="http://www.w3.org/2000/svg" xmlns:xlink="http://www.w3.org/1999/xlink">
    <!-- Generator: Sketch 50.2 (55047) - http://www.bohemiancoding.com/sketch -->
    <title>icon_hatena</title>
    <desc>Created with Sketch.</desc>
    <defs></defs>
    <g id="Page-1" stroke="none" stroke-width="1" fill="none" fill-rule="evenodd">
        <g id="icon_hatena">
            <circle id="Oval" stroke="#FFF" stroke-width="4" cx="60" cy="60" r="58"></circle>
            <path d="M74.5,38 L85,38 L85,67.5 L74.5,67.5 L74.5,38 Z M66.25,75.7 C65.25,77.45 63.85,78.85 62.05,79.8 C60.55,80.6 58.75,81.15 56.55,81.5 C54.35,81.85 50.8,82 45.8,82 L33.5,82 L33.5,38.5 L45.4,38.5 C50.35,38.5 53.75,38.55 55.75,38.9 C57.7,39.2 59.4,39.7 60.8,40.5 C62.4,41.4 63.65,42.55 64.5,44.05 C65.35,45.55 65.75,47.3 65.75,49.25 C65.75,51.75 65.1,53.7 63.85,55.15 C62.6,56.6 60.55,57.7 57.8,58.5 C60.9,58.75 63.35,59.85 65.05,61.8 C66.8,63.75 67.65,66.35 67.65,69.6 C67.7,71.85 67.2,73.9 66.25,75.7 Z M54.8,65.65 C53.75,64.9 51.75,64.5 48.85,64.5 L44.5,64.5 L44.5,74 L48.65,74 C51.45,74 53.45,73.7 54.65,73 C55.85,72.3 56.4,71.1 56.4,69.45 C56.4,67.65 55.9,66.35 54.8,65.65 Z M52.95,55.9 C54.05,55.25 54.6,54.1 54.6,52.5 C54.6,50.85 54.1,49.7 53.05,49 C52,48.35 50,48 47.05,48 L44.5,48 L44.5,57 L46.9,57 C49.8,57 51.85,56.55 52.95,55.9 Z M79.75,82.25 C76.5,82.25 73.85,79.6 73.85,76.35 C73.85,73.1 76.5,70.45 79.75,70.45 C83,70.45 85.65,73.1 85.65,76.35 C85.65,79.6 83,82.25 79.75,82.25 Z" id="Shape" fill="#FFF" fill-rule="nonzero"></path>
        </g>
    </g>
</svg>