<svg xmlns="http://www.w3.org/2000/svg" viewBox="0 0 678.29 68.7"><defs><style>.cls-1{fill:#232222;}</style></defs><title>title_td</title><g id="レイヤー_2" data-name="レイヤー 2"><g id="レイヤー_2-2" data-name="レイヤー 2"><path class="cls-1" d="M23.2,67.7H12.9V10.5H0V1H36.2v9.5h-13Z"/><path class="cls-1" d="M87.6,46.5c0,7.5-1.1,12-3.8,15.8-3,4.2-8,6.4-14.4,6.4S58,66.5,55,62.3c-2.7-3.8-3.8-8.3-3.8-15.8V22.2c0-7.5,1.1-12,3.8-15.8C58,2.2,63,0,69.4,0S80.8,2.2,83.8,6.4c2.7,3.8,3.8,8.3,3.8,15.8Zm-26.1-.2c0,5.3.3,7.1,1.3,9.1a7.85,7.85,0,0,0,13.2,0c1.1-2.1,1.3-3.7,1.3-9.1V22.4c0-5.4-.2-7-1.3-9.1a7.85,7.85,0,0,0-13.2,0c-1,2-1.3,3.8-1.3,9.1Z"/><path class="cls-1" d="M142.4,1V46.2c0,8.4-1,12.7-3.8,16.5s-7.8,6-13.8,6-11-2.1-13.9-6-3.8-8.1-3.8-16.5V1h10.3V47.9c0,7.9,2.1,11.1,7.4,11.1s7.3-3.2,7.3-11.1V1Z"/><path class="cls-1" d="M187.6,22.7V21.3c0-7.7-2.7-11.6-7.8-11.6a6.52,6.52,0,0,0-6.1,3.3c-1.3,2.2-1.6,4.2-1.6,9.6V44.8c0,5.1.3,7.7,1.1,9.9a6.93,6.93,0,0,0,6.6,4.3c3.8,0,6.3-2.2,7.4-6.6.4-1.7.5-3.2.6-8.1h10.4v2.3c0,14.5-6.3,22.1-18.3,22.1-6.7,0-12-2.6-14.9-7.4-2.5-4.1-3.2-8-3.2-17.9V24.7c0-10.6.8-14.3,3.9-18.5,2.9-4,7.9-6.2,14.1-6.2,11.4,0,18.1,7.6,18.1,20.7v2Z"/><path class="cls-1" d="M227.2,38.3V67.7H216.9V1h10.3V28.8h14.7V1h10.3V67.7H241.9V38.3Z"/><path class="cls-1" d="M297.6,1h16.3c13.1,0,19.3,6.7,19.3,20.9V46.8c0,14.2-6.2,20.9-19.3,20.9H297.6ZM313,58.2c7.3,0,9.9-3.8,9.9-14.2V24.7c0-10.5-2.6-14.2-9.9-14.2h-5.1V58.2Z"/><path class="cls-1" d="M382.8,10.5H362.9V28.1h14.7v9.5H362.9V58.2h19.9v9.5H352.6V1h30.2Z"/><path class="cls-1" d="M425,19.6c-1.6-6.6-4.6-9.9-8.8-9.9a6.6,6.6,0,0,0-6.7,6.8,10,10,0,0,0,2.8,6.7c1.7,1.9,1.7,1.9,8.8,7.3,5.6,4.4,7.7,6.3,9.9,9a19.49,19.49,0,0,1,4.3,12.2c0,10.1-7.4,17-18.3,17-11.4,0-18.1-6.1-20.21-18.8L406.7,47c1.3,8,4.8,12,10.3,12a7.24,7.24,0,0,0,7.6-7.6c0-4.2-2.1-6.9-9.9-13-9.3-7.3-9.7-7.7-12.2-10.9a18.09,18.09,0,0,1-3.71-11.1C398.79,6.8,406,0,416.2,0c9.5,0,15.9,5.7,18.7,16.7Z"/><path class="cls-1" d="M462.8,67.7H452.49V1H462.8Z"/><path class="cls-1" d="M518.7,34.6V67.7h-5.3L511.5,62c-3.41,4.8-7.11,6.7-12.51,6.7-6.1,0-11.2-2.9-13.8-7.8-2.2-4.3-2.9-8.6-2.9-17.8V24.7c0-10.6.8-14.4,3.9-18.5,2.9-4,8-6.2,14.1-6.2C507.59,0,513,3.1,516,8.9c1.7,3.3,2.4,7.4,2.4,13.8H508.09c0-9.2-2.3-13-7.9-13a6.52,6.52,0,0,0-6.1,3.4c-1.2,2.2-1.5,4.2-1.5,9.6V43.1c0,5.5.3,8.4,1.1,10.9a7.2,7.2,0,0,0,7,5c5.4,0,7.71-3.9,7.71-13.2V43.1h-8.51V34.6Z"/><path class="cls-1" d="M574.8,67.7h-9.21l-18-44.4V67.7h-9.8V1h10.4L565,42.5V1h9.8Z"/><path class="cls-1" d="M625.09,10.5h-19.9V28.1h14.7v9.5h-14.7V58.2h19.9v9.5h-30.2V1h30.2Z"/><path class="cls-1" d="M652.49,67.7h-10.3V1h16.1c6.1,0,10,1.2,13.2,4,4,3.4,6,8.5,6,15.1,0,8.4-3,14.2-9,17.3l9.8,30.3h-10.8l-8.8-27.4h-6.2Zm3.8-36.9c4.4,0,6.4-.5,8-2.1s2.5-4.4,2.5-8.1-.8-6.3-2.5-8-3.6-2.1-8-2.1h-3.8V30.8Z"/></g></g></svg>