<svg xmlns="http://www.w3.org/2000/svg" viewBox="0 0 79.9 67.7"><defs><style>.cls-1{fill:#232222;}</style></defs><title>title15</title><g id="レイヤー_2" data-name="レイヤー 2"><g id="レイヤー_2-2" data-name="レイヤー 2"><path class="cls-1" d="M19.3,66.7H9.6v-51H0V9.6C5.4,7.3,11.2,3.1,13.6,0h5.7Z"/><path class="cls-1" d="M77.4,9H56.7l-.3,15.2c3.3-2.9,6.2-4.1,10.1-4.1A11.89,11.89,0,0,1,77,25.6c2.2,3.7,2.9,7.9,2.9,17.2,0,10.1-.8,14.4-3.5,18.7-2.6,4.1-7.2,6.2-13.3,6.2-10.3,0-15.8-6.2-15.8-17.9a16.67,16.67,0,0,1,.1-1.9H57v1.7c0,6.1,1.9,8.9,6.2,8.9a5.75,5.75,0,0,0,5.5-3.3c.9-1.9,1.2-5,1.2-11.7,0-6.5-.3-9.3-1.4-11.8a5.61,5.61,0,0,0-5.3-3.4c-2.9,0-4.6,1.3-6.8,5.3H47.5L48.2,0H77.4Z"/></g></g></svg>