<svg xmlns="http://www.w3.org/2000/svg" viewBox="0 0 530.64 90.44"><defs><style>.cls-1{fill:#fff;}</style></defs><title>アセット 31</title><g id="レイヤー_2" data-name="レイヤー 2"><g id="レイヤー_2-2" data-name="レイヤー 2"><path class="cls-1" d="M20,17.79c.21,0,.28-.29.57-.29h.15c.07.79,2.37,1.37,2.16,1.22.36.22,1.87,1.59,1.87,1.59.29,0,.29-.29.65-.29.07,0,1.58,2.16,2,2.66-.14.15-.14.15-.14.22,0,.43.36.79.36,1.15s-.22.07-.22.29c.07.72.29,1.66.43,2.45,0,.14-.07.29-.07.57,0,1,1.59,1.52,1.59,1.66.86.36.79,1.66,1.65,1.94,0,1.37.58,2.16.58,3.46a12.75,12.75,0,0,1-.36,2.74c0,.14-.22,0-.22.36a25.31,25.31,0,0,1-1.08,3.74,1.84,1.84,0,0,0,.08.58c-.44.07-.94,1.65-.94,1.44-.07.5-.79.57-.79,1.29,0,.15-.72,1.88-1.37,2,0,.14.07.14.07.29,0,1.22-1.51,2.08-1.51,2.08v.29c0,.22-.65.29-.65.87v.28c-.36,0-.29.36-.72.36h-.14c0,1.52-1.88,2.45-2.38,3.32s-2.52,2.66-3.6,2.73c-.36.07-.43.43-.43.79h-.22c-.5,0-.79.94-1.29.94s-.87.86-2.67,1.22H13c-.14,0-.43.51-.5.51a10.22,10.22,0,0,1-2.74.29c-.79,0-1.65-.08-2.66-.08H7.06c-.65,0-1.73-2.08-1.8-1.8v-.14c-1.44,0-1.66-.43-1.66-1.3H3.38c-.43,0-.21-.64-.71-.64H2.45a4.75,4.75,0,0,0-.94-2.45s-.79-1.3-.79-1.15c0-.15.14-.51.14-.72a11.23,11.23,0,0,1-.57-3c0-.21.14-.65.14-.86A3.92,3.92,0,0,0,0,46.73c.07-.21.5-.72.5-.86s-.14-.29-.14-.5c0-.44.43-1.44.43-1.73S.5,42.92.5,42.56c.36,0,.72-2.88,1.16-3.17V39c0-.29,0-.51-.29-.51a4.46,4.46,0,0,0,.93-2.09V36a5.91,5.91,0,0,1,1.3-2.74V33a3.11,3.11,0,0,0,.79-2,2.46,2.46,0,0,1-.07-.43c.58-.07,1.37-2.16,1.37-2.09,0-.86.86-.86.86-1.51.07-.36.94-1,1.3-1.29v-.08c0-1.8,2.3-2.08,2.3-3.6v-.14a2.23,2.23,0,0,0,1.66-1.73c1,0,.94-.93,1.94-.93.08,0,.15,0,.15.14.14-.07.14-.36.14-.5v-.44a.28.28,0,0,0,.22.07c.36,0,1-1.15,1.87-1.15h.43c.58,0,.65-.21,1.23-.21s1.51.14,1.8.65C19.66,17.79,19.87,17.79,20,17.79Zm-2.09,4.68h-.29c-.22,0-.22.36-.36.36h-.29c-.36,0-.36.43-.65.43h-.14v.14c0,.8-1.87,2.31-2.23,2.45,0,0-.36-.36-.58-.36s-.14.36-.29.36-.5-.21-.79-.21-.72,0-.72.5c0,.07.07.29.07.36,0,.36-.36.43-.36,1.08,0,.43-.36.07-.36.43a.51.51,0,0,1,.15.29c0,.22-.07.36-.07.65a.58.58,0,0,0,.14.36c-.65.14-.58.79-.65,1.22h-.29c-1.51,0-2.08,4-2.3,4.54a7.89,7.89,0,0,0-1.37-.29c-.65,0-.79,1.66-.79,2.59v.51c-.22,0-.22.36-.22.57-.29.51-1.08.43-1.08,1.23,0,.14.29.21.29.65,0,.21-.5.07-.5,1,0,.29.07.65.07,1,0,.58-.29.43-.29.87v.57c0,.29-.21.29-.21.65V45a20.21,20.21,0,0,0-.51,2.59A23.7,23.7,0,0,0,4.32,54a3.07,3.07,0,0,1,1.37,1.15c.5,1.22.57.5.86,1,.15,0,0,.5.22.57H8.28c.29.65,1.3.51,1.87.79A4.34,4.34,0,0,1,13,56.74c.07-.72,1.15-.5,1.3-1.08h.21c1.23,0,2.74-2.23,4.11-3.45.14-.15.43-.08.65-.22a8.84,8.84,0,0,0,1.22-1.51c.07-.43.72-.51.94-.79a9.87,9.87,0,0,1,.57-1.3v-.22c.36-.14,2.81-2.23,2.81-4.1,0,.07.07.07.14.07,1.08,0,.51-2.81,2.16-3.67,0-.14-.07-.36-.07-.58,0-.64.58-1.37.58-2.09v-.71a6.74,6.74,0,0,1,.21-1.16,10.89,10.89,0,0,0-.21-1.87v-.5c0-.29-.51-.36-.51-.72v-.51c0-.14,0-.21-.07-.21-.86,0-1.58,1.58-1.58,1.58s-1.59,1.87-2,2.09c-.07,1-.93,1.3-1.29,1.87-.65-.14-.43-1.51-1-1.51-.29,0-.29.43-.36.43s-.07,0-.14-.14c.14-1.08.14-2,1.15-2.16,0-.87-.15-.94.36-1.8.43-.65.5-.51.65-1.08a3,3,0,0,1,.14-.65c0-.15-.14-.22-.14-.36s.28-.65.28-1V28.8a1.55,1.55,0,0,1,.22-1c-.5-.15-.5-.29-.5-.29s-.15,0-.22.07c0-.43-1.73-.72-1.73-1.73.15-.43.87-.43.94-1.08.07,0,.21.07.29.07.43,0,.72-.14.72-.57v-.22c0-.57-.65-.29-.65-.79,0-.07.07-.14.07-.22,0-.43-.43-.36-.43-.86V22c-.94-.28-2.23-.14-3.1-.43A2.77,2.77,0,0,1,17.86,22.47ZM9.22,29.31a.74.74,0,0,0,.72-.79c0-.22-.07-.51-.36-.51-.08.36-.65.58-.65.94a1.33,1.33,0,0,0,.14.36Zm.28.93c.29,0,.29-.21.29-.36s0-.43-.29-.43-.14.51-.14.72A.22.22,0,0,0,9.5,30.24Z"/><path class="cls-1" d="M57.67,10.51c.15-.07-.07-.14-.07-.21s-.07-.07-.07-.22h-.07c-1.66.15-4.25,4-4.25,4.61-.14.15-.5.07-.5.29,0,.07.07.14.07.21a.28.28,0,0,1-.29.29c0,.15.14.29.14.44s-.21.14-.21.21c0,.22.07.29.07.65a7,7,0,0,1-.79,1.94,6.92,6.92,0,0,0-.36,2,.24.24,0,0,0,.07.14c-.15.15-.15.22-.29.22s-.36-.29-.72-.29-.65.51-.65.87a1.28,1.28,0,0,0,.08.5c-.44,0-.37.58-.51.58s-.14-.08-.22-.15a1.09,1.09,0,0,0-.14.51.72.72,0,0,0,.29.57,2.22,2.22,0,0,0-.58,1.23,1,1,0,0,0,.22.72c-.36.43-1,1.36-1,1.29,0,.22.22.36.22.79-.15.65-.58.44-.58,2s-.72,1.3-.72,1.58.22.36.22.72c0,0-.29.15-.29.29s.21,0,.21.22c-.14,1.51-1.22,3.09-1.22,4.32a5.14,5.14,0,0,1-.5,1.58c-.15,1.08-.22,2.31-.44,3.46a1.09,1.09,0,0,0,.51.14c.14,0,.43-.07.65-.07s.21.07.28.07.15-.07.36-.14.58.14.94.14c.15,0,.36-.07.5-.07a.88.88,0,0,0,.51.15c.36,0,.72-.29.93-.29s.29.21.65.21.58-.14,1.44-.64c0,.07,0,.07.15.07.36,0,1.29-.22,1.72-.22.08,0,0,.15.44.15,1.08,0,2.52-.8,3.6-.8.43-.07,1.51-.07,1.8-.36h.07c.86,0,1.37-.5,1.8-.5.22,0,2.74-.43,2.74-.43a.28.28,0,0,0-.08-.15c0-.14.15,0,.29-.14s.22-.15.43-.15a3.71,3.71,0,0,0,.58.08c.58-.15.72-.51,1.44-.51.29,0,.5.15.79.15s.15-.22.15-.36v-.07a.66.66,0,0,1,.28-.08c.15,0,.22.08.36.08s.51.21.51.43l-.07.07a.22.22,0,0,1,.07.14c0,1.3-2.16,1.23-2.16,2.52a6.7,6.7,0,0,0-1.51.36.56.56,0,0,1-.51-.28,2.15,2.15,0,0,1-1.22.64v.08c-.65,0-.65.57-1.66.57a14,14,0,0,0-3.6,1c0,.29-3.81.86-5.33,1-.07-.07-.14-.07-.29-.07-1.65,0-2.59.5-3.88.5-.58,0-1.3-.07-1.8-.07s-.94.21-1.59.21a3.57,3.57,0,0,1-.86-.07,1.25,1.25,0,0,0-.36.51c0,.07.14.14.14.21,0,.43-.5.15-.57.51a1.06,1.06,0,0,1,.07.5,28.29,28.29,0,0,1-.58,4.82c0,.22.07.22.07.29v.65c0,.22.08.07.08.22s-.51.72-.51.79l.07.07c-.14.5-.21,1.87-.43,1.58,0,.29.15.72.15.94a1.67,1.67,0,0,0-.15.5c0,.15,0,.22.22.36A1.73,1.73,0,0,0,42,58.69c-.15.79-.58,1.15-.72,1.8v.86s.21.07.21.15-.29.28-.29.64.15.72.15.94c-.29,0-.22,1-.22,1.08-.14.43-.65.14-.72.58,0,.14.29.28.29.64,0,.15-.14.29-.14.65s.14.22.14.36a1.46,1.46,0,0,0-.14.79c0,.29.14.51.14.87a3.16,3.16,0,0,1-.14.65v.57A2.14,2.14,0,0,1,39.89,71c0,.29.07.72.07,1.15s-.22.43-.29.94a.37.37,0,0,0,.29.36c-.36.43-.14,1.29-.65,1.58,0,.29.22.72.22,1.08a7.65,7.65,0,0,1-.29,1c0,.29.07.58.07.94,0,1.08-.5.57-.5,2.23-.07.21-.22.29-.29.5s.22.51.22.79-.29.22-.29.58a2.75,2.75,0,0,0,.14.43c-.5,0-.65,1.44-1.08,1.88a.83.83,0,0,0-.43-.08c-.36,0-.79.51-1.8.72-.58.15-.36.72-1.08.72s-1.44-.28-1.58-.86c-.08,0-.15.07-.29.07-1.37-.14-3.46-3-3.82-3.46-.79,0-1.8-2.44-1.94-2.37s.07-.15.07-.22a26.05,26.05,0,0,1-1.37-2.52c-.07-.93-1.15-2-1.15-3a1.43,1.43,0,0,0,.07-.36,6.33,6.33,0,0,1-1.15-2c0-.07.21-.07.43-.07.86,0,.43.15.86.58.08.21.58,0,.58.43,0,.07-.07.14-.07.22,0,.86,1.22,1.29,1.22,1.51a.54.54,0,0,0-.29.5c.36.72.94.51.94,1.51v.44c.29.79,1.44.79,1.44,1.65v.15c1.44.36,1.8,1.72,2.67,1.8.07.43.5,1.15.79,1.15.57.07.93,1.15,1.87,1.15,1.3,0,2.16-.94,2.74-2.81a.31.31,0,0,1-.15-.29c0-.07.15-.14.22-.43,0-.14-.15-.29-.15-.57.29.07.51-1.88.87-3.24a.56.56,0,0,1-.15-.36c0-.08.22,0,.22-.15s-.07-.43-.07-.72c0-.79.72-1.87.72-3a.29.29,0,0,0-.15-.29,3,3,0,0,0,.36-1.29v-1a26.74,26.74,0,0,1,.72-3.24.46.46,0,0,1-.21-.36c0-.29.14-.44.14-.79s-.14-.36-.14-.51c0-.5.5-.93.5-1.94,0-.36-.07-.51-.07-.8,0-.07.36-.21.36-.72,0-.21-.14-.36-.14-.64,0-.58.57-.36.72-1.59,0-.29-.22-.07-.22-.29l.22-.07c0-.29-.08-.79-.08-1.37a3.23,3.23,0,0,1,.15-1.15v-.14c0-.15.07-.65.07-.94s0-.29-.07-.29.14-.14.14-.28-.07-.58-.07-.87.14-.86.58-.93c.14-1.23.86-4.54.72-4.54h.14c.07,0,.07,0,.07-.07a.26.26,0,0,0-.14-.22c0-.14.07-.5.14-1-.29,0-.57-.14-.93-.14s-.58.07-.72.07c-.51-.07-.72-.21-1.23-.29,0,.22-.29.36-.21.29a1.09,1.09,0,0,0-.87-.29c-.21,0-.36.08-.57.08a2.74,2.74,0,0,1-1.66-.44c-.36,0-.58.08-1,.08s-.79,0-.94-.15-.35.15-.35.43a3.65,3.65,0,0,1-2-2.88,1.63,1.63,0,0,1,1.58-1.51c.22,0,.22.14.44.14s.43-.28.72-.28.5.28.86.43.65-.07.94-.07.28.07.43.07h.43c.14,0,.29.07.58.07h.14c0,.07.07.29.14.29s.15-.22.22-.22c.5,0,.72.79,2.66.79a2.53,2.53,0,0,0,1.3-.21c.14.5.72,0,.72.5.07,0,.07,0,.14-.07v-.14h.08c.14,0,.43-.65.43-1.73,0-.14-.07-.36-.07-.65,0-1.73.79-2.66,1-4.53A10.11,10.11,0,0,1,44,33.34a7.89,7.89,0,0,0,.79-2.81v-.14c.08-.43.29-.79.65-.79,0-.15-.07-.36-.07-.51a8.57,8.57,0,0,1,.43-1.94.81.81,0,0,1-.07-.29c0-.14.29-.22.36-.29s-.14-.07-.14-.29.36-.43.43-.79c0-.14-.15-.5-.15-.72,0-.5.72-1.65.72-1.94,0-.58.58-.87.58-1.87,0-.44.15-.08.15-.87,0,.07.43-1.37.79-2.45.14-.36.5-.64.5-1.22,0-.22-.07-.36-.07-.5.07-.44.79-.87.86-1.66,0-.07-.14-.07-.14-.07a7.23,7.23,0,0,1,.65-2c.07-.58.72-.43.72-1.8v-.14c.14-.08,1.22-1.37,1.22-1.37s-.07-.07-.14-.15c.07-.36.43-.36.72-.5h-.07c0-.29,1.22-2.38,1.22-2.59,0-.87,1.73-.58,1.94-1.23.72.15.87.36,1.44.36.08,0,.15-.07.44-.14.21.86,1.44,1.15,1.44,1.73,0,.21-.15.5-.15.72s.29.65.29.86-.07.22-.22.29c.08.22.51.14.51.36a.51.51,0,0,1-.15.29,6.46,6.46,0,0,1,.65,1.94c0,.07.15.15.15.36a1,1,0,0,0-.08.43A10.84,10.84,0,0,1,60.41,13c-.07.29-.22.51-.22.65s.15.72.22,1.15c-.22.15-.29.36-.58.65.22.07.22.07.22.22A.82.82,0,0,1,60,16c.07.14.07.36.21.36,0,.43-.14.43-.21.57a.41.41,0,0,1,.21.36,1.14,1.14,0,0,1-.57.94c0,.29.14.36.14.5a1.71,1.71,0,0,1-.43.87v.65c0,.21-.29.43-.29.79s.15.43.36.5a7.73,7.73,0,0,1-1.29,1.59c0,.21.07.5.07.79s.07.79-.22.93c0,.36.22.58.36,1-.36.15-.79,1.37-.79,1.37,0,.22.29.43.29.72a.25.25,0,0,0-.15-.07c-.21,0-.07.29-.21.36-.29.29-.65.21-.65,1.22,0,.51.58.72.58,1.08S57,30.75,57,31a2.55,2.55,0,0,1,.08.36v.28c-.36.08-1,1.16-1.16,1.37s-.14.07-.14.15.07.14.14.14c-.21,1.44-1.37.94-2.3,1.59-.58-.08-.72-.29-1.23-.37-.14.08-.21.22-.28.22s-.15,0-.36-.22c-.15.08-.15.08-.15.15a.35.35,0,0,0,.07.22c0,.35-.14.21-.14.57-.29-.07-.36-.22-.36-.29A12.18,12.18,0,0,1,52.42,33a2.31,2.31,0,0,1,1.08-1.73v-.43c0-.36.36-.22.36-.86v-.22s.21-.65.36-.65h.07a5.16,5.16,0,0,0,.5-1.29,9,9,0,0,1,.65-1,1.22,1.22,0,0,0-.21-.29c0-.36.21-.29.35-.72a2.77,2.77,0,0,1-.07-.72,2.12,2.12,0,0,1,.44-.79,5.32,5.32,0,0,1,.79-2.52c0-.29.21-.36.21-.43s-.07-.22-.14-.22l.43-.65c0-.21-.21-.5-.21-.86,0-.65.36-1.51.36-2.09v-.22c0-.5.64-.36.86-.65,0-.71-.58-.5-.58-1.65,0-.58.29-1.3.29-2,0-.28-.07-.64-.29-.64a3.58,3.58,0,0,0,.22-.87c0-.43-.14-.14-.22-.65Z"/><path class="cls-1" d="M115,42.92c-.22.07-.8.21-.94.65-.65.21-1.58.07-1.8.79-.22-.07-.43-.29-.72-.29-.07,0-.43.14-.43.36a3.29,3.29,0,0,1,.07.36c0,.65-3,1.66-2.88,1.66h-.14v.07c0,.29-.15.36-.22.57s.72.08.72.29c0,1,1.44,1.23,1.08,1.23.72.5,1.15,2.23,1.15,1.8a11.43,11.43,0,0,1,.65,3.67c0,1.29-.5,1.08-1,1.58,0,.22-.21.36-.21.51s.07.14.21.14c-.14.43-.72.36-1,.58-.57,1.65-1.87.93-3,3h-.07a2.86,2.86,0,0,1-.36-.07.07.07,0,0,0-.07.07v.21c0,.36-1.8.94-2.16.94s-.22.72-.44.86h-.28l-1.59.94c-.21,0-.36-.14-.43-.43-.5.72-.58.43-1.58,1.44a8.05,8.05,0,0,1-2.31.65h-.5c-.36,0-.58.36-.94.36h-.29c-.43,0-1.15.36-1.87.36-1.08,0-2.16-.08-2.73-.87h-.22c-.29,0-.36.15-.72.15-.58,0-.72-.65-1.51-.65h-.22c-.43-.43-.21-.94-1-1.22-.36-.22-1.36-.51-1.36-1.73-.08-.08-.15-.15-.22-.15,0-.5.43-.93.43-1.44A.56.56,0,0,0,86,58.9c1.29-.14,0-1.51,2-1.51,1-1.08,2.23-3.1,4.1-3.31.36-.07.14-.72.72-.72a.29.29,0,0,1,.29.14c.43-.07.57-.43.72-.79.07,0,.07.07.14.07a3.74,3.74,0,0,0,2.23-1.87c.15.07.22.14.29.14.29,0,1.8-1,1.8-1.29v-.22c.15-.14.36,0,.36-.14v-.07c.65,0,.87-.29,1.66-.29.36,0,.21-.65.43-.87h.14c.29,0,.22-.36.58-.36h.07a5.2,5.2,0,0,0,1.16-1c0-.15-2.45-1.37-2-1.37-.22-.15-.43,0-.43-.65-.07,0-.15.07-.22.07-.93,0-.72-1.08-1.87-1.08a27.63,27.63,0,0,1-2.16-1.73h-.29c-.65,0-1.58-1.72-1.58-1.8v-.07c-.29-.29-.87-.14-1.08-.36-.72-1.22-2.16-3.17-2.81-3.31v-.15c0-.5-.58-.72-.79-1.08s-.07-1.08-.72-1.22v-.22c0-.64-.58-1.29-.87-1.87s-.07-1.22-.21-1.87c-.29-.94-.94-1.3-.94-3.46,0-.36.22-.43.22-.43S87,26.14,87,26c0-.44.14-.87.14-1.66,0,0,.14,0,.14-.07s-.14-.15-.14-.43c.21-1.08.65-1.8.65-2.24v-.36c0-.28.29-.28.29-.43.21-.36.36-1.8.36-1.44,0-.29.43-.36.43-.86v-.22a3.11,3.11,0,0,0,1.08-1.8c1.08-.22,1.22-2.09,2.52-2.59,0-.07-.07-.14-.07-.22,0-.29.28-.29.28-.65,1-.28,1-1.65,2.09-1.87.22-1.08,1.73-1.44,1.51-1.44a8,8,0,0,0,1.8-1.37c1.59-1.65,2.31-1,2.31-1.72,1,0,1.3-.65,1.87-1.3a30.81,30.81,0,0,0,3.6-1.15c.07,0,.15-.15.29-.15h.21c.51-.14.87-.57,1.45-.57h.5c.21,0,.21.14.36.14a1.11,1.11,0,0,1,.58-.14c.21,0,.21.21.57.21s.58-.07.94-.07.43.07.36.29h.36c0,.07,1.87.43,1.65.43a4.58,4.58,0,0,1,1.8,1.23c.22.14,1.3,1,2,1.58.07.07,1.29,1.15,1.29,2.09h.15c.07,0,.36.5.57.65v.43a1,1,0,0,0,.72,1,.52.52,0,0,0-.14.43c0,.14.29.5.36.79s-.14.72.14,1c-.07.5.15.72.15,1.15,0,.22-.15.29-.15.5a2.94,2.94,0,0,1,.29,1c0,.07-.07.36-.21.36a.69.69,0,0,1-.22-.07v.07c0,.22-.14,1.23-.29,1.23a3.29,3.29,0,0,1-.36-.07,9.42,9.42,0,0,1-.29,1.44c-.21.57-.72,1.29-1.15,1.29h-.21V21c0,.28.36.21.36.43A22.58,22.58,0,0,1,116,23.33h-.36a4,4,0,0,1-1.29-.43c-.87-.14-2.52.29-2.52-1.37,0-1.08,1.22-1.29,1.94-1.94a9.64,9.64,0,0,1,1.44-4c0-.08-.07-.29-.07-.44,0-1.08.72-1.94.86-2.8a2.21,2.21,0,0,0-.14-.72c0-.22.14-.44.14-.72s-.21-.29-.21-.44a.71.71,0,0,1,.07-.21h-.22V9.94c0-.07-.43-.15-.43-.22s-.07-.72-.21-.79A5.19,5.19,0,0,0,113.33,7h-.22c-.5,0-.79-.22-1.22-.22h-.29c-.14-.22-.14-.65-.36-.79a9.25,9.25,0,0,0-1.51.14,7.94,7.94,0,0,0-1.8.87c-.36,0-.51-.15-.51-.44V6.41c-.57.07-.5.86-1.15.86-.28,0-.43-.28-.86-.28-.07,0-.22.14-.43.14s-.15-.36-.36-.36c-.94,0-.51,1.44-1.73,1.44-.14,1.15-1.51,1.44-2,1.66-.93.79-3,3.6-3.31,3.6s-.43-.22-.86-.22c-.36.29-1.44.72-1.44,1.8,0,.07.07.22.07.29a3.29,3.29,0,0,1-.36-.07c-.94,0-1.15.72-1.15,1.65v.51a.21.21,0,0,1-.22.14c-.21,0-.36-.07-.5-.07s-1.15,2-1.15,2-.08.08-.08.15.08.36.08.58-.65.21-.65.79c0,.29.07.43.07.57s0,.29-.22.29h-.14a2.51,2.51,0,0,1-.94,2.31c0,.14.08.21.08.36,0,.64-.29.86-.51,1.36a6.8,6.8,0,0,1,.72,1.73c0,.29-.29.51-.29.65A4.59,4.59,0,0,0,90.72,30c0,.07.22-.08.22.14,0,.43.5.94.5,1.15s-.14.36-.14.51c0,.64.93,1.22.93,1.44s-.07.93.65,1v.22c0,.36.07.43.07.65v.21c.29.58.94.65.94,1.59.79.72,1.94,1,2.3,2.3a9.81,9.81,0,0,1,1.8,1.3c.72,0,.79.5,1.08.94h.22c.5,0,.86.57,1.65,1,.08.08,0,.15.22.15s.94,1.22,1.37,1.22h.14c.58,0,1.59,1.51,2.38,1.51,2.16,0,1.66-1.29,3.38-1.29,1.8-1.73,3.89-1.87,4.54-2.31a3.89,3.89,0,0,0,1.37-1.22c.5-.22,1.22,0,1.51-.65h.22a4,4,0,0,0,2.8-1.44,1,1,0,0,0,.44.07c.79-.14.57-.5.79-.5s.29.07.43.07.58-.5.86-.65a4.92,4.92,0,0,1,1.08-.07h.22c.22,0,.29-.43,1.15-.43.58,0,.87-.51,1-.51,1.23-.21,2.59.22,3.67-.72a.86.86,0,0,0,.44.08c.28,0,.64-.15,1.08-.15.28,0,.71.22.93.22s1.3-.07,1.59-.43c.07.21.79-.08.86.5a.15.15,0,0,0,.14-.14v-.08c1,.72,1,1.23.51,1.66-.22.94-.07,1.22-1.23,1.8-1.36.22-2.44-.65-2.44-.07,0,.29-1.66.14-1.88.36-.14-.22-3.67.58-3.31-.07a.24.24,0,0,0-.14-.07c-.29,0-.51.21-.65.21s-.29-.14-.43-.14c-1.44,0-3.68.72-3.68,1.29C118.15,40.61,116,42.56,115,42.92Zm-24,19v.29h.21a9.19,9.19,0,0,1,2,.57,5.37,5.37,0,0,1,1.87-.5,2.15,2.15,0,0,0,1.51-.44h.51c.28,0,.21-.5.64-.5a.8.8,0,0,0,.22.07c.58,0,.65-.43,1.15-.43h.36A18.25,18.25,0,0,1,103,58.61h.22c.14,0,.21-.43.28-.43h.22c.36,0,.15-.5.86-.5,1,0,2.88-2.81,2.88-2.74v-.29a10.12,10.12,0,0,1,.87-1.94,5,5,0,0,0-.36-1.51V51c0-.14-.22,0-.22-.14v-.15c0-.28-.36-.14-.43-.28-1.29-1.08-1.22-1.88-2-1.88-.07,0-.21.29-.64.29-.58,0-3.1,2.09-3.1,2.09h-.29a6.22,6.22,0,0,0-1.65.86V52a.07.07,0,0,1-.08.07c-.07,0-.14-.07-.21-.07-.22.14-.29.5-.58.5-2.16,0-1.87,1.95-3.31,1.95-.29.29-.29.86-.65,1-2.37.64-.72,2.44-2.52,2.44-1.22,0-.86,1-1,1.37h-.14A3.26,3.26,0,0,0,90,60.85a5.86,5.86,0,0,0,.36.93C90.43,61.85,90.94,61.85,90.94,61.93Zm37.58-22.54v0Z"/><path class="cls-1" d="M165.17,39.17c-.22-.07-.43-.07-.43.29s.07.29.07.58c0,.57-1.44,0-1.37,1.22-.86.29-.65,1.58-1.65,2-.08,0-.08.14,0,.21-.15.36-.65.43-.58.65-.07-.07-.22.22-.29.22v.21a11.62,11.62,0,0,1-1.44,1.66.26.26,0,0,0-.07.21c0,.22-.72.36-.79.94v.07c-.51.07-1.23.65-1.23.94l-.14.14c.07.15-.22,0-.22,0-.21-.07-.21.58-.36.79s-.79.15-1,.65c.07.22,0,.29-.08.29s-.07.07-.14-.07c0,.36-.36.21-.36.43v.22c-.65.07-.72.72-1.15.93-.58.65-2.09,2.38-2.16,2.16-.15.29-.65.43-.72.94a.8.8,0,0,0-.22.07c-.43-.14,0,.5-.43.36l-.07-.14v.14c0,.14-.22.29-.22.36-.07.43-2.3,1.66-2.74,1.73a.24.24,0,0,1-.07.14,4.68,4.68,0,0,0-.29.87c0-.08-.14-.08-.14-.08-.43-.07-1,.72-1.15,1-.07.07-.22,0-.29.15.14.14-.07.07-.22,0s0,.07-.21,0a9.74,9.74,0,0,1-2.16.57l-1-.29c-.14-.43-.86-.72-1.08-.79-.14-1.08-1-1.44-1.51-2.16-.22-.5.29-.43.21-1-.21-.07-.14-.36-.21-.72,0,0-.51-.93-.15-1.36h.22c-.07-.29-.36-.44-.43-.65a4.83,4.83,0,0,1,.43-2.52c.14-.58.14-1.23.29-1.59,0-.07.14,0,.14-.21s.36-.58.43-.94-.21-.5-.21-.72c0,.07.14-.14.21-.21s.51-1.16.58-1.44c-.36,0-.65,0-.65.28,0,.44-.5.08-.79.44-.29.07-.07.36-.36.57,0,.22-.86.51-.65,1.23-1.29.14-.86,1.87-2.09,2a2.9,2.9,0,0,1-1.29,2c-.36.29-.51.57-.87.57.22.8-.43.87-.5,1.44-.58.22-1.08.58-1.66.87v1.44c-.21.21-.36.79-1,.93-.36,0-.29.44-.36.65s-.72,0-.65.43a7.75,7.75,0,0,0-2.52,1.08c-.15.08-.72-.28-.72.29a3.19,3.19,0,0,1-1.8-1c-.36,0-.36.29-.8.22-.64-.58-.79-1.73-1.36-2.59a6.63,6.63,0,0,1-.44-2,1.05,1.05,0,0,1-.14-.5,7.84,7.84,0,0,1,.43-1.37c0-.29-.29-.72-.21-1,0,.07.21-.14.21-.21s-.07-.22,0-.29a10.3,10.3,0,0,1,.43-1.37c.22-.36,0-.94.44-.94,0-.64-.44-1.08.14-1.44.14-.64-.29-.86.07-1.22,0-.5.15-.65.65-.65-.07-1,.36-1.44.43-2.16.22-.22.58-.36.65-.57s.43-.51.43-.73a3.07,3.07,0,0,1,.22-.57l.36-.22c.14-.21.07-.5.22-.79s.57-.07.64-.21.07-.44.15-.51a2.49,2.49,0,0,1,1-.72c-.15-.57.21-.57.14-1.22.65.07.43-.65,1.22-.65.15-.15.15-.65.29-.94a.9.9,0,0,0,.94-.65c2.16-.21,3.31-.57,5.11,0,.22-.07,1.66.58,1.87.29.15.22,1.23.22,1.59.44-.08.43.72-.22.79.21a.93.93,0,0,0,.57.58s.29-.08.36,0,.15.5.29.57c.72,0,.79,0,1.08-.28,0,0,.51-.15.51-.22s-.08-.22,0-.29c.21-.36.57-.86.79-1.3.14-.07.21.15.21-.21v-.22a6.41,6.41,0,0,1,.29-1c.65.08,1-.28,1.51-.36.29,0,.29.15.58.22s.79,0,1,.14a3.27,3.27,0,0,0,.72.8c.14.07.36-.08.43,0a1.57,1.57,0,0,0,.72.86c-.14,1.08-.79,1.8-.94,2.74a1.29,1.29,0,0,1-.64.28c-.07.94-1.08,1.45-.58,2.24-.43.21-.5.65-1.22.43-.08.29,0,.5-.22.79-.07.07-.36.22-.36.29a8,8,0,0,0,0,1.3c-.07.21-.58.57,0,.64a1.85,1.85,0,0,0-.65,1.88c-.5.28-.65.93-.93,1.22a5.86,5.86,0,0,1-.29,1.66c-.07.43-.36.57-.36.86s.14.65.21,1.08a1.6,1.6,0,0,0,0,.58c.08.28-.07.93,0,1.58,0,.22-.07,1.15.08,1.22a2.08,2.08,0,0,0,.36,1.08c.07.22.43.22.64.29a4.35,4.35,0,0,0,2-.93c1.66-.87,3.53-2.6,3.53-2.45.86-1.44,1.66-.94,1.8-2a.24.24,0,0,1,.07-.14c.72-.29.79-.65,1.58-1.37h.08a.24.24,0,0,0,.14-.07c.29.07.36-.43.43-.43.65-.58,1.66-1.08,1.95-2,.29-.07.36-.21.57-.21h.15c.21-.15.36-.87.65-.72s.07-.08.14-.22.07-.07.07,0v.14a.78.78,0,0,0,.07-.36l-.07-.07h.22a7.14,7.14,0,0,0,.5-.86c.07-.07.43-.29.51-.58,0-.07.21-.14.21-.21-.14-.29,1.66-1.8,1.8-1.88a1.26,1.26,0,0,1,.79-1.08c.08,0,.15-.07.22-.07A.24.24,0,0,0,162,40a.45.45,0,0,1-.07-.29c0-.07,2.38-2.88,2.45-3a4,4,0,0,0,.5-.57c1.08-.43.65-1,1.15-1.66l.65-1a8.33,8.33,0,0,0,.87-1.51c-.08-.36.28.15.21-.29l.07-.07c.29.07.58-1.15.87-.86a.22.22,0,0,1,.14-.07v-.22a.66.66,0,0,1,.58.14c.72-.07,1.22.15,1.08,1.52-1.08,1.22.5,1-.72,1.29-.15.36-.07.58-.22.79s-.86.73-1.22,1.16-.87.79-.58,1-.29.29-.72.94c-.14-.07-.14.36-.29.36a.73.73,0,0,0-.36-.14v.21C166.25,37.8,165.24,39.1,165.17,39.17Zm-26.71.72c-.15-.07-.08-.64-.08-.72-.36-.07-.72.08-1,0a1.32,1.32,0,0,0-.15-.29H137c-.15,0-.08-.21-.15-.21-.72-.15-1.44-.15-1.94-.22s-.58.36-.94.43a1.91,1.91,0,0,1-1.22.29c-.44.94-1.52,1.16-1.59,2.24-.28.28-.79.21-.72,1-.36,0-.29.43-.43.72-.57.22-.57.87-.79,1.16a4.53,4.53,0,0,0-.94,1.44c-.07.28-.29.14-.43.64-.72.44-.36,1.52-.79,2-.5.86-.43,2.52-.65,3.6-.43.14-.22.57-.22.93-.36,0-.14.51-.28.51a.39.39,0,0,1-.08.43c.08.22.15.14.15.22.29.86.29,2,1.29,2,.65-.36.94-1.15,1.73-1.29-.21-.87.44-.94.65-1.08s0-.58.22-.51a4.27,4.27,0,0,1,1.44-.43c-.43-.43.29-.65.43-.94.07,0,0-.14,0-.14.07-.29.14-.14.14-.22s.08-.57.36-.79c.51-.65,1.3-.93,1.8-1.51.08-.07,0-.36,0-.5s.36-.15.44-.22.07-.58.21-.86c0-.08.15-.15.22-.29s.72-.43.79-.58v-.72c.29-.36,1.08-.72,1.15-.93a2.58,2.58,0,0,0,.22-.72c.14-.15.5-.15.57-.22.22-.07.22-.43.65-.29a4.17,4.17,0,0,1,.72-1.73,2.32,2.32,0,0,0,1.08-1.58c-.43,0-.65-.43-1.08-.58C139,39.75,138.6,39.89,138.46,39.89Z"/><path class="cls-1" d="M178.49,13.47c0,.21.14.57.14.86,0,.65-.86,1.3-.86,1.66v.14h-.29c-.79,0-1,.36-1,1.08v1c0,1-.57.79-.57,1.44A.66.66,0,0,0,176,20c-2,.65-1,1.73-1.87,2.66v.51c0,.57-.15.93-.15,1.51v.14c0,.44-.43.29-.65.51a.75.75,0,0,1,.22.5c0,.51-.65,2.74-1.44,3.31,0,.08.07.15.07.22s-.72,2.95-.72,3.46c0,.07.07.14.07.21h-.36c-.36,0-.21,1.15-.86,1.23v.43c0,.86-.36,1.37-.43,2.23.07.36.43.5.86.5.15,0,.36-.07.58-.07,0,0,.07-.21.14-.21a1.43,1.43,0,0,0,.94.21c.5,0,.65-.21,1.15-.21,0,0,.14.21.22.21s.5-.07.86-.07.72.22,1.08.22.5-.15.72-.15c.79,0,1.51.22,2.16.22.07,0,.22-.07.29-.07s.29.43.57.43.36-.15.65-.22.36.07.51.07a2.23,2.23,0,0,0,1.58-1.22c0-.07-.07-.22-.07-.29s.36.07.5.07c.72,0,.58-.35,1.3-.64.07,0,.21.07.29.07a9.21,9.21,0,0,1,1.58-.72c.5,0,.72-.36,1.08-.36a1.11,1.11,0,0,1,.58.22c.21-.37.57-.44,1.22-.44h1.08c.07,0,.22.15.22.15.5,0,1.08-.15,1.51-.15,2.3,0,3.46.79,3.31.79.29,0,.43-.21.79-.21a14.55,14.55,0,0,1,2,1.08c1.22,0,1.3.57,3.1,1.58H201c.22,0,.29.65.72.65.65,0,1.16,1.22,2,1.59a1,1,0,0,0-.22.5c0,.43.65.79.65,1.37a3.05,3.05,0,0,1-.65,1.65c.08.29.15.44.15.51a4.16,4.16,0,0,1-.72,1.94v.22a5.08,5.08,0,0,1-1.44,3l-.65.79v.29c0,.36-2.09,2.67-3,3.6-.44.65-1.16,2-1.88,2h-.14c-.79,1.8-2.16,1.8-2.3,2.45A7.83,7.83,0,0,1,192,59.55h-.29c-.15,0-.58.58-1.3.65-.5.21-.14,1-.86,1a7.06,7.06,0,0,1-.87-.15,1.59,1.59,0,0,0-.5.15c-1.66-1.52-2.38-2.38-2.38-4.47,0-1.37.58-2.37.58-3.09,0-.51-.07-1.08-.07-1.59,0-.79.36-1.15.43-1.87.22-1,.07-2.16.22-3.24a18.45,18.45,0,0,0,.43-2.74c0-.57-.29-.64-.29-1.15a.29.29,0,0,1,.07-.22,2.35,2.35,0,0,0-1.94-.79H185a6.64,6.64,0,0,0-2.95-1h-.65c-.15,0-.51,0-.51-.22a12.22,12.22,0,0,1-1.44.22,7.77,7.77,0,0,0-1.44-.22h-.36a2.51,2.51,0,0,0-1.08-.22h-1.36c-.08,0-.22-.21-.36-.21s0,.21-.29.21-.43-.21-.79-.21c-.65,0-1,.28-1.66.28-.43,0-.79-.07-1.22-.07v.07c0,.08-.08.22-.15.22a1.8,1.8,0,0,0-.86-.29c-1.15,0-.58.58-1.44.58H168v.36c0,.79-.65,1-.65,1.87a.91.91,0,0,0,.07.43c-.79.58-.65,1.37-.65,2.24a5.19,5.19,0,0,0-1.37,3.52c-.07.08-.36.15-.43.36v.44c-.36.28,0,1.15-.43,1.65-.14.15-.43.22-.43.51,0,.07.07.21.07.28a4.78,4.78,0,0,0-.43,1.23v.29a4.38,4.38,0,0,1-.44,1.15c0,.07-.14,0-.14.36v.5c0,.29-.65.72-.65,1a4.61,4.61,0,0,0,.15.65.38.38,0,0,1-.15.29v.21c0,.36-.57.15-.57.65v.29c0,.57-.22.93-.22,1.51v.14c0,.29-.36.29-.65.29v.51a3.56,3.56,0,0,1-.21,1.29h-.15c-.43,0-.21.65-.65.65-.72-.14-.93-1-.93-1.87a4.13,4.13,0,0,1,.93-2.81c0-.29-.21-.43-.21-.79s.43-.22.65-.43a1.14,1.14,0,0,1-.22-.58,2.84,2.84,0,0,1,.79-2.09V55c0-.43-.21-.57-.21-1.15h.07c.14,0,.21-.21.21-.43v-.22h-.07c.58-1.36.94-3.24,1-3a2.54,2.54,0,0,1,.86-1.22c0-.15-.07-.36-.07-.51,0-.65.36-1,.65-1.94.65-2.52.79-2.16.79-2.88v-.15a3.47,3.47,0,0,0,.65-1.65c0-.36-.21-.43-.57-.43-.8,0-2.31-.08-2.88.43a5,5,0,0,0-1.08-.08c-1.81,0-2.53,1.3-4,1.3-.57,0-2.09,1.59-2.09,1.44,0,.07.08.15.08.22s-.87.57-1.44,1v.36c0,1.65-.72,1.65-1.37,1.65s-1.37-1.08-1.95-1.08a2.86,2.86,0,0,1-.36.07v-.21c0-.79-.79-.72-1.22-1-.29-.58-.22-1.51-.79-1.87,1.37-3.24,3.67-2,4.89-3.24.8,0,2.31-.58,3.24-.58h.44c0-.43,1.51-.29,2.59-.65a6.62,6.62,0,0,0,2.3-.79,1.52,1.52,0,0,0,.8.22c.86,0,3.16-.58,3.24-.87.14,0,.35.07.5.07a5.56,5.56,0,0,0,1.66-.5c0-.14-.22-.43-.22-.58s.07-.21.29-.21a12.54,12.54,0,0,1,1.08-2.95c0-.22-.07-.44-.07-.65a13.27,13.27,0,0,1,1.08-3.39,8.37,8.37,0,0,0,.79-2.73v-.43c.21,0,.14-.29.21-.44s.44-.43.58-.79v-.36a3.89,3.89,0,0,1,.22-1.29c0-.08-.08-.22-.08-.29a.28.28,0,0,1,.08-.15.24.24,0,0,0,.14.08c.22,0,.65-2.38,1.3-4.11,0-.07-.08-.21-.08-.29a.24.24,0,0,1,.08-.14c.21-.15.28-.79.43-1.23,0-.07-.07-.14-.07-.28,0-.44.43-.07.43-.8V15.7a18.65,18.65,0,0,1,1-3.24V12a15.76,15.76,0,0,0,.28-2.52c0-.29-.07-.58-.07-.94.43-.36,1-.65,1.44-1,.79,0,1,.51,1.66.65h.14c.65-.36,2.09,1.44,2.09,1.44v.29c0,.14.14.07.22.07,0,.29.07.58.07.86,0,1.23-.79,1.37-.79,2.16a.27.27,0,0,0,.07.22h-.15c-.14,0-.28-.14-.43-.14A.54.54,0,0,0,178.49,13.47ZM161.06,53.29v0Zm32.26.57h.15a9.36,9.36,0,0,1,2-1.94,3.29,3.29,0,0,1-.07-.36.39.39,0,0,1,.14-.36h.08a2.18,2.18,0,0,0,.93-.87v-.28c0-.22,1-.8,1.23-1.08l1.65-3.24c0-.08.15-.15.15-.22a6.07,6.07,0,0,0,.93-2.23c0-2.81-2.3-3.17-3-4.54a1,1,0,0,1-.43.14c-.29,0-.43-.28-.79-.28a1.08,1.08,0,0,0-.44.14,4.31,4.31,0,0,0-1.58-1,1.93,1.93,0,0,1-.94.15c-.86,0-1.94-.36-2.73-.36a2.9,2.9,0,0,0-1.08.36c-.15,0-.22-.08-.36-.15.07,0-1.8.36-1.8.87,0,.28.07.36.29.36h.36c.28,0,0,.29.28.29s.51-.08.65-.08a5.16,5.16,0,0,1,2.45,2.24c-.58.57-.14,2.23-.79,2.66a2.29,2.29,0,0,1,.43,1.66c0,.93-.22,1.94-.22,2.66s-.64.29-.64,1.3a6.63,6.63,0,0,0,.21,1.15.63.63,0,0,0-.36.65c0,.28.07.57.07.79s-.21.36-.21.43.29,0,.29.43-.08,1.23-.08,1.8a1.24,1.24,0,0,0,.65,1c.22,0,.43-.43.43-.43C193,54,193,53.86,193.32,53.86Z"/><path class="cls-1" d="M215.86,45.58v-.29a3.76,3.76,0,0,0-.87-.14c-.29,0-.57.07-.72.07-.5-.07-.72-.21-1.22-.29,0,.22-.29.36-.22.29a1.06,1.06,0,0,0-.86-.29c-.22,0-.36.08-.58.08a2.75,2.75,0,0,1-1.66-.44c-.35,0-.57.08-1,.08s-.8,0-.94-.15-.36.15-.36.43a3.65,3.65,0,0,1-2-2.88A1.64,1.64,0,0,1,207,40.54c.21,0,.21.14.43.14s.43-.28.72-.28.5.28.86.43.65-.07.94-.07.29.07.43.07h.43c.15,0,.29.07.58.07h.15c0,.07.07.29.14.29s.14-.22.21-.22c.51,0,.73.79,2.67.79a2.57,2.57,0,0,0,1.3-.21c.14.5.72,0,.72.5h.07a10.55,10.55,0,0,1,1.08-4.75c-.15-2.59,1.37-7.56,1.29-7.56.15-.22.44-.58.44-.72,0-.36-.15-.43-.15-.58s0-.14.15-.36c.07-.07.07-.57.36-.86,0-.29-.22-.36-.22-.65-.07-.5.65-3.45.65-3.89,0-.21.72-2.66,1.08-3.81,0-.07-.15-.15-.15-.22a2.17,2.17,0,0,0,.36-1.15c0-.07-.07-.29-.07-.43.87-.87.29-2.38,1.44-4.11a14.93,14.93,0,0,1,.65-3.89.21.21,0,0,0,.14.08c.36,0,.94-4,2.09-5.19a4.65,4.65,0,0,1,2.59-4c2.67-.07,5.48,3.1,6.92,5.47a1.08,1.08,0,0,0-.15.58c-.14.65.07,1.08-.07,2.23-.14.58.72.07.5,1.08a4,4,0,0,1-.36,1.15c-.07.29.22.44.22.58-.07.5-.43.36-.5.65-.15.79.5,1.87,1.22,2.81.14,2.45-.43,5.47-.43,8a5.86,5.86,0,0,1,.07,2.23c-.14.43-.22.72-.22.72a1.52,1.52,0,0,1,.22,1.37c-.22,1.58-.86.79-1,1.73V29c-.07.22-.29.79-.86.72-.22,0,0-.14-.29-.22H233c-.21-.07-.07-.21-.21-.21s-.36.07-.51,0,.07-.51-.07-.51,0,.08-.07.08c-.43-.08-.79-3.24-.79-3.32a6.24,6.24,0,0,0,.28-1.22c.22-1.3-.72-2.81-.36-4.68.08-.29.22-.5.29-.72a3.52,3.52,0,0,1-.21-1.22,2.29,2.29,0,0,0,.36-.8c-.22-.07-.29-.29-.29-.57a7.37,7.37,0,0,1,.65-1.37c-.51-2.45-.15-2-.58-4.61-.14-.07.22.07.29-.14.36-2-.65-2.74-1-2.81-.5.93-1.51.93-1.44,1.58-.29.15-.79.15-1.08.36a1,1,0,0,1,.07.43c.15,2.6-.93,2.31-.86,3,0,.29-.58.72-.65.79-.22-.14-.5.65-1,.65-.14.36-.65.65-.57.93a2.86,2.86,0,0,0,.07.36c0,.37-.65.37-.65.44a4.14,4.14,0,0,0-.43,1.73.41.41,0,0,0,.07.28c0,.15.07.36.07.51s-.21.21-.21.43c0,.07.07.22.07.29-.15.14-.36.14-.51.36a.23.23,0,0,1,.22.21c0,.15-.07,0-.22.22-.72,3-.86,4.1-.79,4.54v.21c0-.07-.07-.07-.14-.07v.94c.07,1.22-.79,1.58-.72,2.37.07,2.23-.72,2.81-.65,4.68a5.56,5.56,0,0,1-.94,2.67.81.81,0,0,1,.08.43c.14,3.38-.87,1.15-.72,3.74v.29c-.15.43,0,1.08-.58,1.23a3.34,3.34,0,0,1,.07.71v.15a1.08,1.08,0,0,0,.43.14c.15,0,.44-.07.65-.07s.22.07.29.07.14-.07.36-.14.58.14.94.14c.14,0,.36-.07.5-.07a.85.85,0,0,0,.5.15c.36,0,.72-.29.94-.29s.29.21.65.21.57-.14,1.44-.64c0,.07,0,.07.14.07.36,0,1.3-.22,1.73-.22.07,0,0,.15.43.15,1.08,0,2.52-.8,3.6-.8.43-.07,1.51-.07,1.8-.36h.07c.87,0,1.37-.5,1.8-.5.22,0,2.74-.43,2.74-.43a.29.29,0,0,0-.07-.15c0-.14.14,0,.29-.14s.21-.15.43-.15a3.51,3.51,0,0,0,.57.08c.58-.15.73-.51,1.45-.51.28,0,.5.15.79.15.14-.08.14-.22.14-.36v-.07a.73.73,0,0,1,.29-.08c.14,0,.22.08.36.08s.5.21.5.43l-.07.07a.22.22,0,0,1,.07.14c0,1.3-2.16,1.23-2.16,2.52a6.84,6.84,0,0,0-1.51.36.54.54,0,0,1-.5-.28,2.17,2.17,0,0,1-1.23.64v.08c-.64,0-.64.57-1.65.57a13.85,13.85,0,0,0-3.6,1c0,.29-3.82.86-5.33,1-.07-.07-.15-.07-.29-.07-1.66,0-2.59.5-3.89.5-.57,0-1.29-.07-1.8-.07s-.93.21-1.58.21a4.26,4.26,0,0,1-.94-.07l-.07.07c-.07,0-.14.15-.14.36s.14.87.14,1.23c0,.65-.65.57-.58,2.37.15,2.67-.79,1.8-.72,3.17v.43c0,.22-.14.15-.14.36a5.16,5.16,0,0,0,.21.87c-.71.36-.86,3.45-.86,3.53-.5,1.72-1.22,1.58-1.22,1.94,0,.58.5.58.5,1.08.07.29-.29.22-.21.43a3.29,3.29,0,0,1,.07.36c-.51,2.67-.58,2.81-.58,2.81a1.26,1.26,0,0,0,.07.36c0,.15-.36,0-.36.43s.22.94.22,1.3c.07,1.44-1.22,2.52-1.08,5.83,0,.22.07.36.14.36,0,.22-.43,2.59-.43,2.81s-1.3,3-1.3,3.6a12.38,12.38,0,0,0-.28,3.24c-.58.07-1,2.88-1.44,3.1,0,.43.21.86.21,1.29a.71.71,0,0,1-.14.51c.36.65,1,1,1.08,1.94a.51.51,0,0,1-.43.29,2.6,2.6,0,0,1-1-.43c-2.23.5-1.15,1.51-2.88,1.58a3.83,3.83,0,0,1-2.16-1.15c-2.38-1.51-3.1-1.51-3.1-1.8a6.61,6.61,0,0,0-3.17-2.88,2.16,2.16,0,0,0-1.22-1.73c-.72-2.16-3-2.59-3-5a3.25,3.25,0,0,1-1.52-2.59,5.27,5.27,0,0,1-1.29-2.16v-.65c-.08-.29-.58-2.23-1.16-2.52,0-.57-.07-1.22-.07-1.8a8.16,8.16,0,0,1,.15-1.44c0-.29-.15-.07-.15-.21s.15-.08.15-.22c.36-2.74,1.22-2.66,1.15-2.66.22,0,1.51-2.53,1.58-2.24,1.44-.07,1-1.37,1.88-1.44.14,0,.28.07.43.07.36,0,.65-.57,1.29-.64-.07-.08.94,1.44.94,1.44,0,.28-.36.14-.43.14-.36,0-.07.51-.36.51h-.15c-.5,1.43-1.65,1.22-1.58,2.08,0,.22.07.36.29.36-.15.36-.58.51-1.08.58a.77.77,0,0,0,.14.36c0,.58-.43,1.08-.43,1.37,0,.14.14.21.14.36a2.85,2.85,0,0,0-.28,1c.21.36.5.36.93.36a2,2,0,0,0,0,.64c0,1.37.65,2.24.72,3.68,0,.21-.07.5-.07.79a.7.7,0,0,0,.79.72,2.21,2.21,0,0,0,1.3,1.8c0,.14-.07.14,0,.21a4.14,4.14,0,0,0,1.37,2.52,1.14,1.14,0,0,0-.08.51c.08,1.94,1.37,1.44,2,2.09.65.43-.15,1.87,1.08,1.87a.79.79,0,0,1,.43-.15,6.09,6.09,0,0,0,.86,1.81c0-.08.08-.08.22-.08s.5.22.65.22.14-.07.14-.22c.51.43,1.51,1.44,2,1.44,1.15,0,.86-1.8,1.44-2.16.14-.14.36-.14.36-.21,0-.29-.15-.44-.22-.72,0-.44,1.23-3.53,1.51-4.9a9.43,9.43,0,0,0,.51-2.16,1.19,1.19,0,0,1-.15-.22c0-.14.29-.21.29-.36a1.6,1.6,0,0,0-.21-.64c0-.22.36-.08.36-.65a1.85,1.85,0,0,1-.07-.58,13.48,13.48,0,0,1,.86-2.81,1.23,1.23,0,0,0,.14-.57c0-.15-.07-.29-.07-.43s.5-3.68,1.08-4l-.22-.93c-.07-1.8.8-3.6.72-5.84.36-.14.58-.43,1-.57a2.17,2.17,0,0,1-.14-.65,1,1,0,0,1,.5-1,.78.78,0,0,1-.14-.57c-.07-.51,0-3.1.79-4,0-.08.07-.08,0-.15,0-.36-.29-.43-.29-.79.51-.29.65-1.44.65-1.51a6.06,6.06,0,0,1-.07-.79c.65-.08.14-1.23.58-1.52a2.88,2.88,0,0,1-.58.15A.27.27,0,0,1,215,47a1.38,1.38,0,0,1,.94-1.08A.43.43,0,0,1,215.86,45.58Z"/><path class="cls-1" d="M250.85,38.88a1.54,1.54,0,0,1-1.51-1.15.24.24,0,0,1-.08-.21c-.43,0-.5-.43-.93-.43-.94,0-.65.57-1,.86-.58.14-1.8,1.3-1.73,1.94h-.14c-.51,0-.22.51-.72.51h-.15c-.14.07.08,2.23-.72,1.94.08,1.66-2,.72-1.8,2.31-.57.43-.64.36-.64,1.22a.46.46,0,0,0,.07.29c0,1.29-2,1.37-2,2.3,0,.07.15.29.15.43s-.15.29-.15.44c-.43.57-.21,2-.65,2.73a16.82,16.82,0,0,0-.28,2.38c0,.14.14.36.14.57a10.55,10.55,0,0,1-.07,1.52c.07.28.36.79.72.79.21,0,.29-.36.43-.51.22-.57,1.3-.43,1.37-1.51.07-.21.43-.29.86-.5a.15.15,0,0,1-.14-.15c-.14-1.15,1.58-1.72,1.15-1.72l.36-.87c-.07-.07.72-.93.94-.93,0,0,0-.22-.08-.29-.07-.36.58-.58.51-.87v-.21c0-.07.29.07.29-.07a.29.29,0,0,1-.07-.22c-.08-.14.14-.14.21-.22a.71.71,0,0,0-.07-.21c0-.22.36-.22.36-.29s-.07-.36.29-.36H246c-.14-.94.94-1.22.79-1.73-.14-.93,1.52-1.22,1.44-1.94V44.5l-.07-.07c.15-.07.22-.58.29-.94a.53.53,0,0,0-.07-.28v-.08c.14-.86.65-2,.86-2h.36a1.43,1.43,0,0,0,.36-.07c.22,0,.51.07.87.07h.64c-.07,0,1.73.79,1.88,1.29a1,1,0,0,0,.07.51c.07.57.65.72.65,1s.07.28.07.43c0,.36.14.36.21.72s-.28.57-.14,1.22c0,.29.22.79.29,1.23,0,0,.14.07.14.14a12.35,12.35,0,0,0,.07,1.37.21.21,0,0,1,.08.14s-.08,0-.08.07c.15.8.8,1.3,1,2.6a3.34,3.34,0,0,0,.58,1.36c0,.22.07.44.07.65.07.43.36.87.43,1.37a.44.44,0,0,1-.07.5c.29.22.43.58.86.65s.29.51.58.65a4.29,4.29,0,0,0,1.87.72c.29,0,.43-.14.65-.14.43,0,.58.07.94.07s2.66-.36,2.73-.65a11.41,11.41,0,0,1,1.37.72c0,.43-.5.58-.93.65.07.14.21.21.21.29.07.86-.72.57-1,.79v.07c0,.07-3.24.43-3.53.5-.07,0-.14-.07-.21-.07h-.51c-.72,0-3.74-.5-4-1.73-1.44-.07-1.65-1.51-2.66-2.08l-.15-.29a8.73,8.73,0,0,0-1.15-2.67c-.14-.5-.5-1.58-.57-2a3,3,0,0,0-.08-.58c0-.29-.14-.29-.14-.5A.25.25,0,0,0,251,50s-.14,0-.14-.07a4.54,4.54,0,0,1-.07-.93.74.74,0,0,0-.36-.58c-.87.22-1.3,1.37-1.8,2.23-.72.22-1.73.79-1.73,1.37.14.43.72.29.79.72-.22,0-.14.43-.14.5s-.29.08-.29.15v.14c0,.15-.29.15-.43.22-.87.79-1.3,1.87-2.09,2.45.21,1.15-.72.72-.51,1.8v.21c-.79.36-1.72,1.87-2.37,1.87-.15,0-.22-.14-.51-.21s-.93.65-.93.57c-.44,0-1.52,0-1.44.29a2.26,2.26,0,0,0-.51-.14c-.29,0-.36.14-.57.14s-.36-.29-.58-.29H237c-1.15,0-1.94-1.72-1.94-1.72s-.07-.15-.07-.29c-.22-.15-.58-.22-.58-.43-.07-.44.22-.72.14-1.16a2.48,2.48,0,0,1-.07-.64c-.07-.22.07-.29.07-.44,0,0-.21-.07-.21-.21-.07-.36.36-1.59.36-2v-.07c-.07-.22.21-.29.21-.5v-.22c-.07-.36.29-.65.15-1.58a1.52,1.52,0,0,0-.07-.29c.86-.36.43-1.51.93-1.8-.07.14.43-1.73.87-1.8a.23.23,0,0,0,.07-.15.82.82,0,0,0-.36-.36c0-.57,1.22-1.8,1.08-1.65a4.26,4.26,0,0,0,.29-1H238c1.15,0,.07-2,1.51-2.16a.25.25,0,0,1-.07-.15c-.07-.21.36-.21.36-.64a.37.37,0,0,0-.07-.22c.21,0,.21-.14.5-.14h.15a.24.24,0,0,0-.08-.15.68.68,0,0,0-.07-.36s.22-.5.43-.5h.22c.14,0,0-.5.14-.72,1-.65.08.22,1.45-1.94-.08-.15.79-.44,1.08-1.16,1.22-.57,1.65-1.8,2.66-1.8.07,0,.29.07.36.07,0-.21.65-.57.94-.57s.14.14.21.14a2.81,2.81,0,0,1,1.08-.21c.43,0,.22.21.36.21h.36a3.66,3.66,0,0,1,2.38,1.51c0,.08-.07.08-.07.15s.5.65.5.86c.07.43-.22.72-.14,1.15,0,.15,0,.22.14.29-.79.22-1.15,1.08-1.22,1.08S251,38.88,250.85,38.88Zm9.65,21.25c-.15,0-.15-.08-.08-.08Z"/><path class="cls-1" d="M283.32,58.33c-.36.5-1.08.79-1.44,1.22l-1.15.58v.14c-.07.07-.22,0-.29,0a10.82,10.82,0,0,0-1,.43c-.07.07,0,.36-.36.07a2.82,2.82,0,0,0-1.73,1,.24.24,0,0,1-.14-.07,2.92,2.92,0,0,1-1.08.29c-.15,0-.36,0-.43-.29-.15.43-.65.51-.8.72-.64-.21-1.65-.07-2.08-.21h-.15c0-.22-.21-.15-.43-.22s-.36-.22-.36,0-.29.07-.29.07c-.43-.14-.36-.22-.79-.22-.22-.14-.14-.07-.22-.21-.07.07-.36,0-.36,0-.21-.14-.79-.07-1-.36-.08,0-.15-.36-.15-.43-.29-.22-.65-.15-.86-.44-.07-.14,0-.28-.15-.5s-.14-.07-.14-.14l-.36-.94c-.14-.07-.36-.58-.65-.65.22-.86-.36-1.37-.36-2.52,0-.43.29-.57.15-1.22-.08-.15-.29-.07-.29-.29l.29-1c0-.21-.15-.79.21-.86-.29-.36.29-1.08-.29-1.37a6.24,6.24,0,0,0,.51-.86c.14-.08,0-.22.07-.36s.14.07.14,0-.07-.22,0-.29.08-.72.22-1.15a.61.61,0,0,1,0-.36c0-.15.43-.08.43-.36s.07-.08.07-.36c-.07-.08-.28-.29-.28-.36s.28-.15.36-.22c.14-.29,0-.29,0-.36a1.61,1.61,0,0,1,.14-.58c.29-.28.14-.64.14-1.22.51-.29.65.07.58-.43s.94-1.44,1.58-2a4,4,0,0,1,2.31-2.95c.21-.5.21-1.15.5-1.51a8.75,8.75,0,0,0,2.09-1.8c.07-.07-.14-.07.15-.15h.21a2,2,0,0,1,.79-.64,3.11,3.11,0,0,1,1.23-.51,8.41,8.41,0,0,1,1.36-.07c.22.07.22,0,.29.14l.22.29c.57,0,.65-.29.94-.36.43.36,1.29.72,1.87,1.15a4.3,4.3,0,0,1,.86,1c-.07.07-.07.36,0,.36.07.22.07.22,0,.79a3.9,3.9,0,0,0-.14,1c-.22.29-.51.36-.36.87l-.72.14c-.58.58-.87.22-1.51.51a.53.53,0,0,1-.29.14c-.08.07-.08-.14-.22-.07-.72.21-.43-.94-1.29-.36a4.92,4.92,0,0,0-.15-.94,1.7,1.7,0,0,0-1.51.79,12.56,12.56,0,0,0-1.44,1.73l-.51.14c-.43.29-.5.94-.71,1.3a.91.91,0,0,0-.8.72c0,.29-.72.87-.65.94a1.08,1.08,0,0,0-.07.43,3.31,3.31,0,0,0-1.15,2.66c-.36.72-.14-.07-.5.72-.51.15-.15.87-.22,1.44-.72,1-.36,3-.58,4.18,0,.36.15.29.15.5s-.29.58,0,.87.43,0,0,.57l.07.29c0,.22.36.29.36.65a4,4,0,0,1,.07.94c0,.28.36.36.51.5s.36.43.57.43c.51-.07.36.15.72,0,.07.58,1.3.51,1.08.43a3.29,3.29,0,0,0,1.23,0,4.23,4.23,0,0,0,1.15-.21c1.15-.29.86-.43,1.3-.51.14,0,1.58-.93,1.51-.64,1.08-.44.29-.29,1.87-1.3l.29-.07h.14c.79-.07,2-1.66,2-1.73,1.44-.86,3.24-2.66,3.24-2.52.72-1.44,1.44-1,1.51-2.09a.24.24,0,0,1,.07-.14c.65-.22.72-.58,1.44-1.37.07,0,.07,0,.14-.07.29.07.29-.36.36-.43.58-.58,1.44-1.08,1.73-2,.29-.07.36-.21.51-.21s.07-.08.14-.08.29-.79.5-.64.08-.08.15-.22.07-.07.07,0v.14a.78.78,0,0,0,.07-.36l-.07-.07h.22c.07,0,.21-.65.36-.86s.43-.29.43-.58c0-.07.21-.14.21-.21-.07-.29,1.37-1.88,1.52-1.88a1.06,1.06,0,0,1,.72-1.08c.07,0,.14-.07.21-.14V40a.29.29,0,0,1-.07-.22c0-.07,2.09-2.81,2.16-3-.07.07.36-.58.36-.65,1-.51.58-.94,1-1.66l.58-.93c.14-.36.72-1.3.64-1.52s.36.15.22-.28l.07-.08c.15.08.79-1.15,1.08-.86a.23.23,0,0,1,.15-.07v-.22c.07-.07.28,0,.5.07.65-.07,1.08.08,1,1.44-.87,1.16.5.87-.58,1.23-.07.36,0,.57-.14.79a15.18,15.18,0,0,0-1.15,1.15c-.15.29-.72.8-.44,1,.29,0-.28.29-.5.87-.14-.08-.22.35-.36.35a1.76,1.76,0,0,1-.29-.07v.22c-.14.07-.94,1.37-1,1.44s-.36-.07-.36.29,0,.28,0,.57c0,.51-1.29,0-1.22,1.23-.72.29-.43,1.51-1.37,1.87-.07,0-.14.14-.07.22-.07.36-.5.5-.43.72-.07-.08-.22.21-.29.21v.15a9.43,9.43,0,0,1-1.08,1.65l-.15.22c0,.21-.64.43-.64,1-.36.07-1.16.57-1.08,1l-.08.15c.08.14-.21,0-.21,0-.22-.07-.22.5-.36.72s-.79.21-.87.72c0,.21,0,.29-.07.29a.21.21,0,0,1-.14-.08c0,.29-.36.15-.36.36a.29.29,0,0,1,.07.22c-.58.14-.65.79-1,1-.57.65-1.8,2.37-1.87,2.16-.07.29-.94.5-1,.93,0-.07-.21.08-.21.08-.36-.15,0,.5-.29.36l-.15-.15c0,.07,0,.07.08.15-.08.14-.29.36-.29.43C285.7,56.6,284.4,58,283.32,58.33Z"/><path class="cls-1" d="M306.07,22.25c1-.57-.07-2.23,1.22-2.59a2.09,2.09,0,0,1-.07-.58c0-.36,1.95-2,1.95-3.09a2,2,0,0,0-.07-.51c.43-.21.5-.72.93-.93v-.22c0-.36.58-.94.79-1.37a7.56,7.56,0,0,0,2.88.65c.15.65.87,2.81.87,2.88,0,.29-.43.29-.43.43s.07.36.07.51c0,.36-.58.29-.58.86a.56.56,0,0,0,.07.36c-.5.07-.43.51-.86.51h-.07c0,.21.07.35.07.5a4.1,4.1,0,0,1-.58,1.66c.08.07-.72,1.29-.5,1.36-.22.15-.14,1.37-.36,1.37-.43,0-.07.79-.29.79h-.21a1.19,1.19,0,0,1-.15.22,7.81,7.81,0,0,1,1.44-.22c.07,0,1.51-.28,1.59-.28a13.2,13.2,0,0,0,2.88,0c.14-.44.86.21,1.08.21.07,0,.14-.14.28-.14.58-.29,1.59.14,1.8.14s.08-.07.15-.07,1.22-.07,1.22-.29c.22.29.58.22.87.29s.36-.22.79-.22c.07,0,.07.22.36.22s.14-.22.57-.14h.58c.22-.08.22-.22.36-.22a.69.69,0,0,1,.07.22c.15,0,.94-.15,1-.15s.14.43.22.43a.26.26,0,0,0,.21-.14c.15,0,.29.36.29.58-.07.64-.5.86-.79,1.36l-1-.21c-.79,0-1.15.14-2.88.29-.29,0-.43.07-.58.07s-1.44-.15-1.72-.15c-.58,0-1.08.51-1.88.51-.14,0-.43-.07-.57-.07a8.42,8.42,0,0,0-1.59.28l-1.22.15c.07-.36-2.52.29-2.88.21a5.28,5.28,0,0,0-2.74.22,3.44,3.44,0,0,0,.08.5.08.08,0,0,1-.08.08v.14a23,23,0,0,1-1.94,3.74v.36c0,.94-.72,1.16-.72,2.17v.14a.79.79,0,0,1-.65.29c-.14,0-.29-.08-.43-.08s-.14.15-.14.29v.51c0,.14,0,.14-.08.14a2.86,2.86,0,0,0-.36-.07c-.29,0,0,.72-.29.72h-.14a.24.24,0,0,0-.07.14c0,.22.07.29.07.43a.82.82,0,0,1-.22.15c0,.21.08.36.08.5a1.63,1.63,0,0,0-.29.94v.14c-.65.15-1.08,1.37-1.08,1.8a.65.65,0,0,0,.07.36h-.14c-.29,0-.36.08-.58.08h-.22v.35c0,.51-.07.87-.07,1.37v.44c0,.43-.57.43-.79.72,0,.07.07.21.07.28s0,.08-.07.08-.79,2.52-1.15,2.8a1.72,1.72,0,0,1,.07.51c0,.43-.22.57-.43.93a1.65,1.65,0,0,1,.07.58c0,.36-.07.58-.07.94a.63.63,0,0,0,.14.43,5.21,5.21,0,0,0-1.15,3.6c0,.5.22.86.22,1.29s-.29.22-.51.44c0,.14.07.14.07.28a7.82,7.82,0,0,1,.08,1.23c-.15.14.14.21.21.21.58.08.43-.86,1.37-.72h.22c.07-.43,1,.08,1.15-.36,0-.07.07-.21,0-.21.65-.07,1.65-.51,1.8-1.3,1.22-.65,2.59-2.23,3.24-2h.21V53c.15-.51,1.52-.58,1.52-1.08v-.29c0-.14,1.44-1,1.51-1.22s2-1.44,2.16-1.44a1.54,1.54,0,0,1,1-1c.07,0,.14.07.21.07a.24.24,0,0,0,.08-.14V47.6c0-.07,2.88-2.38,3-2.52.94-1.51,1.3-1.44,2.45-2.81,0,0,1.8-1.51,1.58-1.51a1,1,0,0,1,.43.14c.29,0,.51-1.3.8-1.44.5-.43,1.15-.21,1.36-1.51.94-.22,1.23-.86,1.44-.79s.29.07.44.07,1,.94,1.22.94c-.14.14-.22,1-.43,1.08-.58.93-.22.72-1,1.15-.07.28-.22.14-.36.28l-.65.44-.79.72c0,.14-.22.29-.29.43.29.07-.5.57-.79.79-.14-.07-.14.36-.22.29-.86,0-2.3,2.3-2.3,2.3-1.87-.36-1.94,2.45-2.59,2.38-.15,0-2.45,2.09-2.59,2.09s-.36-.07-.44.29,0,.28,0,.57c-.07.58-1.72-.29-1.8.94-.86.14-.86,1.44-1.87,1.65-.07,0-.07.15-.07.22-.14.36-.36.5-.36.72s-.5.07-.5.36c0,.07-.65.86-1.16.72-.07,0-.21,0-.21-.07-.15.57-1.66,1.65-1.59,1.73s-.07-.08-.14-.15v.15c-.15.43-.79.21-.79.57-.15,0-.15-.07-.22-.07-.72-.14-.58,1-1.37.94-.07.14-.07.14-.07.21,0,.36-.36,0-.43.43-.79.08-1.37,1.3-1.95,1.23-.21.29-.28.86-.72.72h-.21c-.51-.07-.51.36-.72.22s-.43-.08-.58-.08c-.57-.14-1.37.43-2.16.29a1.63,1.63,0,0,1-1.51-1.87c0-.29.14-.29.14-.29s-.14-.22-.14-.36c0-.94.72-1.58.72-3.46A7.75,7.75,0,0,1,296,53c0-.15-.07-.51-.07-.72s0-.07.07-.15h.07c.29,0,.87-4.46.94-4.68a21.49,21.49,0,0,0,1.44-3.52,2.29,2.29,0,0,0-.07-.65c.64-.15.43-1.08,1.15-1.08V42c0-.43-.22-.57-.22-.86.29-.07.94-2,1-1.73.29-1.15-.07-1.51.94-2.52a8.23,8.23,0,0,0,.64-2.67c.08,0,.15.08.22.08.5,0,2.09-5.48,2.09-5.55l.14-.72h-.07c-.07.36-.29,0-.43,0s-.22,0-.51.07a.54.54,0,0,1-.21-.07H303v.15c0,.14-1.36.28-1.44.43s0,.07-.21.14h-.07c-.72.15-1.52.36-3.17.65H298c-.08,0-.15-.14-.22-.14s-.14.43-.43.43-.07-.36-.15-.36a7.39,7.39,0,0,0-3.16,1.29h-.22c-.58-.07-.79.08-1.3,0-.64.22-1,1.52-2.16,1.88-.21,1.22-.57,1.36-1.36,1.29-.29,0-.15.58-.44.51a.84.84,0,0,1-.5-.72v-.29a6.52,6.52,0,0,1-.43-.72v-.36a2.25,2.25,0,0,0-.43-1.23v-.21c0-.22-.22-.43-.22-.72a2.15,2.15,0,0,1,.43-1V28.8a2.16,2.16,0,0,1,2-.79h.36c.5.07.5-.5.86-.57.79-.22,2,0,2.67-.72.07.07.14.07.36.07,1.08.07,1.58-.58,1.87-.58.14,0,0,.15.14.22s0-.15.15-.15a10.3,10.3,0,0,0,1.58,0c.43.08,2.16-.21,1.94-.36.08,0,.22.15.44.22.64-.58,2-.22,2.66-.79.22,0,.36.07.5.07s.15,0,.08.22c.43-.15.93-.08,1.22-.36a.21.21,0,0,0,.22.14h.36c.07,0,.07,0,.14.07a3.25,3.25,0,0,0,.58-.21c.07-.36.36-.87.07-1.3C305.78,24,306,22.25,306.07,22.25Z"/><path class="cls-1" d="M323.78,56.6c1.51-.51.58-.65,2.23-1.66a20.2,20.2,0,0,0,3.39-2.52h.29c.14,0,.14-.21.28-.36.8-.43.8.15,1.59-1.08h.21c.44,0,0-.86.51-.86.14,0,.29,0,.29.21,1.29-.86,2.59-2.37,3-2.37a5.92,5.92,0,0,0,1.08-1.23c.15-.14,1.51-1,1.44-1h.14a.58.58,0,0,1-.07-.29,11.59,11.59,0,0,1,2.67-2.6V42.7c0-.5.65.14.65-.21l.72.21c-.29.14-.29,1.3-.58,1.37s-.29-.07-.43.07-.15.15-.22.22.36.79-.21,1.15c-.36.29-.87.29-.72.36s-1.16,1.44-1.59,2a12,12,0,0,1-2.09,1.8c-.5,0-.93,1-1.22,1.51-.22.14-1.15.57-.94.57h-.14c-.65.72-1,.8-1.66,1.52v.14c0,.29-.72.29-.72.43V54c-.21.36-1.37.36-1.37.93s-1.15.72-1.22.87a14,14,0,0,0-2.88,2.08c-.14.15-.22.22-.22.29v.07c-.43,0-.64.22-1,.22-.15,0-.22.36-.36.29-.94.79-.65.29-1.3.86v.15c-.65,0-2.74,2.08-3.82,1.94-.64-.07-.72.43-.86.43a3.29,3.29,0,0,0-.36-.07c-.14-.14-.29.15-.94.15-.86-.08-1.15-.94-2.16-1.37.08-.51-.36-1.16-.36-1.37v-.29c0-.14-.14-.29-.14-.36s.22-.29.22-.5a5.77,5.77,0,0,0-.15-.72c0-.15.15-.29.15-.58,0-.07-.08-.07-.08-.22s.44-1.08,0-1.58c.29-.36.08-1.51.44-1.73.14-.07.14-.14.14-.21a1.5,1.5,0,0,1,0-.58c.07-.43.22-.43.29-.94v-.43a17.85,17.85,0,0,0,.86-2.09,2,2,0,0,1,0-.64,1.58,1.58,0,0,1,.72-.8c.43-1.8.29-3.52,1.51-4.46,0-.36-.28-.58-.28-.86s.93-1.73,1-2.45c0-.29.15-.22-.07-.65-.07-.29,0-.36.15-.79-.08,0,.5-1.16.43-1.16s-.51-.79-.36-.93.14-1.51.21-1.58c0-.44-.14-.58-.07-1,0,.07.07.07.15.07.28.07.57-.65.86-.65h.29c.14,0,.07-.22.14-.22h.51c.93.08,1.51.36,1.22,1.73.36.51.94,1.8,1.58,2.09a15.39,15.39,0,0,0,0,1.8c-.28.36-.36.79-.64.79a4,4,0,0,1,.07.94,2.16,2.16,0,0,1-.72,1.58l-.07.08c0,.07.14.14.07.43s-.07,0-.07.21A12,12,0,0,1,322,44.65c-.36,1.87-.79,3.52-1.94,4.46,0,.43,1.15,1.73.07,1.66-.14-.08-.43.79-.5.79-.15.21-.08.36-.29.36h-.07a7.28,7.28,0,0,1-.15,1.73c-.14.86-.29,1.72-.57,2.8-.08.58-.29.29-.36.94a1.81,1.81,0,0,0,.57,1.3c.15-.15.72.14.87-.15l.5.15c1.3-.87,1.3-1.3,2.09-1.3C322.34,57.25,323.93,56.6,323.78,56.6Zm6.91-39.46c-.14.36-.5.29-.5.79,0,.22.5.29.58.58s-.29.21-.36.57v.36c0,.51-.65.8-1,1.37-.72-.07-2,.29-2.16-.57h-.65c-.22,0-.07-.22-.14-.22s-.44-.07-.58-.29c-.14,0-.14-.36-.29-.43-.86-.58-.57-.94-.57-1.87-.08,0,.86-1.08,1.22-1.08.14,0,.14,0,.29.21.14,0,0-.5.14-.5H327a1,1,0,0,0,.65-.43c0,.21.29.29.79.29a8.7,8.7,0,0,1,1.37-.37c.07,0,.07.08.07.15V16a9.19,9.19,0,0,0,.86,1Z"/><path class="cls-1" d="M342.43,37.59a.27.27,0,0,1,.22-.07v-.15l-.08-.07c.08-.07.15-.07.44-.07.28-.36,0-2.45.5-2.74a1,1,0,0,0,.29-.14c.14-.07.43-.72.72-.72s.43.07.72.07c.07,0,.36-.36.36-.36s.43.29.72.29c.57,0,.86-.65,1.37-.65s.72.65,1.29.65h.22v.07c0,.72.72.65.72,1.44h.14c2.67,0,3.17,1.3,4.68,1.3,1.08,0,1.59,1.73,2.67,1.73a1.1,1.1,0,0,0,.5-.08c.15.29.65.94.94.94,1.44,0,1.37-.94,2.09.07,0,.36.79.36.43.58S363,41.33,363,41.19a.22.22,0,0,0-.07.14c0,.08.07.43.07.58s-.64.14-.64.72.57,2.3-.29,3c.14,1.23-.94.87-.72,1.88h-.15c-.21,0-.28.79-.64.79s-.65.65-.65.21c-.36.44-1.51,1.44-1.15,1.44-.36.36-1.16-.21-1.16,1.23-.43.07-1.8,2.23-1.8,1.87-.21.22-.57.07-.57.43-1.23.51-2.52,2.16-2.52,3,0,.08.14,0,.14.15,0,.43-.79.79-1.15.79a.39.39,0,0,1-.22-.07c-.65.36.22,1.22-1.37,1.22-.36.07-.64,1-.71,1-1.16,0-1.73,1-2.74,1a14.61,14.61,0,0,1-1.73-.22c-.72,0-.94.51-1.37.58s-1-.58-1.15-.58c-1.3-.65-1.22-.07-2.74-1.58v-.29c0-.14,0-.22-.07-.22h-.14v-.43h-.15v-.5a.71.71,0,0,1-.21.07c-.07,0-.07-.07-.07-.14V57a.27.27,0,0,0-.15-.22c0-.14.15-.21.15-.43-.94-.94-.08-1.94-.94-2.66.22-.58.14-1.59.65-1.95a2.93,2.93,0,0,1-.43-1.08s.21-.14.21-.29-.07-.28-.21-.36c.14-.14,1.15-2.3,1.15-2.3,0-.22-.15-.36-.15-.5a16.9,16.9,0,0,1,1.73-2.38v-.5c0-.51.43-.58.94-2.38,0-.5.43-.65.43-1.15,0-.29-1.08-1.66-.22-1.66C342.21,39,342.07,37.8,342.43,37.59Zm12.31,2h-1.36a12,12,0,0,1-1.66-.14c-.29,0-.29.22-.43.22s-.36-.08-.44-.08a1.36,1.36,0,0,1-.79.15,1.49,1.49,0,0,0-1.08-.5c-.43,0-1.51,2.59-1.58,2.59s-.36.29-.29.36c-.65.21-.29.64-.94.93,0,.58-.28.87-.28,1.08,0,0-1.59,3.89-2.88,5a2.13,2.13,0,0,0,.21,1c-.57.15-1,1.51-1,1.37,0,.5.08.65.08,1,0,.65-.29.43-.29,1.08,0-.15.57,4.46,1.65,4.46.65,0,1-.57,1.08-.57s.15.07.36.07c1.08,0,.72-.65,1.59-.65.14,0,.36.29.86.29V57c0-1.3,1.8-1.3,2.16-1.59,1.73-1.22,2-2.95,4.54-4.17a1.68,1.68,0,0,0,.36-1.15v-.22c1.37-.72,1.94-2.59,2.95-3.82-.29-.21.22-1,.22-1.65,0-.87-.44-1.59-.22-2.16-.29-.29-.22-.87-.57-1.37C355,39.17,354.67,39.6,354.74,39.6Z"/><path class="cls-1" d="M394.63,54.44c-.07.72.65,1.08.94,2.73a2.82,2.82,0,0,0,1.51.51c1.8,0,1.51-.36,2.88-.36a11.48,11.48,0,0,0,1.08-.43c1.15.14,1.58-1.23,2.38-1.52a4.79,4.79,0,0,0,2.08-.79c.65.29.51.79.8,1.15-1.23.58-2,1.44-3.39,2-1.29.29-1,.93-2,1.58h-.22c-.22,0,0,.22-.14.22h-.29v.14h-.43v.15a.07.07,0,0,1-.08.07c-.07,0-.14-.07-.21-.07s-.22.14-.65.21h-.29a9.81,9.81,0,0,1-2.88.65,15.2,15.2,0,0,1-1.73-.36c-.28-.07-.14-.58-.36-.58a3.71,3.71,0,0,0-.5.08,19.17,19.17,0,0,1-1.58-2.6c.07-.72-.87-3.6-.8-4.32s.44-.86.51-1.36c.36-1.37,0-1.44.57-3v-.93c.08-.8.29-1.16.36-1.88.08-.36-.14-.36-.14-.5s.43-.22.5-.65-.28-.43-.21-.86a3.77,3.77,0,0,0,.43-1.44,2.84,2.84,0,0,0-.29-1.87c0-.58-.21-1.23-1.08-1a.54.54,0,0,0-.29-.15c-1,0-1.94,1.66-3,1.8-.07.44-.43.44-.43.79-.07.15,0,.29,0,.65-.07.58-1.59,1.52-2.16,1.88a1.69,1.69,0,0,1-.07.36c0,.64-.8.57-.87,1.22a.24.24,0,0,1,.07.14c-1.44.29-1.51,2.09-2.37,2.31-.15,2.16-2.45,3-2.74,3.89-.14.21-1.08,1.51-1.58,1.51h-.15c.15.21.07.36.07.57,0,.51-.64.8-.79,1.52a.82.82,0,0,0,.07.36h-.07c-.36,0-.79.72-.79.64,0,.22.07.36.07.51l-.14.29c-.07,0-.07-.08-.07-.08s-.08.08-.08.22v.14h-.14c-.07,0-.07,0-.07.08v.21l-.07.07h-.15c-.07,0-.93,1.23-1,1.23h-.28c-.15,0-.08.07-.08.14s-.07,0-.21-.07-.07.14-.15.22c-.36.14-.86,0-1.22.14a5.52,5.52,0,0,0-1.58.94c-.87-.51-.94,0-1.52-1.23-.28-.14-.79-.14-.79-.43a1.06,1.06,0,0,0,.15-.43c0-.22-.22-.36-.15-.65,0-.5.15-.5.29-.79a4.89,4.89,0,0,1-.14-.65s.14-.07.14-.14-.07-.08-.07-.22a2.32,2.32,0,0,1,.07-.65c0-.29-.22-.43-.14-.72a6.32,6.32,0,0,0,.64-2.16c0-.29.08-.57.08-1a9.17,9.17,0,0,1,.93-2.3h-.07v-.29c0-.14.22-.14.36-.43a12.64,12.64,0,0,1,.5-2.45c.22-.14.22,0,.36-.21s.08-.8.44-.87c-.29-.57,0-1.51,0-2.3l.21-.15c0-.36.22-.43.15-.43C373.17,42.05,374,39,374,39a12.6,12.6,0,0,1,1-2.59c.36-2,2.37-3,2-3a2.2,2.2,0,0,1,.94-.14c.72,0,1.44.29,2.09.29a.79.79,0,0,0,.43.79v.22c0,.29-.07.64-.07.86-.07,1-1.08,1.3-1.16,1.87,0,.22-.07.58-.07.8,0,0-.5,1.43-.93,2.59v.29c-.08.14-.22.28-.22.36a1.9,1.9,0,0,0,0,.64c-.58.22-.86,1.08-1.08,2-.58.14-.72,1.8-.86,2.66a.28.28,0,0,0,.07.22c-.29.21-.72.21-.79.65,0,.28.28.36.21.57-.07.58-.57.94-.79,1.59-.36,1,0,2.37-.86,3v.21c0,.15-.08.22-.15.22s-.29-.22-.36-.22c-.5,0-.57.58-.57.8a1.58,1.58,0,0,0,.36,1.22c.5-.07,2.8-2.95,3.67-4.82H377c.5.07.43-.36.86-.44v-.14c0-.65.94-.94,1-1.37a.35.35,0,0,1,.07-.21h.15V47.6c.07-.43,1.15-1.23,1.08-1.3h.14a61.86,61.86,0,0,1,4.47-4.54c.14-.28.43-.43.65-.64.36-.72.86-2,1.51-2a.31.31,0,0,0,.21.07c.36,0,.15-.57.36-.65,1.66-.43,2.16-2.44,3.68-3.09l1.51-1.23c.86,0,1.29-.57,2.16-.64-.07.93.65.86,1.37,1.08a10,10,0,0,1,.36,2.59v.21c.36.29.28,1.23.72,1.23,0,.36-.22.43-.29.86s.36.58.29,1c-.08,1-.72,1.59-.8,2.81a2.37,2.37,0,0,1,.15.65c0,.43-.51.65-.51,1.15-.07.29.15.43.15.65s-.22.5-.29.86a1.85,1.85,0,0,1-.07.58,2.3,2.3,0,0,1-.94,1.65,8.55,8.55,0,0,1,.15,1.23c-.08.72-.58.72-.65,1.29,0,.36.29.29.29.51a1.25,1.25,0,0,0-.29.43c0,.14.21.36.21.58s0,.64-.07,1.08Z"/><path class="cls-1" d="M422.64,59.19c0,1.08-.22,1.66-.87,1.8a.49.49,0,0,0-.28-.14c-.07,0-.07.21-.15.21a.07.07,0,0,1-.07-.07c-.5.07-.5.58-.86.72-.72,0-1.3-.14-1.66-.14h-.29v-.29c0-.22-1.51-1-1.37-1.08h-.21s-.36-.65-.58-.72a3.34,3.34,0,0,0,.07-.79c0-.44-.07-.8-.07-1.23a5,5,0,0,1,.29-1.22v-.15l.07.08c.15,0,.15-.29.22-.29s.29.29.43.29.14-.22.36-.22.29.07.43.07a.39.39,0,0,0,.36-.14l-.07-.07c0-.08.07-.08.14-.08.22,0,.36.15.58.15.58-.07,1-.22,1.37-.22.57,0,1.22.72,1.94,1.08A23.48,23.48,0,0,1,422.64,59.19Z"/><path class="cls-1" d="M462.45,57.25s1-.15,1.8-.29,1-1,2.31-.87c.86-.57,1.73-.36,2.66-1.44a.22.22,0,0,0,.15.08c.21.07.36-.22.5-.22a.69.69,0,0,0,.22.07c.07,0,.07,0,.14-.07a.24.24,0,0,0-.07-.14c.14,0,.65-.36,1.08-.51a8.5,8.5,0,0,1-.07-1.44v-.93a9.25,9.25,0,0,1,.79-3.24c0-.08-.14-.22-.14-.36s.64-.8.64-1.37c.08-.36.08-1.3.22-1.3h.43c0-.14-.07-.14-.07-.29a1.38,1.38,0,0,0,.29-.79v-.29c.79,0,1.29-1.87,1.37-2.23,1.22-.21,1.36-1.8,1.94-1.8a3.29,3.29,0,0,0,.36.07c0-1.87,2.59-3.53,4-4.82a7.6,7.6,0,0,1,3.6-2.23c.07,0,.22.14.36.14s.15-.29.43-.29A.79.79,0,0,0,486,33a1.8,1.8,0,0,1,1.08-.29c1.15,0,3.46,3,3.46,3.89.29.29.79.43,1.15.72,0,.14-.07.22-.07.29v1.87c0,.29-.15.51-.36.51H491v.28c0,.58-.14.8-.14,1.44h-.29c-1.3,0-.43.65-.94,1.52h-.14c.07,0-2.09,2-2.09,2.08v.29c-1.37,0-1.73,1.23-2.38,2-.07.14-.79,1-1.08,1h-.28c-.22,0-.72.44-1.23.87a1.53,1.53,0,0,1-.14.21.24.24,0,0,0-.15.08l-.72.72a14.35,14.35,0,0,1-2.3,1.8h-.36c-.22,0,0,.21-.14.21h-.29v.22c-.22.07-.79,0-1,.14s-.22.15-.29.29l-.07.07a.64.64,0,0,1-.43.43c-.36.36-.65.72-.65.65a13.65,13.65,0,0,1-.29,1.51c0,.15.43-.07.29.08.14.57,1.51,1.44,1.3,1.36a5.81,5.81,0,0,0,1.29.08c.51,0,.94-.08,1.23-.08,1.44-.28,2.66-.86,3.09-.86.15,0,.22.07.22.36.29,0,.43-.58.65-.58h.36c0-.07-.08-.14-.08-.21l.08-.07a.71.71,0,0,0,.21.07c.07,0,.07-.07.07-.22,1.3-.29,2.16-.86,3-.86h.28s1.3-.72,1.95-1,.43-1.15,1.73-1.15c.79-.65,1.65-.58,2.37-1.73a.25.25,0,0,0,.15.07c.29,0,.36-.29.5-.29h.22c.07,0,.07,0,.07-.07v-.14c.29-.07,1.08-.87,1.44-.87h.14c.36,0,2.09-2,2-2h.36a.25.25,0,0,1-.07-.15c0-.07.07-.07.14-.07h.15a21.5,21.5,0,0,0,2.59-2.3h.29c.07,0,.07,0,.07-.07v-.36h.14A3.85,3.85,0,0,0,503.21,43c1.15,0,1.87-1.66,1.87-1.51a1.76,1.76,0,0,0,.58.14c.29,0,.57-.14.86-.14,0,.14.15.14.29.14.58.14-1.66,1.87-.86,1.87.07,0-.29.72-.22.65s-.72.79-.86.79c-2,.65-.36.8-1.16.8-.21.21-.57,1.36-1.08,1.36h-.21c.07,0-1.3.87-1.37.94a.56.56,0,0,1,.07.29c0,.43-.57.57-.86.72-.58.43-1.15,1-1.23,1-.57,0-.93.79-1.08,1.44-.86,0-.86.64-1.58.93a.35.35,0,0,1-.22-.07c-.72,0-.57,1.15-1.22,1.15-.43,0-.86.58-1.15.87a5.24,5.24,0,0,0-2.67,1.44c-.93.21-.57,0-1.36.79h-.22c-.36,0-.72.79-1.08.79h-.29v.14h-.36c-.22,0,.07.22-.22.22l-.14-.07-.07.07a.35.35,0,0,0,.07.22H487v.21h-.29c.07,0-1.15.22-1.15.36a.28.28,0,0,0,.07.22.93.93,0,0,0-.43-.07c-.51,0-.79.36-1.08.64h-.43v.15h-.29a3.5,3.5,0,0,1-.72.07h-.29c-.36,0-.65.58-1.08.58a.73.73,0,0,1-.22-.08,3.93,3.93,0,0,1-1.22.15.64.64,0,0,1-.58-.29c-.14.36-.72.36-.93.65A13,13,0,0,0,476,60.2v-.07c0-.22-.21-.22-.43-.22s-.36,0-.36.22v.07c-.5-.22-.58-.65-1.15-.72-.8-.22-.94-1.23-1.59-1.23-.5,0-.43-1.51-.72-1.8a.24.24,0,0,1-.21.08.3.3,0,0,1-.22-.08c-.57-.14-.57.94-1.22.87-.36-.07-.87.43-1.08.65a4.4,4.4,0,0,0-2.59.93c-.94.22-.51-.07-1.45.72l-.07-.07c-.36-.07-.93.58-1.29.5l-.29.08.07.07H463c-.14,0,.14.14-.07.14l-.15-.07h-.07a.35.35,0,0,0,.07.22l-.43-.08v.15l-.07.07c-.07,0-.14-.07-.22-.07s-.36-.07-.57-.07c-.07.21,0,.36-.29.36s-.14.07-.29.07-.43.14-.79.14c0,0-2.88.15-3.6-1.22a.74.74,0,0,1,.07-.29l-.07-.07s-1.3-.58-1.3-1.08v-.22c0-.14-.07.07-.07-.14v-.22c0-.07-1-2.59-1-2.88s.15-.43.15-.57a1,1,0,0,0-.15-.36v-.29a6.56,6.56,0,0,1-.36-1.8,12.09,12.09,0,0,1,.29-1.37c0-.29-.21-.65-.21-1s.5-1,.5-1.51c0-.29-.14-.43-.14-.72,0-.07.07-.5.07-.86a2.13,2.13,0,0,0,.07-.58,8.41,8.41,0,0,0,.72-.94,14.4,14.4,0,0,0-.07-1.8c.57-.43.36-2.59.57-3.81a.55.55,0,0,0-.28-.15c-1,0-1.8,1.66-2.88,1.8,0,.44-.36.44-.36.79-.08.15.07.29.07.65,0,.58-1.44,1.52-2,1.88v.36c0,.64-.79.57-.79,1.22a.24.24,0,0,1,.07.14c-1.37.29-1.3,2.09-2.16,2.31,0,2.16-2.23,3-2.45,3.89-.07.21-.93,1.51-1.44,1.51h-.14a.87.87,0,0,1,.14.57c0,.51-.57.8-.65,1.52a.73.73,0,0,0,.08.36h-.08c-.36,0-.72.72-.72.64,0,.22.08.36.08.51a.73.73,0,0,1-.08.29c-.07,0-.07-.08-.07-.08s-.07.08-.07.22v.14h-.14c-.08,0-.08,0-.08.08v.28h-.14c-.07,0-.86,1.23-.94,1.23h-.28c-.15,0-.08.07-.08.14s-.07,0-.21-.07-.07.14-.15.22c-.36.14-.86,0-1.22.14a4.79,4.79,0,0,0-1.44.94c-.94-.51-.94,0-1.66-1.23-.28-.14-.79-.14-.79-.43s.07-.29.07-.43-.21-.36-.21-.65c0-.5.14-.5.21-.79a4.89,4.89,0,0,1-.14-.65s.14-.07.14-.14-.14-.08-.14-.22v-.65c0-.29-.22-.43-.14-.72a7,7,0,0,0,.43-2.16v-1a7.56,7.56,0,0,1,.72-2.3h-.07v-.29c0-.14.21-.14.28-.43.22-.79,0-1.8.36-2.45.15-.14.22,0,.29-.21s0-.8.36-.87c-.29-.57-.07-1.51-.14-2.3.07-.08.14-.08.14-.15,0-.36.22-.43.15-.43.64-.29,1.22-3.31,1.22-3.31a18.27,18.27,0,0,1,.79-2.59c.22-2,2.16-3,1.8-3a1.76,1.76,0,0,1,.87-.14c.72,0,1.51.29,2.16.29a.84.84,0,0,0,.5.79V35.5c0,1-1,1.3-1,1.87v.8s-.36,1.43-.72,2.59v.29c0,.14-.14.28-.14.36a1.11,1.11,0,0,0,.07.64c-.58.22-.79,1.08-.94,2-.57.14-.57,1.8-.64,2.66a.28.28,0,0,0,.07.22c-.29.21-.72.21-.72.65,0,.28.29.36.29.57-.08.58-.51.94-.65,1.59-.29,1,.14,2.37-.65,3v.21c0,.15-.07.22-.14.22s-.29-.22-.36-.22c-.51,0-.51.58-.51.8a1.81,1.81,0,0,0,.51,1.22c.43-.07,2.52-2.95,3.24-4.82h.07c.5.07.43-.36.79-.44v-.14c0-.65.86-.94.94-1.37v-.21H444V47.6c0-.43,1.08-1.23,1-1.3h.14a49.07,49.07,0,0,1,4-4.54c.14-.28.43-.43.64-.64.29-.72.65-2,1.3-2a.32.32,0,0,0,.22.07c.36,0,.14-.57.36-.65,1.58-.43,1.94-2.44,3.38-3.09a11.19,11.19,0,0,0,1.37-1.23,2.05,2.05,0,0,0,.79.15c.29,0,.36-.15.58-.15.43.08.72.51,1.29.51a.8.8,0,0,0,.36-.07c.51.93.51,1.87.72,4.17,0,.51.22.51.22.79s-.22.8-.43.87c.14.14.14.36.14.65v.36h-.07c-.22,0-.43.5-1.23.72,0,.43.22.5.22.72s-.07.14-.07.21c-.43.44-1.08,2.6-1.15,2.38,0,.29.14.5.14.72s-.22.29-.22.43.08.58.08,1.23-.22,1.29-.58,1.36c0,.15.22.22.22.36s-.22,0-.22.22c0,.72.5,1.94.5,2.3a1.46,1.46,0,0,1-.14.65,6,6,0,0,0,.58,1.87c-.08.15-.08.15-.08.22a3.86,3.86,0,0,0,.87,1.51c.14.72,1.08.94,1.87,1,.07,0,.5.07.65-.07Zm23.12-20.81c-.22.21-.07.57-.29.79s-.36,0-.58.21-.43.73-.79.8-.36-.44-.72-.44c-.65,0-1.44,1.73-2.09,2.17-.79-.08-.72.64-1.58.64a2.6,2.6,0,0,0-.5,1.23c0,.36.07.57.07.86,0,.58-.58.29-.58.65v.36c0,.29-.57.65-.79.79a1.22,1.22,0,0,0-.36-.14c-.65,0-.79,1.87-.79,2.23s-.58,1.22-.51,1.51a10.94,10.94,0,0,0-.43,2.45,1.29,1.29,0,0,0,.51.07c1.22,0,3-2.23,3.67-2.59a32,32,0,0,0,3.24-2.81c.43-.43,1.08-1.22,1.65-1.22h.36c.36-1.66,2.52-2.16,2.52-2.81s.72-.86.72-1.22a2.24,2.24,0,0,0-.21-.65c0-.36.21-.58.21-.87,0-.65-1-.93-1.65-1.15-.07.29-.15-.43-.15-.58,0,.08-.21.08-.21.08C485.86,37.09,485.86,36.29,485.57,36.44Z"/><path class="cls-1" d="M514.87,25.28v.28c0,.65-.22,1.59-.79,1.59,0,.07.07.14.07.21,0,.29-.29.58-.43.87v.36c0,.5-.58.65-.58,1.29a.19.19,0,0,0,.22.22c.36,0,.5-.43.72-.43.43,0,.36.43.72.43.65,0,.93-.58,1.37-.79a19.22,19.22,0,0,0,5.11-.65c2.09-.72,2.45-.29,4.68-1.22h.14c.15,0,.51.07.72.07s.43-.22.79-.29c.08,0,.22.07.29.07.22,0,.22-.21.51-.21s1.08.36,1.72.36h.15v.14c0,.43.36.58.36,1,0,.79-1.08.86-2.23,1.51-.15.07-.22.14-.29.14s-.07-.14-.36-.14-.51.36-.79.43-.58-.21-.87-.21c-.93,0-2.16,1-3.38.79-.58.72-3.1.21-3.68.79-.93.94-4,1.37-4.24,1.44s-.22.07-.36.07-.51-.07-.72-.07-.08.22-.22.22-.21-.08-.21-.15v-.07c-.51.14-.87.72-1.3.72-.15,0-.22,0-.29-.07v.21c0,.65-1.22,3.1-1.8,3.24v1.44c-.86.8-1,4.25-1.73,4.25a1.89,1.89,0,0,1,.07.58c0,1-1.15,2-1.15,3.74-.07.65-.36,1-.43,1.73a1.19,1.19,0,0,1,0,.51,1.6,1.6,0,0,1-.14.43c0,.14-.15.43-.15.65L506.16,52c-.22.58-.08.72-.29,1.22-.15.8.21.8.29,2,.07.58-.22.94-.22,1.3.14,1.65.5,2.52,1.3,2.73,1.29.94,2.52.07,3.67.07.07.08.93-.43,1-.43.93.15,1.37-1.37,2.08-1.65a3.56,3.56,0,0,0,1.73-.8c.58.29,1.08.51.65,1.16a5.23,5.23,0,0,1-2.59,2.3,9.88,9.88,0,0,1-1.73,1.66h-.22c-.14,0,0,.21-.07.21h-.29v.15h-.28v.14a.07.07,0,0,1-.08.07c-.07,0-.14-.07-.21-.07s-.22.15-.65.22H510a6.44,6.44,0,0,1-2.23.5c-.21,0-1.15-.29-1.44-.36-.93-.29-2.81-.86-2.37-2.38h-.15c-.93-.28-.65-2.52-1.22-3.16a.27.27,0,0,1,.07-.22c.22-.58-.14-.86,0-1.58.07-.15.14-.15.14-.29,0-1.3-.43-1.44.08-3.17.07-.07.07-.07.07-.14,0-.29.21-.65.14-.94s.58-1.22.36-1.8c-.14-.79.79-2.16.79-2.38a16.07,16.07,0,0,1,.22-1.8c0-.14.43-.14.43-.43s-.14-.21-.14-.29.86-2.44,1.44-2.52c0-.57,0-2.45.79-2.66v-.36c0-1.73,1.22-2.09,1.22-3.75,0-.43-.14-.57-.5-.57-.58,0-1.08.21-1.37.21h-.72a.9.9,0,0,0-.86.36,29.15,29.15,0,0,0-3-.36,4.45,4.45,0,0,0-1.08.15c-.28-.94-3.67.14-3.88-1-1.59,0-1.52-.14-2-.79h-.36a2.19,2.19,0,0,1-1.44-.43c.14-1.59,0-3,1.51-3a1.46,1.46,0,0,1,1.08.58c1.37.43,3,.36,3.46,1a1.1,1.1,0,0,1,.5-.08c.65,0,1.44.29,2.16.29s1.73-.14,2.31-.21c.07.28.21.36.43.36.43,0,.93-.29,1.37-.29a1.08,1.08,0,0,1,.43.14c1.08-.14,1.87-.14,3.24-.36,1-.72,1-2.66,1.8-3.24,0-.14-.07-.21-.07-.29a2.65,2.65,0,0,1,1-2.23v-.29l.07.08c.07,0,.07-.08.07-.15v-.14a25.22,25.22,0,0,1,1.37-3.53v-.22a.64.64,0,0,1,.5-.21v-.22c0-.65.36-.93.36-1.58v-.22c.5-.14.94-2.37.94-2.3,0-.15.07-.36.14-.8a.24.24,0,0,1-.07-.14c0-.72.5-2.37.65-3.6a6.24,6.24,0,0,0,2-.86c.79,0,.87.72,1.73.72.07,0,.22,0,.22-.08a2.35,2.35,0,0,1,1.15,1.8,2.88,2.88,0,0,1-.43,1.44,3.87,3.87,0,0,1,.14.65c0,.94-.65,1.59-.65,1.8V17c0,.57-.79,1.15-.79,1.43v.29c-1.22.15-1.8,1.87-2.3,3.24C515.66,22,515.88,25.28,514.87,25.28Z"/></g></g></svg>