<svg xmlns="http://www.w3.org/2000/svg" viewBox="0 0 288.4 68.7"><defs><style>.cls-1{fill:#232222;}</style></defs><title>title1_1</title><g id="レイヤー_2" data-name="レイヤー 2"><g id="レイヤー_2-2" data-name="レイヤー 2"><path class="cls-1" d="M10.3,67.7H0V1H17.1c6.7,0,10.9,1.3,14,4.3,3.6,3.4,5.3,8.4,5.3,15.5S34.7,33,31.1,36.4c-3.1,3-7.3,4.3-14,4.3H10.3Zm4.5-36.5c8.3,0,10.9-2.5,10.9-10.4S23.1,10.5,14.8,10.5H10.3V31.2Z"/><path class="cls-1" d="M115.2,46.5c0,7.5-1.1,12-3.8,15.8-3,4.2-8,6.4-14.4,6.4s-11.4-2.2-14.4-6.4c-2.7-3.8-3.8-8.3-3.8-15.8V22.2c0-7.5,1.1-12,3.8-15.8C85.6,2.2,90.6,0,97,0s11.4,2.2,14.4,6.4c2.7,3.8,3.8,8.3,3.8,15.8Zm-26.1-.2c0,5.3.3,7.1,1.3,9.1a7.85,7.85,0,0,0,13.2,0c1.1-2.1,1.3-3.7,1.3-9.1V22.4c0-5.4-.2-7-1.3-9.1a7.85,7.85,0,0,0-13.2,0c-1,2-1.3,3.8-1.3,9.1Z"/><path class="cls-1" d="M179,67.7H168.7V1h16.1c6.1,0,10,1.2,13.2,4,4,3.4,6,8.5,6,15.1,0,8.4-3,14.2-9,17.3l9.8,30.3H194l-8.8-27.4H179Zm3.8-36.9c4.4,0,6.4-.5,8-2.1s2.5-4.4,2.5-8.1-.8-6.3-2.5-8-3.6-2.1-8-2.1H179V30.8Z"/><path class="cls-1" d="M275.4,67.7H265.1V10.5H252.2V1h36.2v9.5h-13Z"/></g></g></svg>