<svg xmlns="http://www.w3.org/2000/svg" viewBox="0 0 598.49 68.7"><defs><style>.cls-1{fill:#232222;}</style></defs><title>title_webgl</title><g id="レイヤー_2" data-name="レイヤー 2"><g id="レイヤー_2-2" data-name="レイヤー 2"><path class="cls-1" d="M38.8,67.7,30.2,22.5,22.1,67.7H12.5L0,1H10l7.6,43,8-43h8.9l8.8,43L50,1h9.7L48.4,67.7Z"/><path class="cls-1" d="M107,10.5H87.1V28.1h14.7v9.5H87.1V58.2H107v9.5H76.8V1H107Z"/><path class="cls-1" d="M124.1,1h15.4C152,1,159,7.1,159,17.9c0,7.9-3.5,12.6-11,14.9,9,2.6,12.6,7.2,12.6,16,0,11.8-7.4,18.9-19.8,18.9H124.1Zm14,27.2c6.3,0,10.4-3.7,10.4-9.4a8.36,8.36,0,0,0-2.5-6.2c-1.7-1.5-3.8-2.1-7.7-2.1h-3.9V28.2Zm1.5,30c6.6,0,10.3-3.4,10.3-9.4,0-6.7-4.6-11.1-11.8-11.1h-3.7V58.2Z"/><path class="cls-1" d="M215.4,34.6V67.7h-5.3L208.2,62c-3.4,4.8-7.1,6.7-12.5,6.7-6.1,0-11.2-2.9-13.8-7.8-2.2-4.3-2.9-8.6-2.9-17.8V24.7c0-10.6.8-14.4,3.9-18.5,2.9-4,8-6.2,14.1-6.2,7.3,0,12.7,3.1,15.7,8.9,1.7,3.3,2.4,7.4,2.4,13.8H204.8c0-9.2-2.3-13-7.9-13a6.52,6.52,0,0,0-6.1,3.4c-1.2,2.2-1.5,4.2-1.5,9.6V43.1c0,5.5.3,8.4,1.1,10.9a7.2,7.2,0,0,0,7,5c5.4,0,7.7-3.9,7.7-13.2V43.1h-8.5V34.6Z"/><path class="cls-1" d="M244.8,58.2h20.5v9.5H234.5V1h10.3Z"/><path class="cls-1" d="M332.1,19.6c-1.6-6.6-4.6-9.9-8.8-9.9a6.6,6.6,0,0,0-6.7,6.8,10,10,0,0,0,2.8,6.7c1.7,1.9,1.7,1.9,8.8,7.3,5.6,4.4,7.7,6.3,9.9,9a19.49,19.49,0,0,1,4.3,12.2c0,10.1-7.4,17-18.3,17-11.4,0-18.1-6.1-20.2-18.8l9.9-2.9c1.3,8,4.8,12,10.3,12a7.24,7.24,0,0,0,7.6-7.6c0-4.2-2.1-6.9-9.9-13-9.3-7.3-9.7-7.7-12.2-10.9a18.08,18.08,0,0,1-3.7-11.1c0-9.6,7.2-16.4,17.4-16.4,9.5,0,15.9,5.7,18.7,16.7Z"/><path class="cls-1" d="M369.9,28.6,384.8,1h11.1L381.8,25.2l16.1,42.5H386.6L375.4,36.2l-5.5,9.3V67.7H359.6V1h10.3Z"/><path class="cls-1" d="M444.2,10.5H424.29V28.1H439v9.5H424.29V58.2H444.2v9.5H414V1H444.2Z"/><path class="cls-1" d="M480.09,67.7h-10.3V10.5h-12.9V1H493.1v9.5h-13Z"/><path class="cls-1" d="M533.89,22.7V21.3c0-7.7-2.69-11.6-7.8-11.6A6.52,6.52,0,0,0,520,13c-1.3,2.2-1.6,4.2-1.6,9.6V44.8c0,5.1.3,7.7,1.1,9.9a6.93,6.93,0,0,0,6.6,4.3c3.8,0,6.3-2.2,7.41-6.6.39-1.7.5-3.2.6-8.1h10.4v2.3c0,14.5-6.3,22.1-18.3,22.1-6.71,0-12-2.6-14.91-7.4-2.5-4.1-3.2-8-3.2-17.9V24.7c0-10.6.8-14.3,3.9-18.5,2.9-4,7.9-6.2,14.1-6.2C537.5,0,544.2,7.6,544.2,20.7v2Z"/><path class="cls-1" d="M573.49,38.3V67.7h-10.3V1h10.3V28.8h14.7V1h10.3V67.7h-10.3V38.3Z"/></g></g></svg>