<svg xmlns="http://www.w3.org/2000/svg" viewBox="0 0 80.1 68.7"><defs><style>.cls-1{fill:#232222;}</style></defs><title>title10</title><g id="レイヤー_2" data-name="レイヤー 2"><g id="レイヤー_2-2" data-name="レイヤー 2"><path class="cls-1" d="M19.3,67.7H9.6v-51H0V10.6C5.4,8.3,11.2,4.1,13.6,1h5.7Z"/><path class="cls-1" d="M80.1,46.5c0,7.6-1,12-3.5,15.8-2.8,4.1-7.5,6.4-13.2,6.4s-10.5-2.3-13.3-6.4c-2.5-3.8-3.5-8.3-3.5-15.8V22.2c0-7.5,1-12,3.5-15.8C52.9,2.3,57.6,0,63.4,0S73.8,2.3,76.6,6.4c2.5,3.8,3.5,8.2,3.5,15.8ZM56.3,48.6c0,4.6.2,5.9,1.2,7.8a6.34,6.34,0,0,0,5.9,3.1,6.29,6.29,0,0,0,5.8-3.1c1-1.9,1.2-3.1,1.2-7.8V20.1c0-4.7-.2-5.9-1.2-7.8a6.29,6.29,0,0,0-5.8-3.1,6.34,6.34,0,0,0-5.9,3.1c-1,1.9-1.2,3.1-1.2,7.8Z"/></g></g></svg>