<svg xmlns="http://www.w3.org/2000/svg" viewBox="0 0 474.7 66.7"><defs><style>.cls-1{fill:#232222;}</style></defs><title>title_happ</title><g id="レイヤー_2" data-name="レイヤー 2"><g id="レイヤー_2-2" data-name="レイヤー 2"><path class="cls-1" d="M10.3,37.3V66.7H0V0H10.3V27.8H25V0H35.3V66.7H25V37.3Z"/><path class="cls-1" d="M77.3,66.7H67v-26L52,0H63.4l8.9,28.2L81.5,0H92.7L77.3,40.7Z"/><path class="cls-1" d="M109.4,0h15.4c12.5,0,19.5,6.1,19.5,16.9,0,7.9-3.5,12.6-11,14.9,9,2.6,12.6,7.2,12.6,16,0,11.8-7.4,18.9-19.8,18.9H109.4Zm14,27.2c6.3,0,10.4-3.7,10.4-9.4a8.36,8.36,0,0,0-2.5-6.2c-1.7-1.5-3.8-2.1-7.7-2.1h-3.9V27.2Zm1.5,30c6.6,0,10.3-3.4,10.3-9.4,0-6.7-4.6-11.1-11.8-11.1h-3.7V57.2Z"/><path class="cls-1" d="M175.3,66.7H165V0h16.1c6.1,0,10,1.2,13.2,4,4,3.4,6,8.5,6,15.1,0,8.4-3,14.2-9,17.3l9.8,30.3H190.3l-8.8-27.4h-6.2Zm3.8-36.9c4.4,0,6.4-.5,8-2.1s2.5-4.4,2.5-8.1-.8-6.3-2.5-8-3.6-2.1-8-2.1h-3.8V29.8Z"/><path class="cls-1" d="M229.2,66.7H218.9V0h10.3Z"/><path class="cls-1" d="M249.4,0h16.3C278.8,0,285,6.7,285,20.9V45.8c0,14.2-6.2,20.9-19.3,20.9H249.4Zm15.4,57.2c7.3,0,9.9-3.8,9.9-14.2V23.7c0-10.5-2.6-14.2-9.9-14.2h-5.1V57.2Z"/><path class="cls-1" d="M340.1,52.2l-2.7,14.5H327.29L340.1,0h14.1l13.5,66.7H357.1l-2.8-14.5Zm7-39.4-5.4,29.9h10.9Z"/><path class="cls-1" d="M395.09,66.7h-10.3V0h17.1c6.71,0,10.9,1.3,14,4.3,3.6,3.4,5.3,8.4,5.3,15.5s-1.7,12.2-5.3,15.6c-3.11,3-7.3,4.3-14,4.3h-6.8Zm4.5-36.5c8.3,0,10.91-2.5,10.91-10.4S407.89,9.5,399.59,9.5h-4.5V30.2Z"/><path class="cls-1" d="M448.59,66.7h-10.3V0h17.1c6.71,0,10.9,1.3,14,4.3,3.6,3.4,5.3,8.4,5.3,15.5S473,32,469.4,35.4c-3.11,3-7.3,4.3-14,4.3h-6.8Zm4.5-36.5c8.3,0,10.91-2.5,10.91-10.4S461.39,9.5,453.09,9.5h-4.5V30.2Z"/></g></g></svg>