<svg xmlns="http://www.w3.org/2000/svg" viewBox="0 0 418.18 61.71"><defs><style>.cls-1{fill:#fff;}</style></defs><title>title_name</title><g id="レイヤー_2" data-name="レイヤー 2"><g id="レイヤー_2-2" data-name="レイヤー 2"><path class="cls-1" d="M48.53,46.66c0-.29,0-.5-.21-.58.14-.5.57-.86.64-1.29,0-.07-.14.14-.28-.15-.72.58-1.08,2.6-2.38,2.45,0,.36-.29.51-.29.79v.29c0,.15-.43-.07-.5.07s-.07.44-.29.58-.58.5-.58.65.08.21.08.29,0,.07-.08.07h-.21A2,2,0,0,0,43.06,51a1,1,0,0,0,.07.36c-.65.72-1.44.65-1.51,1.66,0,0-.58.5-.43.57-.58.36-1.8,1.51-1.66,1.3a4.26,4.26,0,0,0-.57.86c0,.43-2.74,1.44-2.74,1.23,0,.21.22.36.22.5a.56.56,0,0,1-.22-.07c-.14,0-.14,0-.14.07s-.22.14-.22.22a3.12,3.12,0,0,1-1.3.43c-.5-.15-.64-.29-.93-.36a13.88,13.88,0,0,1-2.45.57c-.94-.5-2.16-1.22-2.09-2.3-.86-.07.72-2.81.07-3.17,0-1.37.43-1.29.58-2.37,0-.72.43-.8.43-1.73.43-.15,1.37-1.66.65-2.23a16,16,0,0,0,.5-2.52c-.07,0-.07-.08-.07-.08.07-.28.43-.14.5-.36a2.46,2.46,0,0,1-.07-.43c0-.29.72-.5.72-1.08A9.86,9.86,0,0,1,32.62,41c.21,0,.29-.07.29-.36,0-.07-.08-.21-.08-.29.08-.65.44-.36.44-.65s.65-1.79.65-1.94.43-.29.43-.57-.22-.51-.15-.73l.44-.5a3.25,3.25,0,0,1-1,.36c-.22,0-.29-.07-.36-.36a1.78,1.78,0,0,1-1.15.79v.07c-.58.08-.58.72-1.59.72a13,13,0,0,0-3.38,1.16c0,.29-3.53,1.08-5,1.22a.28.28,0,0,0-.22-.07c-1.51.14-2.45.65-3.67.65-.58.07-1.22-.07-1.73,0a1.08,1.08,0,0,0-.5.07A4.13,4.13,0,0,0,15.27,43c0,.07.14.36.14.43a5.34,5.34,0,0,0-.79,2.38v.43c0,.14-.58.36-.72.72-.22.57-.51,3.45-1,3.45-.22.58.22,1.88-.79,2,0,.65.14,1,.14,1.58a3.32,3.32,0,0,1-.5,1.59A6.76,6.76,0,0,1,12.31,58c-1.65,0-1.51,1.65-3.16,1.65,0-.36-1.08-.29-1.08-.5v-.51c0-.28-.94-.21-.94-.57,0-.15.07-.36.07-.43,0-.58-.29,0-.29-.87s1-2,1-3.24c0-.21-.21-.36-.21-.57.71-.36.71-1.16,1.22-1.23,0-.79-.43-.79-.43-.86-.08-.36.43-.51.43-.79s-.07-.58-.07-.72c0-.58.36-.36.36-.65,0,0-.29-.29-.29-.43a7.09,7.09,0,0,0,1.44-4.9c.94-.36.65-1.8,1.08-2.67H10.3a6.43,6.43,0,0,1-1.23-.21c.08.21-.21.36-.14.29a.77.77,0,0,0-.79-.22,1.62,1.62,0,0,0-.58,0,2.77,2.77,0,0,1-1.65-.36,4,4,0,0,0-.87.07c-.36,0-.79,0-.86-.14s-.36.14-.29.43A3.67,3.67,0,0,1,2,37.37c-.08-.79.72-1.66,1.36-1.58.22-.08.29.07.58.07.07,0,.29-.29.58-.22s.5.22.86.36a3.06,3.06,0,0,1,.79-.07H6.7a1.32,1.32,0,0,1,.36.07,1,1,0,0,0,.5,0h.22a1.52,1.52,0,0,0,.07.29c.07,0,.14-.21.22-.21.43,0,.57.93,2.44.79a1.58,1.58,0,0,0,1.23-.29c.14.72.65,0,.65.65.28-.22.43-.29.57-.29h.36c.36-.72-.57-1.3.07-2.23,1-.15.94-1.44.94-2.67a12.77,12.77,0,0,0,1.37-2.37,7.49,7.49,0,0,0,1-2.38v-.43c.72-2.16.72-1.15.72-2.31v-.93a2.69,2.69,0,0,1,.93-2.23c0-.36-.07-.87-.07-1,0-.36.07-.36.43-.36a3.29,3.29,0,0,1-.07-.36.32.32,0,0,1,.07-.22.32.32,0,0,0,.22.07v-.64a12.59,12.59,0,0,0,.86-2.6c0-.43-.07-.79-.72-.79s-3.38.22-4.25,1.15H13.32c-1.58,0-2.3.87-3.67.87-.36,0-.5-.08-.79-.08s0,.58-.29.58H8.28c-.57,0-.29.58-3.82,1.15-.57,0-.64-.28-1.15-.28-.21,0-.21.14-.29.14s-.64-.22-.79-.22-.65.08-.86.08S0,17.71,0,17.14c0-2,2.81-2,4.83-2h.5c.65,0,.93-.5,1.15-.5h.36c.07,0,.07,0,.07-.08v-.36h.58A2.87,2.87,0,0,1,8.42,14h.37c.28,0,.28-.14.36-.14a.14.14,0,0,0,.14.14c.43,0,.36-.22.43-.22.94-.21,1.87-.21,2.59-.36s.58-.29,1.08-.5A27.43,27.43,0,0,1,18.15,12c.5,0,.79,0,.93.29A17,17,0,0,1,23.4,10.8c.72,0,1,.43,2.31.43,1.8,0,2.37-.5,3.45-.65,0,0,1.23.15,2,.15,1,0,.57-.43,1.15-.43s.5.5,1,.5.58-.22,1.08-.22.65.22,1,.22A11.4,11.4,0,0,1,37,10.58c.94,0,1.87.22,2.81.22.43,0,1-.22,1.44-.22.65,0,.36.94,1.08.94.43,0,.65-.22.86-.22s.72.44,1.16.44.64-.22,1.22-.22a8.72,8.72,0,0,0,1.66,2.31c0,.07-.94,2.37-1.44,2.37-.22,0-.8-.72-1-.72h-.22c-.21,0-.36-.07-.36-.29-.14,0-.57.29-.93.29-.8,0-.87-.57-1.37-.57-.29,0-.36.07-.65.07s-.29-.8-.86-.8c-.15,0-.51.15-.8.15s-.07-.5-1.29-.5c-.51,0-1,.14-1.37.14a3.11,3.11,0,0,1-2.09-.51c-.5,0-.93.51-1.65.51s-1-.14-1.52-.14c-.72,0-6.12.35-7.34,1.43-.79,1.59-.22,4.69-1.8,4.9,0,.15.14.29.14.58,0,2.59-1.44,1.87-1.44,2.73,0,.29.15.58.15.8,0,.79-.72.57-.72,1.15,0,.14.5.5.5.65a1.49,1.49,0,0,1-.43.14c0,.58.43.65.43,1.08s-.22.14-.43.36v.14s-.07.51-.15.51v.07c0,.43.08.58.08.79,0,.72-.94.36-.94,1.08v.36c0,.29-1.44,1.51-1.44,1.87s.07.51.07,1c0,.29-.5.58-.5.94.21,1-.79,1.87-.43,2.59.14,0,.36-.07.43,0s.29.07.43.07c.36,0,.79-.29,1-.29s.14.22.5.22.65-.14,1.37-.79c0,.07,0,.07.14.07a12.14,12.14,0,0,0,1.59-.21.72.72,0,0,0,.5.14c1,0,2.31-.94,3.39-.94.36-.14,1.37-.14,1.58-.43h.07c.8,0,1.3-.65,1.73-.65.22,0,2.52-.57,2.52-.57a.07.07,0,0,0-.07-.08c0-.14.14-.07.36-.21s.14-.15.36-.15a3.71,3.71,0,0,0,.5.08c.58-.15.65-.65,1.3-.65.14,0,.36.07.5.07s-.07-.07,0-.07c.36-.15.29-.58.44-1.23,1.22-.14,0,0,1-.43.51.15.72.43,1.44.43a.49.49,0,0,1,.29.08c.65,1.15,2,1.58,1.87,3.74,0,.5-.57.65-1,2A15.09,15.09,0,0,1,38,39.17a5.43,5.43,0,0,0-1.37,3c-.57.43-.5,1.08-1.08,2,0,.07-.07.87-.07.94,0,.43-.43.79-.43,1.15v.36a2.85,2.85,0,0,1-.65.79.71.71,0,0,1,.14.51.69.69,0,0,1-.43.72,11.72,11.72,0,0,1,0,2.3c0,.36-.21.86-.21,1.15-.22.51-.44,1.37.72,1.37.36,0,1,.07,1.08-.36v-.22c.5.22.72-.14,1.44-.57.21-.15.64-.22.86-.43a4.37,4.37,0,0,0,1.66-.87A11.77,11.77,0,0,1,42,49.11c.58-.51,1.51-.94,1.58-1.87V47c.8,0,2.16-1.66,2.31-2.23,0-.36,1-.72,1.08-1.15,0-.08-.07-.15-.07-.22C47,43.06,48,42.34,48,42c0-.07-.08-.15-.08-.22,1.59-.64.72-1.44,1.52-2.09v-.35c.07-1.59.93-1.88,2.37-1.66a6.28,6.28,0,0,1,1.08.22.26.26,0,0,0-.07.21c0,.29.58.29.58.72v.07c0,.51.86.36.79.79s-.29.22-.36.51a.75.75,0,0,1,.29.79c-.08,1.3-1,.58-1.16,1.23,0,.43.51.72.51.86s-.22.22-.22.29.15.14.15.29c0,.36-.22.57-.65.79a4.37,4.37,0,0,1,.14.86c-.07.22-.36.15-.36.29a2.18,2.18,0,0,1,.15.5c0,.08-.08.15-.15.29s-.36.22-.36.43.15.94.15,1.3v.65a.75.75,0,0,0,.21.65,6.69,6.69,0,0,0-.5,1.87.48.48,0,0,0,.29.5,1.6,1.6,0,0,0-.22.79,4.37,4.37,0,0,0,.79,1.88c.87-.15,1.88,0,2.45-.36.15-.15,1.73-.8,1.59-.8,1.58-.5.64-.28,2.3-1.29a17.74,17.74,0,0,0,3.38-2.59c.08,0,.15.07.29.07s.22-.22.29-.36c.79-.43.79.14,1.58-1.08H65c.36,0,0-.87.43-.87.22,0,.29,0,.29.22,1.3-.86,2.59-2.38,3-2.38a5.85,5.85,0,0,0,1.08-1.22,17.06,17.06,0,0,1,1.44-1h.14a.54.54,0,0,1-.07-.29,10.92,10.92,0,0,1,2.73-2.59v-.22c0-.43.65.22.65-.14,0,0,.65.22.65.14-.29.22-.29,1.3-.58,1.45s-.28-.08-.43.07-.14.14-.21.21.14.51-.44.87c-.28.29-.86.29-.72.36a17.68,17.68,0,0,1-1.51,2.16,12.06,12.06,0,0,1-2,1.73c-.58,0-1,1-1.23,1.58a4.42,4.42,0,0,0-1.08.58.07.07,0,0,1-.07-.08c-.65.8-1,.8-1.66,1.52v.14c0,.36-.72.29-.72.43v.15c-.21.36-1.22.5-1.22,1.15-.14.43-1.08.72-1.22.86a13.47,13.47,0,0,0-2.88,2.09c-.15.14-.22.22-.22.29a4.43,4.43,0,0,1-1,.29c-.14,0-.29,0-.36-.08-1,.87-1.87,1.08-2.52,1.66h-.22a4,4,0,0,1-2.23.58c-.64,0-.29-.44-.72-.44-.14,0-.29.08-.5.08.07,0-1.23-.8-1.23-.8v-.28c0-.36-.86-.51-.79-.58h-.14V55.3c0-.07-.36-.07-.36-.22V54.8c0-.15-.29-.15-.29-.22s-.36-1.3-.36-1.08l-.07-.07c0-.07.07-.07.07-.15a10.36,10.36,0,0,1-.58-1.87c0-.36.22-.5.22-.86s-.29-.72-.29-1.15.36-.8.36-1.16v-.79C48.17,47.31,48.46,47.31,48.53,46.66Z"/><path class="cls-1" d="M108.22,53.79h.14a1.59,1.59,0,0,0,1.08-1.15.46.46,0,0,0,.29.07c1.08,0,1.3-1.51,2-2a3.73,3.73,0,0,0,1.87-1.15c.72.15.72.72,1.22,1-1.58.36-1.58,2.23-2.73,3-1.23.51-.51,1.66-1.8,1.66-.65,0-1.88,1.73-2.24,1.73a4.75,4.75,0,0,1-2.45.86,6.45,6.45,0,0,1-2.44-.72v-.22c0-.14-.36-.36-.44-.43h-.07a4.92,4.92,0,0,1-.36-2c0-.08.15,0,.15-.29a3,3,0,0,0-.15-.43c0-.22.29-.08.36-.22V51.7c0-.5.07-1,.22-1.08A9.55,9.55,0,0,1,102.6,49a1.65,1.65,0,0,1,.07-.58v-.14c0-.08-.07-.08-.07-.29a1.37,1.37,0,0,1,.51-1,2.12,2.12,0,0,1-.22-1.08,19.25,19.25,0,0,1,.29-2.23c0-.07-.07-.15-.07-.29s.14-.22.14-.36a5.11,5.11,0,0,0-.14-.86,6.75,6.75,0,0,0,.21-1.66c0-.43-.21-.94-.21-1.3a.48.48,0,0,1,.28-.5,1.13,1.13,0,0,1-.21-.5l-.07-.87c-.07-.07-.15-.5-.44-.5-.07,0-.57.64-.5.64h-.29c-.86,0-1.08,1.23-1.08,1.37s.15.29.29.58v.14h-.21c-.87,0-.8.72-1.45.87.15.14.22.07.22.28,0,1-1.73,2-2.38,2.6,0,.36.15.43.15.43s-.65.5-.65,1.22v.58H96.7c-.36,0-.22.22-.58.22L96,45.72c0,.15-.07.22-.07.29.07.36.28.36.36.72h-.08A3.06,3.06,0,0,0,94.9,48.6c0,.22.14.22.14.36-1.65.22-1.94,4-2,4.25s-.65.07-.65.29a1.76,1.76,0,0,0,.07.29c0,.07-.22.14-.22.36-.79-.15-.93-.94-1.8-.94a1.55,1.55,0,0,0-1.15.72c-.36-.14-.79-.21-.93-.65a.3.3,0,0,0-.22.08,1.07,1.07,0,0,1-1.08-1.08c0-.15.07-.36.07-.51s-.07-.29-.43-.29a1.28,1.28,0,0,0,.22-.79v-.43c0-.43.28-.43.28-.65s-.14-1.22-.14-1.58a20.94,20.94,0,0,1,.36-2.88c0-.58-.14-1.23-.14-1.73s.28-.72.28-.94-.36-.36-.36-.65a10.19,10.19,0,0,0,.29-1c0-.15-.14-.22-.14-.29a13.71,13.71,0,0,0,.14-1.66c0-.07-.14-.14-.14-.21a1.25,1.25,0,0,1,.21-.72.74.74,0,0,1-.36-.44v-.14a.78.78,0,0,0,.15-.5c0-.58-.29-1.44-.29-1.95a1.38,1.38,0,0,0-1.3.65h-.07c-.5,0-.86,1.37-1.87,1.66-1.23,2.73-2.23,2-2.23,2.88a1.49,1.49,0,0,0,.14.43c-.65,0-.5.5-.65.94-.79.43-1.51,1.29-1.51,1.65v.07c0,.22-.29.44-.29.8,0,.07.15.14.15.21-.58,0-1,.15-1,.79v.22a8.36,8.36,0,0,0-1.87,3.24c0,.29.07.5.07.72a1.7,1.7,0,0,1-.51.86v.22h-.21l.07.07H75.6c-.65,1.23-1.22,2.09-1.15,3.31-.43.58-1.3,1-1.3,1.88a1.55,1.55,0,0,0,.15.64,1.15,1.15,0,0,1-.65.22,3.29,3.29,0,0,0,.07.36c0,1.22-1.22.86-1.3,1.3a.61.61,0,0,1-.57-.51v-.14h-.07c-.65,0-.51.43-1.23.43,0-.14-2.09-.07-2.09-2.09a1.84,1.84,0,0,1,.65-1.22,1.85,1.85,0,0,1-.07-.58,1.21,1.21,0,0,1,.43-1q-.21-.11-.21-.21v-.79c.57,0,.28-.65.79-.72-.15-.08-.15-.15-.15-.22s.22-.94.36-.94a2.46,2.46,0,0,1-.07-.43c0-.36.36-.36.36-.79,0-.14-.07-.07-.07-.22s.07-.21.07-.28.15-.72.58-.72a.27.27,0,0,1-.15-.22c0-.29.22-.36.22-.43s-.07-.07-.14-.07.14-.44.14-.51v-.29c.22-.07.14-.36.5-.36h.15v-.21c0-.79.65-1.15.65-1.87v-.22c.79-.58.43-2.88,1.29-2.88-.07,0-.07-.14-.07-.14,0-.22.22-.29.29-.36.36-1.45-.22-1.37.72-1.73a3.29,3.29,0,0,1-.07-.36,5.08,5.08,0,0,1,1.08-2.74v-.5c0-.08.21.14.21-.44V33.7c0-.79.36-.29.43-.65a.8.8,0,0,0-.07-.22s.51-.72.72-.79c0-.86.07-.72.65-1.87V27.72c.29-.29.65-.43.79-.86a8.28,8.28,0,0,0,1.37.29c.22.07.22.21.43.21.22.22,2.45.58,2.45,2.16.07.15.15.22.15.36a24.87,24.87,0,0,1-1.37,3.6c-.44,0-1.37.87-1.52,1.23v.14c0,.72-.36,1.73-.57,1.73-1.08,0-1.37,1.51-1.37,1.73.07,0-.22,1.65-.22,1.8a1.66,1.66,0,0,1-.36.36c-1,.86-1.51,1.44-1.51,2.37v.36c0,.36,0,.58-.21.58s-.65,1.58-.94,1.58c-.36,2.81-1.8,2-1.94,3.89-.29.07-.36.36-.36.72,0,.15-.08.51.28.51s.44-.22.44-.36-.08-.29-.08-.51c1.08-.21.65-.93,1.08-1.08.8,0,1.3-2.52,2.74-3,0-.07-.07-.07-.07-.22s.14-.28.36-.28c-.07-.08-.07-.15-.07-.29,0-.58.72-.72.72-1.37v-.14a4.84,4.84,0,0,1,1.15-.94c0-.14-.07-.36-.07-.43,0-.36.36-.43.36-.87h.07c.21,0,.21-.36.43-.36h.22a2.88,2.88,0,0,0,1.15-1.94.91.91,0,0,0-.07-.43c.28,0,.21-.22.28-.29s.15.07.29.07.15,0,.15-.07a.24.24,0,0,0-.07-.14c0-.22.43-.15.5-.29.43-.15.14-.65.43-.87h.07a11.53,11.53,0,0,0,.79-1.22c0-.07,1-1.44,1.45-1.44a24,24,0,0,1,1.8-2.52v-.29c.14-.14.86-.07,1.08-.07.43.14.79.21.79.29H88a.24.24,0,0,0-.08.14.25.25,0,0,0,.15.07h.29v.15a11.67,11.67,0,0,0,1.29.57c.29.79,1.3,1.37,1.3,2,0,.21-.22.21-.22.36a13,13,0,0,1,.72,1.87c0,.14-.14.07-.14.22a11.67,11.67,0,0,0,.14,1.22c0,.58-.36.22-.57.65a1.08,1.08,0,0,1,.07.43c0,.36-.29.5-.29.72,0,1.44.29,1,.29,2.81,0,.58-.22,1.15-.22,1.58a4.5,4.5,0,0,0,.58,1.3v.14c0,.51-.51.65-.51.87.08.07.08.36.08.36-.29.43-1,.14-.58.93.72-.14.72-.86,1.37-1.15,0-.07-.07-.14-.07-.29,0-.36,1.36-1.36,1.36-1.94,0-.07-.07-.14-.07-.29.36,0,1.59-1.37,1.59-1.58V42.2c.21-.08.14-.44.36-.44H95c.07,0,.15-.07.15-.21V41.4c0-.07,0-.14.07-.14h.14c.15,0,.36-.29.36-.29a.45.45,0,0,0-.07-.29c0-.14.36-.07.43-.14s.36-1.08.43-1.08h.15c-.36-.14,1.08-1.37,1.08-1.3,0-.14-.07-.21-.07-.28a2.13,2.13,0,0,0,1.51-1.37.24.24,0,0,1,.14.07c.72,0,1.15-1.87,1.59-1.87h.21c.15,0,.15,0,.15-.08V34.2h.43a1.14,1.14,0,0,1,.93-.43,3.27,3.27,0,0,1,.58.14.14.14,0,0,1,.14-.14,3,3,0,0,1,2.67,2.45v.43c0,.22.43.79.57,1.3-.14.21-.14.21-.28.21s-.29-.07-.51-.07a.22.22,0,0,0-.14.07,3.88,3.88,0,0,1,1,2.24c-.15-.15-.65,1.72-.15,3.45.07.22-.07.36-.72,1.23.29.21.29.5.44.64,0,.15,0,.65-.08.65h-.14c-.07,0-.07.07-.07.22a2.36,2.36,0,0,0,.07.65c-.72,1.15-.22,2.73-.22,5.54,0,.36-.21.65-.21.94,0,.64,1.29.72,1.44.72a1.31,1.31,0,0,0,.64-.29C107.93,54.08,108.08,53.79,108.22,53.79Z"/><path class="cls-1" d="M133,50.4a21.93,21.93,0,0,1-2.16,2,13.72,13.72,0,0,0-2.88,2.09c-.14.14-.21.21-.21.28v.08c-.43,0-.65.21-1,.21-.14,0-.22.36-.36.29-.94.79-.65.29-1.3.86v.15c-.64,0-2.73,2.09-3.81,1.94-.65-.07-.72.43-.87.43a2.86,2.86,0,0,0-.36-.07c-.14-.14-.28.15-.93.15-.87-.08-1.15-.94-2.16-1.37.07-.51-.36-1.15-.36-1.37v-.29c0-.14-.15-.29-.15-.36s.22-.29.22-.5a6.13,6.13,0,0,0-.14-.72c0-.15.14-.29.14-.58,0-.07-.07-.07-.07-.21s.43-1.08,0-1.59c.29-.36.07-1.51.43-1.73.14-.07.14-.14.14-.21a1.5,1.5,0,0,1,0-.58c.07-.43.22-.43.29-.93v-.44a15.23,15.23,0,0,0,.86-2.08,2,2,0,0,1,0-.65,1.57,1.57,0,0,1,.73-.79c.43-1.8.28-3.53,1.51-4.47,0-.36-.29-.57-.29-.86s.94-1.73,1-2.45c0-.29.14-.22-.07-.65s0-.36.14-.79c-.07,0,.5-1.15.43-1.15s-.5-.8-.36-.94c.29-.29.15-1.51.22-1.58,0-.44-.15-.58-.07-1,0,.07.07.07.14.07.29.07.58-.65.86-.65h.29c.15,0,.07-.21.15-.21h.5c.94.07,1.51.36,1.22,1.72a8.87,8.87,0,0,0,2.31,2,15.38,15.38,0,0,0,0,1.8c-.29.36-.36.79-.65.79a4,4,0,0,1,.07.94c-.07.43-.14,1.22-.72,1.58l-.07.07c0,.08.14.15.07.44s-.07,0-.07.21a12.42,12.42,0,0,1-1.22,1.88c-.36,1.87-.8,3.52-2,4.46,0,.43.43,1.8-.65,1.73-.14-.07-.43.79-.5.79-.14.22-.07.36-.29.36H121a7.22,7.22,0,0,1-.14,1.73c-.15.86-.29,1.73-.58,2.81-.07.57-.29.28-.36.93a1.78,1.78,0,0,0,.58,1.3c.14-.15.72.14.86-.15l.5.15c1.3-.87,1.3-1.3,2.09-1.3.15-.14,1.73-.79,1.59-.79,1.51-.5.57-.65,2.23-1.66A20.55,20.55,0,0,0,131.11,49c.87-1.44,1.8-1.08,1.95-2.16a.24.24,0,0,1,.07-.14c.72-.29.79-.65,1.58-1.37h.08a.24.24,0,0,0,.14-.07c.29.07.36-.43.43-.43.65-.58,1.66-1.08,1.94-1.95.29-.07.37-.21.58-.21H138c.21-.15.35-.87.64-.72s.08-.08.15-.22.07-.07.07,0v.14a.76.76,0,0,0,.07-.35l-.07-.08h.22a8.82,8.82,0,0,0,.5-.86c.07-.07.43-.29.5-.58,0-.07.22-.14.22-.21-.14-.29,1.66-1.8,1.8-1.87a1.26,1.26,0,0,1,.79-1.09c.07,0,.15-.07.22-.07a.24.24,0,0,0,.07-.14.45.45,0,0,1-.07-.29c0-.07,2.37-2.88,2.45-3a6.2,6.2,0,0,0,.5-.58c1.08-.43.65-1,1.15-1.66l.65-1a8.24,8.24,0,0,0,.86-1.52c-.07-.36.29.15.22-.28l.07-.08c.29.08.58-1.15.87-.86a.22.22,0,0,1,.14-.07V27a.64.64,0,0,1,.58.15c.72-.08,1.22.14,1.08,1.51-1.08,1.22.5,1-.72,1.29-.15.36-.08.58-.22.8s-.86.72-1.22,1.15-.87.79-.58,1-.29.28-.72.93c-.14-.07-.14.36-.29.36a.77.77,0,0,0-.36-.14v.21c-.14.08-1.15,1.37-1.22,1.44-.22-.07-.43-.07-.43.29s.07.29.07.58c0,.58-1.44,0-1.37,1.22-.86.29-.65,1.59-1.66,2-.07,0-.07.14,0,.21-.14.36-.64.44-.57.65-.07-.07-.22.22-.29.22V41a11.62,11.62,0,0,1-1.44,1.66.27.27,0,0,0-.07.22c0,.21-.72.36-.79.93v.07c-.51.08-1.23.65-1.23.94l-.14.14c.07.15-.22,0-.22,0-.21-.07-.21.58-.36.8s-.79.14-1,.64c.08.22,0,.29-.07.29s-.07.07-.14-.07c0,.36-.36.22-.36.43v.22c-.65.07-.72.72-1.16.93C134.57,48.89,133.06,50.62,133,50.4Zm-.57-36.72c-.15.36-.51.29-.51.79,0,.22.51.29.58.58s-.29.21-.36.57V16c0,.5-.65.79-1,1.36-.72-.07-2,.29-2.16-.57h-.65c-.21,0-.07-.22-.14-.22-.22-.14-.43-.07-.58-.29-.14,0-.14-.36-.28-.43-.87-.58-.58-.93-.58-1.87-.07,0,.86-1.08,1.22-1.08.15,0,.15,0,.29.21.15,0,0-.5.15-.5h.28a1,1,0,0,0,.65-.43c0,.21.29.29.79.29a9.22,9.22,0,0,1,1.37-.36c.07,0,.07.07.07.14v.29a8.44,8.44,0,0,0,.87,1Z"/><path class="cls-1" d="M180,44.21v.22c-.21,1.29-1.37.79-1.44,1.65a1.36,1.36,0,0,1-.43.29c-.14.15-.43.65-.94.65-.21,1.58-3.31,3.24-3.45,4-.51.07-.65.87-1.23.87h-.07a6.1,6.1,0,0,1-3.24,3c-.29,2-.86.58-1.22,1.8-.44,0-.65.43-1,.29s-.51.29-.79.43h-.29c-.94-.07-1.22.79-1.73.79-.07,0-.14-.07-.22-.07s-.28,0-.28.14a3.44,3.44,0,0,1-1.8-3.24,2.29,2.29,0,0,1,.14-1c-.14-.58-.58-1-.58-1.59,0-.21.15-.21.15-.43,0,0-.15-.07-.15-.14a6.69,6.69,0,0,0,.15-.72c0-.15-.07-.22-.07-.36,0-.58.57-1.23.57-1.88,0-.28-.07-.5-.07-.72a8.65,8.65,0,0,0,.43-2.37c0-.07.07-.15.07-.29,0-.36-.21-.36-.21-.58.14,0,.36-1.65.72-2.16v-.36c0-.28-.07-.65-.07-1.08s.43-.86.43-1.22a1.7,1.7,0,0,1-.15-.72v-.79a1.45,1.45,0,0,0-.21-.94,2.37,2.37,0,0,0-1.59.72c0,.07-1.29,1.44-1.29,1.44-.36,0-.43.22-.65.22a.39.39,0,0,1-.22-.07c-.14.64-1.15,1.94-1.51,1.94-.07,0-.21,0-.21-.07a4.49,4.49,0,0,0,.07.72c0,.14-.07.21-.07.43h-.22c-.5,0-.36.58-.79.58a.4.4,0,0,1-.29-.08.29.29,0,0,0-.07.22v.29c0,.5-.58.14-.72.36-.79.79-1,1.87-1.73,1.87-.07,0-.14-.07-.29-.07,0,1.8-.5,1.44-1.44,2.09,0,.14.07.21.07.28,0,.29-.21.36-.21.58v.22c-.79.43-1.08,1.29-1.95,1.58v1.37c0,.5-.5.21-.5.5s.22.36.22.65-.87,1-1.23,1.37v.43c0,.65-.79,1.73-1.08,1.73-.72,0-1.15-.29-1.58-.29-1.3,0-.87,1.37-2.09,1.37-.72,0-1.51-1.37-1.51-1.3a.57.57,0,0,0-.15-.36v-.86c0-.58.36-.51.36-1.08v-.79c0-.36.15-.36.15-.58s-.15-.22-.15-.29a17.38,17.38,0,0,0,.29-2v-.51c0-.07.5-1.58.72-1.58,0-.22-.07-.43-.07-.79,0-.87.65-1,.65-1.73s0-1.3.14-1.95c0,0,.29-.21.22-.36.36-1,.29-3.31,1.22-4a.66.66,0,0,1-.07-.36,3.85,3.85,0,0,1,1-3c0-.15-.07-.29-.07-.43a19.38,19.38,0,0,1,.86-4v-.28c0-.22.36-.22.36-.36a5.69,5.69,0,0,0,.36-1.23,4.2,4.2,0,0,1-.07-.5c0-.22.29-.22.29-.87v-.36c.43-.21.28-1.08.86-1.22a1,1,0,0,1-.22-.72c.29,0,.58-.07.58-.22s-.14-.07-.22-.07.36-.86.44-1.15c-.08,0-.29,0-.29-.07s.21-.07.29-.07c.07-.29.28-1,.28-1.08s-.07-.29-.07-.44c0-.43.43-.28.43-.64v-.36c.08-.15.22-.08.22-.29s-.07-.29-.07-.43.29-.22.43-.29a12.85,12.85,0,0,0,.5-2.09V19c0-.36.22-.29.22-.58,0,0-.22-.07-.22-.14s.22-.14.22-.22a.71.71,0,0,0-.07-.21c0-.15.14-.22.14-.44s-.07-.28-.07-.43c0-.57.5-.79.5-2.59a1.6,1.6,0,0,0-.07-.57,9.94,9.94,0,0,0,1.66-1c.93.5,2.16.57,2.45,1.8.36.21.86.29,1.08.64,0,.44-.36.65-.36,1.23,0,.07.07.36.07.58,0,.43-.72.79-.79,1.22v.14a3.64,3.64,0,0,1-.65,2.52c-.22.36-.51.15-.51.8s-.5.57-.5,1.36a.43.43,0,0,0,.07.29c-.43,0-.21.72-.72.72v.22c0,1-.21,1.58-1.37,1.58a1.31,1.31,0,0,1-.43-.07c-.29.22,0,.79-.36.79l-.07-.07c0,.29,0,.5.14.5-.72.72-.36,1.8-1.29,2.67,0,.43.07.72.07,1.08s-.43,2.23-.86,2.3v.22a3,3,0,0,1-.8,2.09,14.13,14.13,0,0,1-1.22,5.69v.36c0,.43-.14.28-.14.79v.57a3.2,3.2,0,0,1-.72,1.8c0,1.66-.29,2-.29,3.32,0,.64-.65.64-.79,1.08.21.64,0,1.94.79,1.94.36,0,.14-.58.5-.72.07-.65,1.87-1.8,1.87-2.45,0-.21.8-.5.8-.79v-.14c0-.22.5-.15.5-.44V46.3a1.44,1.44,0,0,1,1-.72v-.14c0-.87,1.29-1.52,1.65-1.52a6.5,6.5,0,0,0,.87-1.51c.14-.93,3.31-3.67,3.89-4a5.15,5.15,0,0,0,1.36-1.58c.36-.36,3.17-2.24,3.17-3.1v-.29a.68.68,0,0,0,.36.07c.43,0,.58-.64.94-.64s.43.21.65.21.21-.21.5-.21.15.21.22.21a2.31,2.31,0,0,1,1.44.94v.65c0,.28-.08.57-.29.57.07.43,1.15.87,1,.87.21,0,.36-.36.43-.36s.07.07.07.21v.29c0,.43.07.79.43.94-.14.36-.43.57-.57.86.14.07.14.29.14.5v.65c0,.36,0,.58.22.65-.08.22-.36.22-.36.51s.14.35.14.72v.79c0,.57-.36.72-.72.93a.74.74,0,0,1,.29.58c0,.36-.22.79-.22,1a.74.74,0,0,0,.36.57c-.07.36-.5.36-.93.36a1.33,1.33,0,0,1,.07.44c0,.72-.36,1.22-.36,1.8a2.66,2.66,0,0,0,.14.64,1.45,1.45,0,0,0-.57,1.23,6.1,6.1,0,0,0,.57,2.09c-.28,0-.43.21-.72.36,0,.21.15.43.15.57,0,.36-.22.22-.29.51s.21.57.36.86a36.87,36.87,0,0,0,3.09-2.09.49.49,0,0,0,.08-.29v-.14c.07,0,.14.07.29.07a6.52,6.52,0,0,0,.72-.43v-.14c.07-1.16,3.16-1.73,3.6-3.32.21-.14.79-.43.86-.64v-.29c.07-.22.43-.29.79-.29a.07.07,0,0,1,.07.07v-.14c.08-.72,2.16-2.74,2.31-2.67h.14c.65-1,.65-.86.65-.86v-.22c.07-.14.58-.36.79-.65s.51,0,1.08-1.08a2.24,2.24,0,0,0,1.44-1.58h.07c.72.07,1.88-1.58,1.88-1.22.14,0,.36-.44.57-.36.94.07,1.44.14,1.37,1.29,0,.29.07.44-.22.58s-.07.94-.64,1.15a.82.82,0,0,0-.36-.07c-.36.21-.65.58-.8.65-.36.21.08.72-.36.93-.14.15-.5-.21-.64-.14C180.87,42,181.3,44.21,180,44.21Z"/><path class="cls-1" d="M195,50.4a24.47,24.47,0,0,1-2.16,2,13.09,13.09,0,0,0-2.88,2.09c-.15.14-.22.21-.22.28v.08c-.43,0-.65.21-1,.21-.14,0-.21.36-.36.29-.93.79-.65.29-1.3.86v.15c-.64,0-2.73,2.09-3.81,1.94-.65-.07-.72.43-.86.43a3.57,3.57,0,0,0-.37-.07c-.14-.14-.28.15-.93.15-.87-.08-1.15-.94-2.16-1.37.07-.51-.36-1.15-.36-1.37v-.29c0-.14-.15-.29-.15-.36s.22-.29.22-.5a6.13,6.13,0,0,0-.14-.72c0-.15.14-.29.14-.58,0-.07-.07-.07-.07-.21s.43-1.08,0-1.59c.29-.36.07-1.51.43-1.73.14-.07.14-.14.14-.21a1.5,1.5,0,0,1,0-.58c.08-.43.22-.43.29-.93v-.44a16.41,16.41,0,0,0,.87-2.08,1.76,1.76,0,0,1,0-.65,1.52,1.52,0,0,1,.72-.79c.43-1.8.28-3.53,1.51-4.47,0-.36-.29-.57-.29-.86s.94-1.73,1-2.45c0-.29.14-.22-.07-.65s0-.36.14-.79c-.07,0,.5-1.15.43-1.15s-.5-.8-.36-.94c.29-.29.15-1.51.22-1.58,0-.44-.14-.58-.07-1,0,.07.07.07.14.07.29.07.58-.65.87-.65h.28c.15,0,.07-.21.15-.21h.5c.94.07,1.51.36,1.23,1.72a8.66,8.66,0,0,0,2.3,2,15.38,15.38,0,0,0,0,1.8c-.29.36-.36.79-.65.79a4,4,0,0,1,.07.94c-.07.43-.14,1.22-.72,1.58l-.07.07c0,.08.15.15.07.44s-.07,0-.07.21a12.42,12.42,0,0,1-1.22,1.88c-.36,1.87-.79,3.52-1.95,4.46,0,.43.43,1.8-.65,1.73-.14-.07-.43.79-.5.79-.14.22-.07.36-.29.36H183a7.22,7.22,0,0,1-.14,1.73c-.15.86-.29,1.73-.58,2.81-.07.57-.29.28-.36.93a1.78,1.78,0,0,0,.58,1.3c.14-.15.72.14.86-.15l.5.15c1.3-.87,1.3-1.3,2.09-1.3.15-.14,1.73-.79,1.59-.79,1.51-.5.57-.65,2.23-1.66A20.55,20.55,0,0,0,193.1,49c.87-1.44,1.8-1.08,2-2.16a.24.24,0,0,1,.07-.14c.72-.29.79-.65,1.58-1.37h.08a.24.24,0,0,0,.14-.07c.29.07.36-.43.43-.43.65-.58,1.66-1.08,2-1.95.28-.07.36-.21.57-.21H200c.21-.15.36-.87.64-.72s.08-.08.15-.22.07-.07.07,0v.14a.76.76,0,0,0,.07-.35l-.07-.08h.22a7.14,7.14,0,0,0,.5-.86c.07-.07.43-.29.5-.58,0-.07.22-.14.22-.21-.14-.29,1.66-1.8,1.8-1.87a1.26,1.26,0,0,1,.79-1.09c.07,0,.15-.07.22-.07a.24.24,0,0,0,.07-.14.45.45,0,0,1-.07-.29c0-.07,2.37-2.88,2.45-3a6.2,6.2,0,0,0,.5-.58c1.08-.43.65-1,1.15-1.66l.65-1a8.36,8.36,0,0,0,.87-1.52c-.08-.36.28.15.21-.28l.07-.08c.29.08.58-1.15.87-.86a.22.22,0,0,1,.14-.07V27a.64.64,0,0,1,.58.15c.72-.08,1.22.14,1.08,1.51-1.08,1.22.5,1-.72,1.29-.15.36-.07.58-.22.8s-.86.72-1.22,1.15-.87.79-.58,1-.29.28-.72.93c-.14-.07-.14.36-.29.36a.73.73,0,0,0-.36-.14v.21c-.14.08-1.15,1.37-1.22,1.44-.22-.07-.43-.07-.43.29s.07.29.07.58c0,.58-1.44,0-1.37,1.22-.86.29-.65,1.59-1.66,2-.07,0-.07.14,0,.21-.14.36-.64.44-.57.65-.07-.07-.22.22-.29.22V41a11.62,11.62,0,0,1-1.44,1.66.27.27,0,0,0-.07.22c0,.21-.72.36-.79.93v.07c-.51.08-1.23.65-1.23.94l-.14.14c.07.15-.22,0-.22,0-.21-.07-.21.58-.36.8s-.79.14-1,.64c.08.22,0,.29-.07.29s-.07.07-.14-.07c0,.36-.36.22-.36.43v.22c-.65.07-.72.72-1.15.93C196.56,48.89,195.05,50.62,195,50.4Zm-.58-36.72c-.14.36-.5.29-.5.79,0,.22.5.29.57.58s-.29.21-.36.57V16c0,.5-.65.79-1,1.36-.72-.07-2,.29-2.16-.57h-.64c-.22,0-.08-.22-.15-.22s-.43-.07-.57-.29c-.15,0-.15-.36-.29-.43-.87-.58-.58-.93-.58-1.87-.07,0,.87-1.08,1.23-1.08.14,0,.14,0,.28.21.15,0,0-.5.15-.5h.29a1,1,0,0,0,.64-.43c0,.21.29.29.8.29a8.71,8.71,0,0,1,1.36-.36c.08,0,.08.07.08.14v.29a8.19,8.19,0,0,0,.86,1Z"/><path class="cls-1" d="M215.28,26.35a5.93,5.93,0,0,1-1.23,3.75c0,.07.08.14.08.21H214c-.28,0-.79,1.37-.93,1.52-.29.28-.58.36-.87.72v.64c0,1-.93,1.08-.93,2a1.11,1.11,0,0,0,.07.43c-1.87.86-1.95,6.84-3.53,7.42a2.73,2.73,0,0,1,.07.79A5,5,0,0,1,206.71,47a.61.61,0,0,1,.29.5c0,.15-.07.36-.07.65s.28.79.28,1.3c0,.14-.43.65-.43,1.08,0,0,.15,0,.15.21s-.22.15-.22.22a2,2,0,0,0,.94,1.73c.93-.36,1.15-1.44,2.23-1.66.07-.43.57-.5.57-1v-.21h.08c.28,0,.43-.15.43-.29v-.22c.29-.14.72-.14.86-.36-.07,0-.07-.14-.07-.21,0-.36.43-.51.43-.72,0,0,0-.07-.14-.15.21-.36,1.44-1.08,1.44-1.29,0-.94.86-.87.86-1.87,5.76-5.69,3.46-3,4.25-4.61h.15c.5,0,.28-.72.79-.72h.29c0-.51.36-.36.36-.8v-.21c.57,0,.64-.43,1.08-.43h.21c.43-2,2.95-2.6,3.67-4,.8-.08,1.59-1.16,1.73-1.16.43,0,.72-1,1-1,1,0,1.51-1.16,1.51-1.08.15-.15.72-.29.65-.36.43,0,.22-.51.5-.51h.22c.36,0,.43-.5,1.08-.57s1.22.93,2.23.93a.54.54,0,0,0,.36-.07c.22.79,1.15,1.3,1.44,1.66s.36.57.58.72c0,.21-.51.21-.58.28.36.15.15.72.58.72,0,.08-.65.58-.65.94,0,.07.07.14.07.22-.21,0-.36.36-.79.36a.64.64,0,0,0-.22-.08,22,22,0,0,1-3.67,4.11c-.72,0-.5-.72-.93-.72a.33.33,0,0,0-.36.36,3.89,3.89,0,0,0,.07.5c0,.65-.58.87-.58,1.59-.43-.08-.07-.72-.36-.87-1.08.15-.5,1.87-1.44,2.31v.21c0,1.23-2.09,1.3-2.09,2.16,0,.58-.86,1.08-.86,1.73h-.22c-.93,0-1.15,1-1.15,1.66,0,1,1.23,2.59,1.87,3.24a9.25,9.25,0,0,1,.87.93v.15c0,.21.07.29.21.14a3.29,3.29,0,0,0-.07.36c0,.07.15,0,.22,0,.36.94.29.58,1.22,1.08.07.07.07.29.29.29H228c.22,0,0,.29.22.29h.43a5.89,5.89,0,0,1,1.51.5c.44,0,.51-.36,1-.36.15.36,1,.15,1.23.51a19.35,19.35,0,0,1,3.45-1.23c.8-.21,1.23-.79,1.8-1.08a4.42,4.42,0,0,0,1.08-.36c.22-.14.29-.43.58-.65s.5.15,1.73-1.08v-.28c0-.08,0-.08.07-.08h.07c.65-.64.94-1.22,1.15-1.22h.22c.79,0,1.66-2.45,3.1-2.74,0-.07-.08-.07-.08-.21,0-.65.29-1.15.72-1.15a.94.94,0,0,1,.94.72c.29,1.08,0,.28,0,1.08,0-.15-.14.79-.14.72-1.08.07-2,2.66-3,2.66h-.21c-.22.07-.29.29-.29.65a2.86,2.86,0,0,1,.07.36c-.21.21-.43.21-.57.36-.29.29.21.29-.65.72a12.72,12.72,0,0,0-2.31,2.16c-.21.14-.57,0-.72.14s-.07.43-.14.51c-.36.28-1.23.07-1.3.72a6.84,6.84,0,0,0-2.3.86,10.78,10.78,0,0,1-3.53,1.08h-.07a7.08,7.08,0,0,0-1.37-.36,14.51,14.51,0,0,0-1.51.22c-.65-.15-1-.65-1.66-.65-.07,0-.21.07-.29.07V57c0-.58-1.15-.43-1.65-.58a17.88,17.88,0,0,0-3.17-2.23c-1.58-2.3-2.3-2-2.3-2.59-.29-.94-1.59-2-1.59-2.45-.07-.22-.29-.36-.36-.5v-.36c0-.08-.21-.15-.36-.44v-.21a8,8,0,0,1-.72-1.87,3.49,3.49,0,0,0-1.51,1.94c-.51.14-1.22.36-1.22.72s.28.36.28.72c-.28,0-.28.36-.36.36h-.29c-.07,0-.07,0-.07.07v.15c0,.21-.5.14-.5.43s-.29.21-.29.43.29.36.29.65c-.94.65-.87,1.94-2.31,2.66,0,.07.08.15.08.22s-1.16,1.22-1.23,1.22h-.21c-.08,0-.22.29-.22.29a22.52,22.52,0,0,1-2.38.79h-.14c-.36,0-.29.15-.5.15-.8,0-2.45-.65-2.45-1.08s.07-.72.07-.94c0-.79-.43-.43-.43-.86s.07-1,.07-1.52-.22-.57-.22-.72c0,0,.08-.72.36-.72a1.08,1.08,0,0,1-.28-.79,2.41,2.41,0,0,1,.28-1,.71.71,0,0,1-.07-.21c0-.07.29-.43.36-.65s-.07-.22-.07-.29l.07-.07c.36-.29.22-1.87.51-2.3a4.48,4.48,0,0,1,.72-1.66c-.08-.07-.08-.22-.08-.43a2.44,2.44,0,0,1,.8-1.59c.07-1.44.57-1.87,1-3.17,0,0,.22-.86.22-.93a3.53,3.53,0,0,1,.36-1c0-.07-.07-.14-.07-.22a3.49,3.49,0,0,1,.79-1.58v-.29c0-.72,1-1,1-2.16a5.8,5.8,0,0,1,.93-1.73v-.5c.08-.86.65-1.3,1-1.87.29-1.59.94-2,1.59-3.46a3.26,3.26,0,0,1,.28-1.08c.94-.93,1.52-1.15,1.52-2.52.43-.14.65-1.51.86-1.51.5,0,.58-2.38,1.44-2.66.43-2.31,2.09-3.53,2.67-5.69,1.29-.36,1.65-2,2.44-3.32.58,0,1-.21,1.44-.21.87,0,2.16.86,2.16,1.15s-.21.65-.21,1.08c0,.58.72.36.72.94-.36.28-.43,1.65-.43,1.65a1.68,1.68,0,0,0,.07.51,7.8,7.8,0,0,0-1.59,3,.07.07,0,0,0-.07.07c0,.07.07.22.07.29-.5,0-1.65,1.37-1.65,1.23,0,.21.14.28.14.43,0,.72-2,1.29-2,2.23-.08.29-.8.22-.8.79,0,.36-1.15,1.59-1.36,1.66V23c0,1.08-1,1-1.08,1.66-.22,1.22-1.8.29-1.8,1.65C215.93,26.64,215.28,26.07,215.28,26.35Zm12.17,9a14.12,14.12,0,0,0-1.8,1.81c-.29.14-.72.72-.79.72h-.15c-.29,0,0,.71-.5.71s-.51.37-.72.51c-.58.36-.58.07-1.37,1-1.15,1.15-2.3,1.94-2.3,3.38H220c.29,0,.43.22.79.22.65,0,1.23-1.37,1.66-1.44s.43-.51.58-.51h.28c.15,0,.08-.36.29-.36h.07c.29-1,1.16-1.29,1.44-2.3h.15c.79,0,2-2.16,2-2.16.22-.43,1.23-.94,1.23-1.8,0-.22-.36-.15-.58-.15C228,35.35,227.59,35.21,227.45,35.35Z"/><path class="cls-1" d="M249.62,34.13a.28.28,0,0,1,.22-.07v-.15l-.07-.07c.07-.07.14-.07.43-.07.29-.36,0-2.45.5-2.74a1,1,0,0,0,.29-.14c.14-.07.43-.72.72-.72s.43.07.72.07c.07,0,.36-.36.36-.36s.43.29.72.29c.58,0,.86-.65,1.37-.65s.72.65,1.29.65h.22v.07c0,.72.72.65.72,1.44h.14c2.67,0,3.17,1.3,4.68,1.3,1.08,0,1.59,1.73,2.67,1.73a1.1,1.1,0,0,0,.5-.08c.15.29.65.94.94.94,1.44,0,1.37-.94,2.09.07,0,.36.79.36.43.58s1.58,1.66,1.65,1.51a.23.23,0,0,0-.07.15c0,.07.07.43.07.57s-.64.14-.64.72.57,2.31-.29,3c.14,1.22-.94.86-.72,1.87h-.14c-.22,0-.29.79-.65.79s-.65.65-.65.22c-.36.43-1.51,1.44-1.15,1.44-.36.36-1.16-.22-1.16,1.22-.43.07-1.8,2.23-1.8,1.87-.21.22-.57.07-.57.43-1.23.51-2.52,2.16-2.52,3,0,.07.14,0,.14.14,0,.43-.79.79-1.15.79a.39.39,0,0,1-.22-.07c-.64.36.22,1.22-1.36,1.22-.36.08-.65,1-.72,1-1.16,0-1.73,1-2.74,1a12.79,12.79,0,0,1-1.73-.22c-.72,0-.93.51-1.37.58s-1-.58-1.15-.58c-1.29-.64-1.22-.07-2.73-1.58V55c0-.14,0-.21-.08-.21h-.14v-.44h-.14v-.5a.8.8,0,0,1-.22.07c-.07,0-.07-.07-.07-.14V53.5a.29.29,0,0,0-.15-.22c0-.14.15-.21.15-.43-.94-.93-.07-1.94-.94-2.66.22-.58.15-1.59.65-1.95a2.93,2.93,0,0,1-.43-1.08s.21-.14.21-.28-.07-.29-.21-.36c.14-.15,1.15-2.31,1.15-2.31,0-.21-.14-.36-.14-.5a16.89,16.89,0,0,1,1.72-2.38v-.5c0-.51.44-.58.94-2.38,0-.5.43-.65.43-1.15,0-.29-1.08-1.66-.21-1.66C249.41,35.57,249.26,34.35,249.62,34.13Zm12.31,2h-1.36a11.41,11.41,0,0,1-1.66-.15c-.29,0-.29.22-.43.22s-.36-.07-.43-.07a1.49,1.49,0,0,1-.8.14,1.49,1.49,0,0,0-1.08-.5c-.43,0-1.51,2.59-1.58,2.59s-.36.29-.29.36c-.65.22-.29.65-.93.93,0,.58-.29.87-.29,1.08,0,0-1.59,3.89-2.88,5a2.09,2.09,0,0,0,.21,1c-.57.15-1,1.52-1,1.37,0,.51.07.65.07,1,0,.65-.29.43-.29,1.08,0-.14.58,4.46,1.66,4.46.64,0,1-.57,1.08-.57s.14.07.36.07c1.08,0,.72-.65,1.58-.65.14,0,.36.29.86.29V53.5c0-1.3,1.8-1.3,2.16-1.58,1.73-1.23,2-3,4.54-4.18a1.68,1.68,0,0,0,.36-1.15v-.22c1.37-.72,1.94-2.59,2.95-3.81-.28-.22.22-1,.22-1.66,0-.86-.43-1.58-.22-2.16-.28-.29-.21-.86-.57-1.37C262.22,35.71,261.86,36.15,261.93,36.15Z"/><path class="cls-1" d="M329,39.46c-.22.07-.79.21-.94.65-.64.21-1.58.07-1.8.79-.21-.07-.43-.29-.72-.29-.07,0-.43.14-.43.36a3.29,3.29,0,0,1,.07.36c0,.65-3,1.66-2.88,1.66h-.14v.07c0,.29-.15.36-.22.58s.72.07.72.28c0,1,1.44,1.23,1.08,1.23.72.5,1.16,2.23,1.16,1.8a11.79,11.79,0,0,1,.64,3.67c0,1.3-.5,1.08-1,1.58,0,.22-.22.36-.22.51s.07.14.22.14c-.15.43-.72.36-1,.58-.58,1.65-1.87.93-2.95,3h-.08a3.29,3.29,0,0,1-.36-.07.07.07,0,0,0-.07.07v.22c0,.36-1.8.93-2.16.93s-.22.72-.43.87h-.29l-1.58.93c-.22,0-.36-.14-.44-.43-.5.72-.57.43-1.58,1.44a8,8,0,0,1-2.3.65h-.51c-.36,0-.57.36-.93.36h-.29c-.43,0-1.15.36-1.87.36-1.08,0-2.16-.07-2.74-.87h-.22c-.28,0-.36.15-.72.15-.57,0-.72-.65-1.51-.65h-.21c-.44-.43-.22-.94-1-1.22-.36-.22-1.37-.51-1.37-1.73-.07-.07-.15-.15-.22-.15,0-.5.44-.93.44-1.44a.51.51,0,0,0-.08-.36c1.3-.14,0-1.51,2-1.51,1-1.08,2.23-3.09,4.1-3.31.36-.07.15-.72.72-.72a.29.29,0,0,1,.29.14c.43-.07.58-.43.72-.79.07,0,.07.07.15.07a3.76,3.76,0,0,0,2.23-1.87c.14.07.21.15.29.15.28,0,1.8-1,1.8-1.3v-.22c.14-.14.36,0,.36-.14v-.07c.64,0,.86-.29,1.65-.29.36,0,.22-.65.43-.86H315c.29,0,.21-.36.57-.36h.08a5.41,5.41,0,0,0,1.15-1c0-.15-2.45-1.37-1.95-1.37-.21-.15-.43,0-.43-.65-.07,0-.14.07-.21.07-.94,0-.72-1.08-1.88-1.08-.57-.5-2.16-1.58-2.16-1.73h-.28c-.65,0-1.59-1.72-1.59-1.8v-.07c-.29-.29-.86-.14-1.08-.36-.72-1.22-2.16-3.17-2.81-3.31v-.14c0-.51-.57-.72-.79-1.08s-.07-1.08-.72-1.23v-.21c0-.65-.57-1.3-.86-1.88s-.08-1.22-.22-1.87c-.29-.93-.94-1.29-.94-3.45,0-.36.22-.44.22-.44s-.07-.07-.07-.21c0-.43.14-.87.14-1.66,0,0,.15,0,.15-.07s-.15-.14-.15-.43c.22-1.08.65-1.8.65-2.23v-.36c0-.29.29-.29.29-.44.22-.36.36-1.8.36-1.44,0-.29.43-.36.43-.86v-.22A3,3,0,0,0,304,13c1.08-.21,1.23-2.09,2.52-2.59,0-.07-.07-.14-.07-.22,0-.28.29-.28.29-.64,1-.29,1-1.66,2.09-1.88.21-1.08,1.72-1.44,1.51-1.44a8.24,8.24,0,0,0,1.8-1.36c1.58-1.66,2.3-1,2.3-1.73,1,0,1.3-.65,1.87-1.3a30.22,30.22,0,0,0,3.6-1.15c.08,0,.15-.14.29-.14h.22c.5-.15.86-.58,1.44-.58h.5c.22,0,.22.14.36.14a1.2,1.2,0,0,1,.58-.14c.22,0,.22.22.58.22.21,0,.57-.08.93-.08s.43.08.36.29h.36c0,.07,1.87.43,1.66.43A5,5,0,0,1,329,2.09c.21.14,1.29,1,1.94,1.58.07.07,1.3,1.15,1.3,2.09h.14c.07,0,.36.5.58.65v.43a1,1,0,0,0,.72,1,.51.51,0,0,0-.15.43c0,.14.29.5.36.79s-.14.72.15,1c-.07.5.14.72.14,1.15,0,.22-.14.29-.14.51a2.78,2.78,0,0,1,.29,1c0,.07-.08.35-.22.35a.8.8,0,0,1-.22-.07v.07c0,.22-.14,1.23-.28,1.23a2.86,2.86,0,0,1-.36-.07,12.66,12.66,0,0,1-.29,1.44c-.22.57-.72,1.29-1.15,1.29h-.22v.51c0,.29.36.21.36.43a24,24,0,0,1-1.87,1.94h-.36a4,4,0,0,1-1.3-.43c-.86-.14-2.52.29-2.52-1.37,0-1.08,1.23-1.29,1.95-1.94a9.5,9.5,0,0,1,1.44-4c0-.07-.08-.29-.08-.43,0-1.08.72-2,.87-2.81a2.08,2.08,0,0,0-.15-.72c0-.22.15-.43.15-.72s-.22-.29-.22-.43a.69.69,0,0,1,.07-.22h-.21V6.48c0-.07-.43-.14-.43-.22s-.08-.72-.22-.79a5.19,5.19,0,0,0-1.66-1.94h-.21c-.51,0-.79-.22-1.23-.22h-.28c-.15-.21-.15-.65-.37-.79a9.25,9.25,0,0,0-1.51.14,8.63,8.63,0,0,0-1.8.87c-.36,0-.5-.15-.5-.43V3c-.58.07-.51.87-1.15.87-.29,0-.44-.29-.87-.29-.07,0-.21.14-.43.14-.07-.07-.14-.36-.36-.36-.94,0-.5,1.44-1.73,1.44-.14,1.15-1.51,1.44-1.94,1.66-.94.79-2.95,3.6-3.31,3.6s-.44-.22-.87-.22c-.36.29-1.44.72-1.44,1.8,0,.08.07.22.07.29s-.28-.07-.36-.07c-.93,0-1.15.72-1.15,1.65V14c-.07.14-.14.14-.21.14-.22,0-.36-.07-.51-.07s-1.15,2-1.15,2-.07.07-.07.14c0,.22.07.36.07.58s-.65.21-.65.79c0,.29.07.43.07.58s0,.28-.21.28h-.15a2.52,2.52,0,0,1-.93,2.31c0,.14.07.21.07.36,0,.65-.29.86-.5,1.37a7,7,0,0,1,.72,1.72c0,.29-.29.51-.29.65a4.46,4.46,0,0,0,.57,1.66c0,.07.22-.07.22.14,0,.43.5.94.5,1.15s-.14.36-.14.51c0,.65.94,1.22.94,1.44s-.08.93.64,1V31c0,.36.08.43.08.65v.22c.28.57.93.64.93,1.58.79.72,1.95,1,2.31,2.3a10.59,10.59,0,0,1,1.8,1.3c.72,0,.79.5,1.08.94h.21c.51,0,.87.57,1.66,1,.07.07,0,.14.21.14.36,0,.94,1.22,1.37,1.22h.15c.57,0,1.58,1.51,2.37,1.51,2.16,0,1.66-1.29,3.39-1.29,1.8-1.73,3.89-1.87,4.53-2.3A3.76,3.76,0,0,0,328.39,37c.51-.22,1.23,0,1.51-.65h.22a4,4,0,0,0,2.81-1.44.93.93,0,0,0,.43.07c.79-.14.58-.5.79-.5s.29.07.43.07c.29,0,.58-.5.87-.65a4.92,4.92,0,0,1,1.08-.07h.21c.22,0,.29-.43,1.16-.43.57,0,.86-.5,1-.5,1.23-.22,2.6.21,3.68-.72a.91.91,0,0,0,.43.07c.29,0,.65-.15,1.08-.15s.72.22.94.22,1.29-.07,1.58-.43c.07.21.79-.07.86.5a.16.16,0,0,0,.15-.14v-.07c1,.72,1,1.22.5,1.65-.21.94-.07,1.23-1.22,1.8-1.37.22-2.45-.65-2.45-.07,0,.29-1.66.14-1.87.36-.15-.22-3.68.58-3.32-.07a.24.24,0,0,0-.14-.07c-.29,0-.5.21-.65.21s-.29-.14-.43-.14c-1.44,0-3.67.72-3.67,1.3C332.21,37.16,330.05,39.1,329,39.46ZM305,58.47v.29h.22a9.65,9.65,0,0,1,2,.57,5.5,5.5,0,0,1,1.87-.5,2.23,2.23,0,0,0,1.52-.43h.5c.29,0,.22-.51.65-.51A.71.71,0,0,0,312,58c.58,0,.65-.43,1.16-.43h.36A17.83,17.83,0,0,1,317,55.16h.22c.15,0,.22-.44.29-.44h.21c.36,0,.15-.5.87-.5,1,0,2.88-2.81,2.88-2.74V51.2a10.31,10.31,0,0,1,.86-2,5,5,0,0,0-.36-1.51v-.22c0-.14-.21,0-.21-.14v-.14c0-.29-.36-.15-.44-.29-1.29-1.08-1.22-1.87-2-1.87-.07,0-.22.28-.65.28-.58,0-3.1,2.09-3.1,2.09h-.28a6,6,0,0,0-1.66.87v.21a.07.07,0,0,1-.07.07c-.07,0-.15-.07-.22-.07s-.29.51-.57.51c-2.16,0-1.88,1.94-3.32,1.94-.28.29-.28.86-.64,1-2.38.65-.72,2.45-2.52,2.45-1.23,0-.87,1-1,1.36h-.15a3.33,3.33,0,0,0-1.08,1.59,5.86,5.86,0,0,0,.36.93C304.49,58.4,305,58.4,305,58.47Zm37.59-22.54v0Z"/><path class="cls-1" d="M379.22,35.71c-.21-.07-.43-.07-.43.29s.07.29.07.58c0,.58-1.44,0-1.36,1.22-.87.29-.65,1.59-1.66,2-.07,0-.07.14,0,.21-.14.36-.65.44-.58.65-.07-.07-.21.22-.28.22V41a11.62,11.62,0,0,1-1.44,1.66.25.25,0,0,0-.08.22c0,.21-.72.36-.79.93v.07c-.5.08-1.22.65-1.22.94l-.15.14c.08.15-.21,0-.21,0-.22-.07-.22.58-.36.8-.29.21-.79.14-1,.64.07.22,0,.29-.07.29s-.07.07-.15-.07c0,.36-.36.22-.36.43v.22c-.64.07-.72.72-1.15.93-.57.65-2.09,2.38-2.16,2.16-.14.29-.65.44-.72.94a.8.8,0,0,0-.22.07c-.43-.14,0,.51-.43.36l-.07-.14v.14c0,.15-.22.29-.22.36-.07.43-2.3,1.66-2.73,1.73a.24.24,0,0,1-.07.14,3.86,3.86,0,0,0-.29.87c0-.07-.15-.07-.15-.07-.43-.08-1,.72-1.15,1-.07.08-.21,0-.29.15.15.14-.07.07-.21,0s0,.07-.22,0a9.1,9.1,0,0,1-2.16.57l-1-.28c-.14-.44-.86-.72-1.08-.8-.14-1.08-1-1.44-1.51-2.16-.21-.5.29-.43.22-1-.22-.08-.15-.36-.22-.72,0,0-.5-.94-.14-1.37h.21c-.07-.29-.36-.43-.43-.65a5,5,0,0,1,.43-2.52c.15-.58.15-1.22.29-1.58,0-.08.15,0,.15-.22s.36-.58.43-.94-.22-.5-.22-.72c0,.08.15-.14.22-.21s.5-1.15.57-1.44c-.36,0-.64,0-.64.29s-.51.07-.8.43c-.28.07-.07.36-.36.57,0,.22-.86.51-.64,1.23-1.3.14-.87,1.87-2.09,2a2.86,2.86,0,0,1-1.3,2c-.36.29-.5.58-.86.58.21.79-.43.86-.51,1.44a16.28,16.28,0,0,0-1.65.86v1.44c-.22.22-.36.79-1,.94-.36,0-.29.43-.36.64s-.72,0-.65.44a7.42,7.42,0,0,0-2.52,1.08c-.14.07-.72-.29-.72.28a3.23,3.23,0,0,1-1.8-1c-.36,0-.36.28-.79.21-.65-.57-.79-1.73-1.37-2.59a6.31,6.31,0,0,1-.43-2,1,1,0,0,1-.15-.5,7.09,7.09,0,0,1,.44-1.37c0-.29-.29-.72-.22-1,0,.08.22-.14.22-.21s-.08-.22,0-.29A9,9,0,0,1,337,46c.21-.36,0-.93.43-.93,0-.65-.43-1.08.14-1.44.15-.65-.28-.87.08-1.23,0-.5.14-.65.64-.65-.07-1,.36-1.44.44-2.16.21-.21.57-.36.64-.57s.44-.51.44-.72a3,3,0,0,1,.21-.58l.36-.22c.15-.21.07-.5.22-.79s.58-.07.65-.21.07-.43.14-.51a2.66,2.66,0,0,1,1-.72c-.14-.57.21-.57.14-1.22.65.07.43-.65,1.23-.65.14-.14.14-.65.28-.94a.89.89,0,0,0,.94-.64c2.16-.22,3.31-.58,5.11,0,.22-.08,1.66.57,1.88.28.14.22,1.22.22,1.58.44-.07.43.72-.22.79.21a.9.9,0,0,0,.58.58s.29-.07.36,0,.14.5.29.57c.72,0,.79,0,1.08-.28,0,0,.5-.15.5-.22s-.07-.22,0-.29c.22-.36.58-.86.79-1.29.15-.08.22.14.22-.22v-.22a5.42,5.42,0,0,1,.29-1c.64.07,1-.29,1.51-.36.29,0,.29.14.57.21s.8,0,1,.15a3.7,3.7,0,0,0,.72.79c.15.07.36-.07.43,0a1.58,1.58,0,0,0,.72.86c-.14,1.08-.79,1.8-.93,2.74a1.34,1.34,0,0,1-.65.29c-.07.93-1.08,1.44-.58,2.23-.43.21-.5.65-1.22.43-.07.29,0,.51-.22.79-.07.07-.36.22-.36.29a8,8,0,0,0,0,1.3c-.07.21-.57.57,0,.64a1.82,1.82,0,0,0-.64,1.88c-.51.29-.65.93-.94,1.22a5.79,5.79,0,0,1-.29,1.66c-.07.43-.36.57-.36.86s.15.65.22,1.08a1.6,1.6,0,0,0,0,.58c.07.29-.07.93,0,1.58,0,.22-.07,1.15.07,1.23a2.13,2.13,0,0,0,.36,1.08c.07.21.43.21.65.28a4.31,4.31,0,0,0,2-.93c1.66-.87,3.53-2.59,3.53-2.45.87-1.44,1.66-.94,1.8-2a.24.24,0,0,1,.07-.14c.73-.29.8-.65,1.59-1.37h.07a.29.29,0,0,0,.15-.07c.28.07.35-.43.43-.43.65-.58,1.65-1.08,1.94-1.95.29-.07.36-.21.58-.21h.14c.22-.15.36-.87.65-.72s.07-.08.14-.22.08-.07.08,0v.14a.76.76,0,0,0,.07-.35l-.07-.08H372a8.47,8.47,0,0,0,.51-.86c.07-.07.43-.29.5-.58,0-.07.22-.14.22-.21-.15-.29,1.65-1.8,1.8-1.87a1.26,1.26,0,0,1,.79-1.09c.07,0,.14-.07.21-.07a.24.24,0,0,0,.08-.14.4.4,0,0,1-.08-.29c0-.07,2.38-2.88,2.45-3a4.89,4.89,0,0,0,.51-.58c1.08-.43.64-1,1.15-1.66l.65-1a8.87,8.87,0,0,0,.86-1.52c-.07-.36.29.15.22-.28l.07-.08c.29.08.57-1.15.86-.86a.23.23,0,0,1,.15-.07V27a.62.62,0,0,1,.57.15c.72-.08,1.23.14,1.08,1.51-1.08,1.22.51,1-.72,1.29-.14.36-.07.58-.21.8s-.87.72-1.23,1.15c-.21.29-.86.79-.57,1s-.29.28-.72.93c-.15-.07-.15.36-.29.36a.77.77,0,0,0-.36-.14v.21C380.3,34.35,379.3,35.64,379.22,35.71Zm-26.71.72c-.14-.07-.07-.64-.07-.72-.36-.07-.72.08-1,0a1,1,0,0,0-.14-.28h-.22c-.14,0-.07-.22-.14-.22-.72-.14-1.44-.14-1.95-.22s-.57.36-.94.44a2,2,0,0,1-1.22.28c-.43.94-1.51,1.16-1.58,2.24-.29.29-.79.21-.72,1-.36,0-.29.43-.44.71-.57.22-.57.87-.79,1.16a4.33,4.33,0,0,0-.93,1.44c-.07.29-.29.14-.44.65-.71.43-.36,1.51-.79,1.94-.5.86-.43,2.52-.65,3.6-.43.14-.21.58-.21.94-.36,0-.15.5-.29.5a.4.4,0,0,1-.07.43c.07.22.14.15.14.22.29.86.29,2,1.3,2,.65-.36.94-1.15,1.73-1.29-.22-.87.43-.94.64-1.08s0-.58.22-.51a4.34,4.34,0,0,1,1.44-.43c-.43-.43.29-.65.43-.93.07,0,0-.15,0-.15.07-.29.15-.14.15-.21s.07-.58.36-.8c.5-.64,1.29-.93,1.8-1.51.07-.07,0-.36,0-.5s.36-.15.43-.22.07-.57.22-.86c0-.07.14-.15.21-.29s.72-.43.79-.58v-.72c.29-.36,1.08-.72,1.16-.93a2.92,2.92,0,0,0,.21-.72c.15-.15.51-.15.58-.22s.21-.43.65-.29a4.17,4.17,0,0,1,.72-1.73A2.36,2.36,0,0,0,354.17,37c-.44,0-.65-.43-1.08-.58C353,36.29,352.65,36.43,352.51,36.43Z"/><path class="cls-1" d="M392.54,10c0,.21.15.57.15.86,0,.65-.87,1.3-.87,1.66v.14h-.29c-.79,0-1,.36-1,1.08v1c0,1-.58.79-.58,1.44a.66.66,0,0,0,.07.36c-2,.65-1,1.73-1.87,2.67v.5c0,.58-.14.94-.14,1.51v.15c0,.43-.44.28-.65.5a.78.78,0,0,1,.21.5c0,.51-.64,2.74-1.44,3.32,0,.07.08.14.08.21s-.72,2.95-.72,3.46c0,.07.07.14.07.21h-.36c-.36,0-.22,1.16-.87,1.23v.43c0,.86-.36,1.37-.43,2.23.07.36.43.51.87.51.14,0,.35-.08.57-.08,0,0,.07-.21.15-.21s.21.21.93.21c.51,0,.65-.21,1.15-.21,0,0,.15.21.22.21s.5-.07.86-.07.72.22,1.08.22.51-.15.72-.15c.8,0,1.52.22,2.16.22.08,0,.22-.07.29-.07.22.07.29.43.58.43s.36-.14.65-.22c.14,0,.36.08.5.08a2.22,2.22,0,0,0,1.58-1.23c0-.07-.07-.21-.07-.29.15,0,.36.08.51.08.72,0,.57-.36,1.29-.65.07,0,.22.07.29.07a9.21,9.21,0,0,1,1.58-.72c.51,0,.73-.36,1.08-.36a1.11,1.11,0,0,1,.58.22c.22-.36.58-.44,1.23-.44h1.08c.07,0,.21.15.21.15.51,0,1.08-.15,1.51-.15,2.31,0,3.46.8,3.32.8.28,0,.43-.22.79-.22a14.91,14.91,0,0,1,2,1.08c1.23,0,1.3.58,3.1,1.58H415c.21,0,.29.65.72.65.65,0,1.15,1.23,2,1.59a1,1,0,0,0-.21.5c0,.43.65.79.65,1.37a3.12,3.12,0,0,1-.65,1.66c.07.28.14.43.14.5a4.16,4.16,0,0,1-.72,1.94v.22a5,5,0,0,1-1.44,3l-.65.8v.28c0,.36-2.08,2.67-3,3.6-.43.65-1.15,2-1.87,2h-.15c-.79,1.8-2.16,1.8-2.3,2.45a7.83,7.83,0,0,1-1.44,1.22h-.29c-.14,0-.58.58-1.29.65-.51.22-.15,1-.87,1a6.49,6.49,0,0,1-.86-.15,2,2,0,0,0-.51.15c-1.65-1.51-2.37-2.38-2.37-4.47a27.73,27.73,0,0,1,.57-3.09c0-.51-.07-1.08-.07-1.59,0-.79.36-1.15.43-1.87.22-1,.07-2.16.22-3.24a18.45,18.45,0,0,0,.43-2.74c0-.57-.29-.64-.29-1.15a.26.26,0,0,1,.07-.21,2.31,2.31,0,0,0-1.94-.8H399a6.58,6.58,0,0,0-2.95-1h-.65c-.14,0-.5,0-.5-.22a12.58,12.58,0,0,1-1.44.22,7.9,7.9,0,0,0-1.44-.22h-.36a2.7,2.7,0,0,0-1.08-.21h-1.37c-.07,0-.22-.22-.36-.22s0,.22-.29.22-.43-.22-.79-.22c-.65,0-1,.29-1.66.29-.43,0-.79-.07-1.22-.07v.07c0,.07-.07.21-.14.21a1.91,1.91,0,0,0-.87-.28c-1.15,0-.57.57-1.44.57H382v.36c0,.79-.65,1-.65,1.87a1,1,0,0,0,.07.44c-.79.57-.65,1.36-.65,2.23a5.21,5.21,0,0,0-1.36,3.53c-.07.07-.36.14-.44.36V47c-.36.29,0,1.15-.43,1.65-.14.15-.43.22-.43.51,0,.07.07.21.07.29a5.13,5.13,0,0,0-.43,1.22v.29a4.52,4.52,0,0,1-.43,1.15c0,.07-.14,0-.14.36v.5c0,.29-.65.72-.65,1a4.54,4.54,0,0,0,.14.65.39.39,0,0,1-.14.29v.21c0,.36-.58.15-.58.65V56c0,.58-.22.94-.22,1.51v.15c0,.28-.36.28-.64.28v.51a3.55,3.55,0,0,1-.22,1.29h-.14c-.44,0-.22.65-.65.65-.72-.14-.94-1-.94-1.87a4.1,4.1,0,0,1,.94-2.81c0-.29-.22-.43-.22-.79s.43-.22.65-.43a1.21,1.21,0,0,1-.22-.58,2.86,2.86,0,0,1,.8-2.09v-.28c0-.44-.22-.58-.22-1.16H375c.15,0,.22-.21.22-.43v-.21h-.07c.57-1.37.93-3.24,1-3a2.56,2.56,0,0,1,.87-1.22c0-.15-.07-.36-.07-.51,0-.64.36-1,.64-1.94.65-2.52.8-2.16.8-2.88V40a3.67,3.67,0,0,0,.64-1.66c0-.36-.21-.43-.57-.43-.79,0-2.31-.07-2.88.43a5.6,5.6,0,0,0-1.08-.07c-1.8,0-2.52,1.29-4,1.29-.58,0-2.09,1.59-2.09,1.44,0,.08.07.15.07.22s-.86.57-1.44,1v.36c0,1.65-.72,1.65-1.37,1.65s-1.37-1.08-1.94-1.08a2.93,2.93,0,0,1-.36.08v-.22c0-.79-.79-.72-1.23-1-.29-.57-.21-1.51-.79-1.87,1.37-3.24,3.67-2,4.9-3.24.79,0,2.3-.58,3.24-.58h.43c0-.43,1.51-.28,2.59-.65a6.74,6.74,0,0,0,2.31-.79,1.38,1.38,0,0,0,.79.22c.86,0,3.17-.58,3.24-.87.14,0,.36.08.5.08a5.44,5.44,0,0,0,1.66-.51c0-.14-.22-.43-.22-.57s.07-.22.29-.22a12.54,12.54,0,0,1,1.08-2.95c0-.22-.07-.43-.07-.65a13,13,0,0,1,1.08-3.38,8.54,8.54,0,0,0,.79-2.74V22.9c.22,0,.14-.29.22-.43s.43-.44.57-.8v-.36a4.16,4.16,0,0,1,.22-1.29c0-.07-.07-.22-.07-.29a.29.29,0,0,1,.07-.15.24.24,0,0,0,.14.08c.22,0,.65-2.38,1.3-4.11,0-.07-.07-.21-.07-.29a.24.24,0,0,1,.07-.14c.22-.14.29-.79.43-1.22,0-.07-.07-.15-.07-.29,0-.43.43-.07.43-.79v-.58a18.65,18.65,0,0,1,1-3.24V8.57a15.52,15.52,0,0,0,.29-2.52c0-.29-.07-.58-.07-.94.43-.36,1-.65,1.44-1,.79,0,1,.51,1.65.65h.15c.64-.36,2.08,1.44,2.08,1.44v.29c0,.14.15.07.22.07,0,.29.07.58.07.87,0,1.22-.79,1.36-.79,2.16a.26.26,0,0,0,.07.21h-.14c-.15,0-.29-.14-.43-.14A.5.5,0,0,0,392.54,10ZM375.12,49.83v0Zm32.26.57h.14a9.34,9.34,0,0,1,2-1.94,2.93,2.93,0,0,1-.08-.36.39.39,0,0,1,.15-.36h.07c.22,0,.94-.72.94-.86v-.29c0-.22,1-.79,1.22-1.08l1.66-3.24c0-.07.14-.15.14-.22a6,6,0,0,0,.94-2.23c0-2.81-2.31-3.17-3-4.54a1,1,0,0,1-.43.15c-.29,0-.43-.29-.79-.29a1,1,0,0,0-.43.14,4.35,4.35,0,0,0-1.59-1,1.87,1.87,0,0,1-.93.15c-.87,0-1.95-.36-2.74-.36a3,3,0,0,0-1.08.36c-.14,0-.21-.07-.36-.15.07,0-1.8.36-1.8.87,0,.29.07.36.29.36h.36c.29,0,0,.29.29.29.14,0,.5-.08.64-.08A5.13,5.13,0,0,1,405.5,38c-.57.57-.14,2.23-.79,2.66a2.29,2.29,0,0,1,.43,1.66c0,.93-.21,1.94-.21,2.66s-.65.29-.65,1.3a5.83,5.83,0,0,0,.22,1.15.63.63,0,0,0-.37.65c0,.29.08.57.08.79s-.22.36-.22.43.29,0,.29.43-.07,1.23-.07,1.8a1.22,1.22,0,0,0,.65,1c.21,0,.43-.43.43-.43C407,50.55,407,50.4,407.38,50.4Z"/></g></g></svg>