<svg xmlns="http://www.w3.org/2000/svg" viewBox="0 0 660.79 68.7"><defs><style>.cls-1{fill:#232222;}</style></defs><title>title_graphic</title><g id="レイヤー_2" data-name="レイヤー 2"><g id="レイヤー_2-2" data-name="レイヤー 2"><path class="cls-1" d="M36.4,34.6V67.7H31.1L29.2,62c-3.4,4.8-7.1,6.7-12.5,6.7-6.1,0-11.2-2.9-13.8-7.8C.7,56.6,0,52.3,0,43.1V24.7C0,14.1.8,10.3,3.9,6.2,6.8,2.2,11.9,0,18,0c7.3,0,12.7,3.1,15.7,8.9,1.7,3.3,2.4,7.4,2.4,13.8H25.8c0-9.2-2.3-13-7.9-13a6.52,6.52,0,0,0-6.1,3.4c-1.2,2.2-1.5,4.2-1.5,9.6V43.1c0,5.5.3,8.4,1.1,10.9a7.2,7.2,0,0,0,7,5c5.4,0,7.7-3.9,7.7-13.2V43.1H17.6V34.6Z"/><path class="cls-1" d="M65.8,67.7H55.5V1H71.6c6.1,0,10,1.2,13.2,4,4,3.4,6,8.5,6,15.1,0,8.4-3,14.2-9,17.3l9.8,30.3H80.8L72,40.3H65.8Zm3.8-36.9c4.4,0,6.4-.5,8-2.1s2.5-4.4,2.5-8.1-.8-6.3-2.5-8-3.6-2.1-8-2.1H65.8V30.8Z"/><path class="cls-1" d="M119.8,53.2l-2.7,14.5H107L119.8,1h14.1l13.5,66.7H136.8L134,53.2Zm7-39.4-5.4,29.9h10.9Z"/><path class="cls-1" d="M174.8,67.7H164.5V1h17.1c6.7,0,10.9,1.3,14,4.3,3.6,3.4,5.3,8.4,5.3,15.5s-1.7,12.2-5.3,15.6c-3.1,3-7.3,4.3-14,4.3h-6.8Zm4.5-36.5c8.3,0,10.9-2.5,10.9-10.4s-2.6-10.3-10.9-10.3h-4.5V31.2Z"/><path class="cls-1" d="M228.3,38.3V67.7H218V1h10.3V28.8H243V1h10.3V67.7H243V38.3Z"/><path class="cls-1" d="M283.7,67.7H273.4V1h10.3Z"/><path class="cls-1" d="M329,22.7V21.3c0-7.7-2.7-11.6-7.8-11.6a6.52,6.52,0,0,0-6.1,3.3c-1.3,2.2-1.6,4.2-1.6,9.6V44.8c0,5.1.3,7.7,1.1,9.9a6.93,6.93,0,0,0,6.6,4.3c3.8,0,6.3-2.2,7.4-6.6.4-1.7.5-3.2.6-8.1h10.4v2.3c0,14.5-6.3,22.1-18.3,22.1-6.7,0-12-2.6-14.9-7.4-2.5-4.1-3.2-8-3.2-17.9V24.7c0-10.6.8-14.3,3.9-18.5C310,2.2,315,0,321.2,0c11.4,0,18.1,7.6,18.1,20.7v2Z"/><path class="cls-1" d="M383.59,1h16.3C413,1,419.2,7.7,419.2,21.9V46.8c0,14.2-6.2,20.9-19.31,20.9h-16.3ZM399,58.2c7.29,0,9.9-3.8,9.9-14.2V24.7c0-10.5-2.61-14.2-9.9-14.2h-5.11V58.2Z"/><path class="cls-1" d="M468.79,10.5h-19.9V28.1H463.6v9.5H448.89V58.2h19.9v9.5h-30.2V1h30.2Z"/><path class="cls-1" d="M511,19.6c-1.6-6.6-4.6-9.9-8.8-9.9a6.6,6.6,0,0,0-6.7,6.8,10,10,0,0,0,2.8,6.7c1.7,1.9,1.7,1.9,8.8,7.3,5.6,4.4,7.7,6.3,9.9,9a19.49,19.49,0,0,1,4.3,12.2c0,10.1-7.4,17-18.3,17-11.4,0-18.1-6.1-20.2-18.8l9.9-2.9c1.3,8,4.8,12,10.3,12a7.24,7.24,0,0,0,7.6-7.6c0-4.2-2.1-6.9-9.9-13-9.3-7.3-9.7-7.7-12.2-10.9a18.08,18.08,0,0,1-3.7-11.1c0-9.6,7.2-16.4,17.4-16.4,9.5,0,15.9,5.7,18.7,16.7Z"/><path class="cls-1" d="M548.79,67.7h-10.3V1h10.3Z"/><path class="cls-1" d="M604.69,34.6V67.7h-5.3l-1.9-5.7c-3.4,4.8-7.1,6.7-12.5,6.7-6.1,0-11.2-2.9-13.8-7.8-2.2-4.3-2.9-8.6-2.9-17.8V24.7c0-10.6.8-14.4,3.9-18.5,2.9-4,8-6.2,14.1-6.2,7.3,0,12.7,3.1,15.7,8.9,1.7,3.3,2.4,7.4,2.4,13.8h-10.3c0-9.2-2.3-13-7.9-13a6.52,6.52,0,0,0-6.1,3.4c-1.2,2.2-1.5,4.2-1.5,9.6V43.1c0,5.5.3,8.4,1.1,10.9a7.2,7.2,0,0,0,7,5c5.4,0,7.7-3.9,7.7-13.2V43.1h-8.5V34.6Z"/><path class="cls-1" d="M660.79,67.7h-9.2l-18-44.4V67.7h-9.8V1h10.4L651,42.5V1h9.8Z"/></g></g></svg>