<svg xmlns="http://www.w3.org/2000/svg" viewBox="0 0 80.2 68.7"><defs><style>.cls-1{fill:#232222;}</style></defs><title>title16</title><g id="レイヤー_2" data-name="レイヤー 2"><g id="レイヤー_2-2" data-name="レイヤー 2"><path class="cls-1" d="M19.3,67.7H9.6v-51H0V10.6C5.4,8.3,11.2,4.1,13.6,1h5.7Z"/><path class="cls-1" d="M69.7,18.3V16.7c0-5-2-7.5-6.2-7.5A5.72,5.72,0,0,0,58,12.3c-1.1,2.2-1.4,4.7-1.4,11v8.3c2.9-3.8,5.7-5.3,10.1-5.3,9.1,0,13.5,6.5,13.5,20.1,0,14.7-5.7,22.3-16.7,22.3-5.3,0-9.6-2-12.3-5.6-3-4-4.3-9.3-4.3-17.8V21.5c0-7.5,1.2-12,4-15.7A15.7,15.7,0,0,1,63.6,0c9.6,0,15.8,6.5,15.8,16.7v1.6ZM56.6,48.7c0,7.3,2.2,10.8,6.8,10.8,4.9,0,6.8-3.5,6.8-12.3,0-8.4-1.8-11.7-6.6-11.7-2.8,0-4.6,1.1-7,4.1Z"/></g></g></svg>