<svg xmlns="http://www.w3.org/2000/svg" viewBox="0 0 578.19 68.7"><defs><style>.cls-1{fill:#232222;}</style></defs><title>title_aftereffects</title><g id="レイヤー_2" data-name="レイヤー 2"><g id="レイヤー_2-2" data-name="レイヤー 2"><path class="cls-1" d="M12.8,53.2,10.1,67.7H0L12.8,1H26.9L40.4,67.7H29.8L27,53.2Zm7-39.4L14.4,43.7H25.3Z"/><path class="cls-1" d="M67.8,67.7H57.5V1H88v9.5H67.8v18h15V38h-15Z"/><path class="cls-1" d="M123,67.7H112.7V10.5H99.8V1H136v9.5H123Z"/><path class="cls-1" d="M181.9,10.5H162V28.1h14.7v9.5H162V58.2h19.9v9.5H151.7V1h30.2Z"/><path class="cls-1" d="M209.3,67.7H199V1h16.1c6.1,0,10,1.2,13.2,4,4,3.4,6,8.5,6,15.1,0,8.4-3,14.2-9,17.3l9.8,30.3H224.3l-8.8-27.4h-6.2Zm3.8-36.9c4.4,0,6.4-.5,8-2.1s2.5-4.4,2.5-8.1-.8-6.3-2.5-8-3.6-2.1-8-2.1h-3.8V30.8Z"/><path class="cls-1" d="M283.1,10.5H263.2V28.1h14.7v9.5H263.2V58.2h19.9v9.5H252.9V1h30.2Z"/><path class="cls-1" d="M310.49,67.7h-10.3V1H330.7v9.5H310.49v18h15V38h-15Z"/><path class="cls-1" d="M357.19,67.7h-10.3V1h30.5v9.5h-20.2v18h15V38h-15Z"/><path class="cls-1" d="M423.79,10.5h-19.9V28.1h14.7v9.5h-14.7V58.2h19.9v9.5h-30.2V1h30.2Z"/><path class="cls-1" d="M466,22.7V21.3c0-7.7-2.7-11.6-7.8-11.6a6.52,6.52,0,0,0-6.1,3.3c-1.3,2.2-1.6,4.2-1.6,9.6V44.8c0,5.1.3,7.7,1.1,9.9a6.93,6.93,0,0,0,6.6,4.3c3.8,0,6.3-2.2,7.4-6.6.4-1.7.5-3.2.6-8.1h10.4v2.3c0,14.5-6.3,22.1-18.3,22.1-6.7,0-12-2.6-14.9-7.4-2.5-4.1-3.2-8-3.2-17.9V24.7c0-10.6.8-14.3,3.9-18.5C447,2.2,452,0,458.19,0c11.4,0,18.1,7.6,18.1,20.7v2Z"/><path class="cls-1" d="M514.09,67.7h-10.3V10.5h-12.9V1h36.2v9.5h-13Z"/><path class="cls-1" d="M567.89,19.6c-1.6-6.6-4.6-9.9-8.8-9.9a6.6,6.6,0,0,0-6.7,6.8,10,10,0,0,0,2.8,6.7c1.7,1.9,1.7,1.9,8.8,7.3,5.6,4.4,7.7,6.3,9.9,9a19.49,19.49,0,0,1,4.3,12.2c0,10.1-7.4,17-18.3,17-11.4,0-18.1-6.1-20.2-18.8l9.9-2.9c1.3,8,4.8,12,10.3,12a7.24,7.24,0,0,0,7.6-7.6c0-4.2-2.1-6.9-9.9-13-9.3-7.3-9.7-7.7-12.2-10.9a18.08,18.08,0,0,1-3.7-11.1c0-9.6,7.2-16.4,17.4-16.4,9.5,0,15.9,5.7,18.7,16.7Z"/></g></g></svg>