<svg xmlns="http://www.w3.org/2000/svg" viewBox="0 0 248.67 40.76"><defs><style>.cls-1{fill:#fff;}</style></defs><title>title_name2_3</title><g id="レイヤー_2" data-name="レイヤー 2"><g id="レイヤー_2-2" data-name="レイヤー 2"><path class="cls-1" d="M8.28,26.94c-.79.59-1.51,1.1-2.34,1.7a6.16,6.16,0,0,1-2.34.71C1.54,29.35.72,28.12,0,26.7c-.07-.12.21-2.14.15-2.5,0-.16.2-.39.13-.51.92-1.94,2.11-2.85,2.26-3.53,0-.08.28-.31.38-.47a6,6,0,0,1,3.49-2.54c.66-.16,0-.27,1.14-.27.06-.05,0-.05.57-.05s.65.88.51,1.23c-.2.52-1,1.39-1.15,1.71l-.18.47s0,.08.12.08.42,0,.66,0a7,7,0,0,1,1.67-.12,12.33,12.33,0,0,1,2.09.64l.39.71c.16,0,.15.63-.12,1.42A17,17,0,0,1,8.28,26.94Zm-2.1-5.23H5.9a9.16,9.16,0,0,1-1.44.63c-.46.87-.94,1-1.16,1.55s-.24.39-.3.55c-.14.36-.09.63-.29,1.15s-.06.75-.18,1.15A1.56,1.56,0,0,0,4,28.12c1.22,0,3.79-2.09,4.37-3a7.43,7.43,0,0,0,.74-.87L9.21,24C9.65,23.05,7.17,21.71,6.18,21.71Z"/><path class="cls-1" d="M24.86,21.35a3.27,3.27,0,0,0-.42.75c-.44,1.11-.64,2.22-1.06,3.29a10.86,10.86,0,0,0-.7,2.18c-.31.79-.46,1.58-.81,2.38,0,.19-.19.27-.06.35-.51,1.19-.88,2.42-1.36,3.65-.73,1.86-4.19,6.73-6.53,6.73l-.11-.12a9.14,9.14,0,0,0-1,.2c-.31-.24-.11-.12-.43-.12s-.46-.24-.64-.39c-1.54-1.51-2.75-3-2.66-5.51.4,2.1,1.12,2.69,2.68,3.84a8.18,8.18,0,0,0,1,.16c2.89,0,5.36-6.06,6.6-8.12.18-.24.06-.63.33-.83.41-.95.79-1.9,1.16-2.85.25-.64,1.83-4.84,1.79-5.15l-4.85.75a4.76,4.76,0,0,1-1.29.36c-.25-.16-1.33.35-1.7.39l-.3.16H14c-.91,0-.59-.83-.76-1.31l.13-.31c.83-2.1,2.93-1.91,4.4-2.34a2.15,2.15,0,0,0,.75.12c.52,0,1.12-.12,1.63-.12.95,0,1.82.12,2.77.12.16,0,.55,0,.65-.24a19.22,19.22,0,0,1,.78-2.3l0-.19c.78-1.39-.11-1.23.29-2.26.32-.8,1-1.43,1.3-2.18a12.39,12.39,0,0,0,.53-1.55,5.92,5.92,0,0,0,.51-1.5L27,9.15l.39-.87.26-.48V7.41a1,1,0,0,0,.4-.52,10.16,10.16,0,0,0,.22-1.07c.31-.27.26-.15.29-.51a5,5,0,0,0,.38-.87c-.08-.52.37-1,.16-1.51.1-.16.33-.55.24-.51A5.13,5.13,0,0,1,32.55,0c.59,0-.51,5.11-.88,6.06a17,17,0,0,1-.83,3c0,1-.51,2.3-.63,3.41-.12.2-.11.08-.12.71a5.47,5.47,0,0,0-.22.75A5.67,5.67,0,0,1,27.66,16c-.9,0-1.25.16-1.63,1.11a22.33,22.33,0,0,1-.78,2.18,56.7,56.7,0,0,0,8.67-1.19c.28,0,.2.4.12.6C32.68,19.89,26.67,20.88,24.86,21.35Z"/><path class="cls-1" d="M64.19,22.66c-1.68,2.32-4.46,3-6.82,3.76-4.87,1.64-9.44,3.85-14.12,6a1,1,0,0,1-1-1.39c.27-.67,2.25-1.8,3-2.16,3-.36,14.46-6.42,15.35-8.68.7-1.39-6.38-1-11.1-4.58-1.43-.82-3.25-3.24-5.16-3.24l-.24.1c-1.52,0-1.32-2.93-.77-4.31.36-.93,1-1.34,1.65-2.11.57-.26,1.08-.77,1.62-1s1.22-.1,1.89-.36c1.65,0,3.31-.56,4.9-.56.72-.26.62-.26.63-.16C55.82,3.59,65.5.41,66,1.18L66.23,1a10.63,10.63,0,0,0,1.2-.15C69.53.87,71,2.1,70,4.42s-3.67,3.18-5.7,4.16h-.52A38,38,0,0,1,57.52,10c-.2,0-.34-.05-.54-.05,1.88-1.13,4-1.6,5.85-2.47.07,0,.37-.16.41-.26C63.58,6.32,59.8,6,59.08,6c-.42.15-.25-.16-.43,0-1.58,0-6.8.82-7.78,1.59a3.59,3.59,0,0,0-1,1.55c-1.2,3,6.94,6.27,8.94,7.19,2.38,1.13,5.61,1.29,6.6,3.86A6.67,6.67,0,0,1,64.19,22.66Z"/><path class="cls-1" d="M80.3,24.4A3.71,3.71,0,0,1,79,25.79l-.19.39a18.43,18.43,0,0,0-1.61,1.47l-.43.2a5.17,5.17,0,0,1-3.87,1.86c-1.38,0-1.11-2.5-1.06-3.53h0c-.42.36-.85.95-1.37,1.07-.17.32-.11,0-.23.28s-1.07.4-1.52,1.15a1.08,1.08,0,0,0-.73.44,5,5,0,0,1-1.53.55c-.95,0-2.34-2.1-1.95-3.09a5.69,5.69,0,0,0,.44-1.51,2,2,0,0,1,.51-.59c.11-.28.19-.4.29-.63a18,18,0,0,0,1.73-2.1,13.23,13.23,0,0,0,2.38-2.1c.93-.87,2.49-1.51,3.09-2,0,0,.24-.12.3-.16a12.69,12.69,0,0,1,2.62-.83c.52,0,1.88.47,1.87,1,.14.24-.13.83-.33,1.15a3.79,3.79,0,0,1-3.17,1,2.28,2.28,0,0,0-1.36,0c-2,1.5-2.28,2.37-4.14,5a2.62,2.62,0,0,1-.79,1.3l-.14.36a1.53,1.53,0,0,1-.16.71l-.16.4,0,.2h.12a19.87,19.87,0,0,0,5.62-4.91c0-.24-.23-.32-.13-.6a5,5,0,0,1,2.18-1.5,3.55,3.55,0,0,1,1-.32c.39,0,1,.55.89.95a10.38,10.38,0,0,1-1.41,1.78,20,20,0,0,0-2,3.92,2.92,2.92,0,0,0-.24,1.31,1.52,1.52,0,0,0,.43.12c1.54,0,5.8-4.08,6.93-5.55v.4S80.5,24.4,80.3,24.4Z"/><path class="cls-1" d="M97.78,16.64a66.54,66.54,0,0,1-10.15,1.82,1.29,1.29,0,0,0-.64.24,18.88,18.88,0,0,1-1,2l-.46,1.07c0,.27-.66,1.66-.61,1.74-.9,2-1.79,7,.74,7,1.7,0,4.35-2.1,5.87-3.33.15,0,.11,0,.07.12l-.52.52c-.23.27-.72.91-1,.75-.25.44-.58.48-.54.67l-.2.2c-.36,0-.43.28-.75.4.1-.36-.45.43-.58.55s-.65.16-.66.28a1.62,1.62,0,0,0-.71.4c-.44-.08-1.14.67-1.53.35a4.42,4.42,0,0,0-.7.08c-2.82-.08-3.72-3.72-2.78-5.82a4.92,4.92,0,0,1,.26-1.15.5.5,0,0,0,.18-.48A25.23,25.23,0,0,0,83,21.59a10,10,0,0,0,.53-1.23A6.73,6.73,0,0,0,84.06,19h-.35c0,.16-.41,0-.49,0-.79-.12-1.76,1.15-2.87,1.15a.9.9,0,0,1-.91-1.3A3.51,3.51,0,0,1,82.25,17a1.89,1.89,0,0,1,1.08.28c.11-.08,0-.08.47.12l.92-.12a5.46,5.46,0,0,1,.52-.91c0-.12.24-.63.33-.75,0-.52.46-1.07.51-1.59a2.52,2.52,0,0,0,.47-1.31c.13-.11.1,0,.19-.47a2.71,2.71,0,0,0,.45-.95c.15-.28,1.07-1.51,1-1.55.25-.55.21-.43.29-.55a5.86,5.86,0,0,1,.82-1.07l.51-.2c.13-.31.66-.55.91-.79a3.13,3.13,0,0,1,2.58-1.11c.67,0,1.38.2,1,1.07,0,.12-.58,1.39-.64,1.43l-.07.27A11.55,11.55,0,0,0,92,11l-.27.28c-.37.83-1,1.19-1.31,2-.25.24-.15.08-.42.67a9.21,9.21,0,0,0-2.08,3c-.14.16-.15.08,0,.24,2.93-.2,4.91-.4,7.71-.67,0,0,2.48-.36,2.42-.32C98,16.48,98,16.52,97.78,16.64Z"/><path class="cls-1" d="M99.27,26.94c-.79.59-1.51,1.1-2.33,1.7a6.16,6.16,0,0,1-2.35.71c-2.06,0-2.88-1.23-3.58-2.65-.08-.12.2-2.14.15-2.5,0-.16.19-.39.12-.51.92-1.94,2.11-2.85,2.26-3.53,0-.08.28-.31.38-.47a5.94,5.94,0,0,1,3.5-2.54c.65-.16,0-.27,1.14-.27,0-.05,0-.05.57-.05s.64.88.5,1.23c-.2.52-1,1.39-1.14,1.71l-.19.47s0,.08.13.08.42,0,.66,0a7,7,0,0,1,1.67-.12,12.22,12.22,0,0,1,2.08.64l.4.71c.15,0,.14.63-.13,1.42A16.78,16.78,0,0,1,99.27,26.94Zm-2.1-5.23h-.28a8.77,8.77,0,0,1-1.44.63c-.46.87-.94,1-1.16,1.55a2,2,0,0,1-.3.55c-.14.36-.09.63-.29,1.15a10.45,10.45,0,0,0-.18,1.15A1.57,1.57,0,0,0,95,28.12c1.23,0,3.8-2.09,4.38-3a8.54,8.54,0,0,0,.74-.87l.12-.32C100.64,23.05,98.16,21.71,97.17,21.71Z"/><path class="cls-1" d="M115.85,21.35a3.69,3.69,0,0,0-.42.75c-.43,1.11-.63,2.22-1.05,3.29a10.25,10.25,0,0,0-.7,2.18c-.31.79-.47,1.58-.82,2.38,0,.19-.19.27-.06.35-.51,1.19-.87,2.42-1.36,3.65-.73,1.86-4.19,6.73-6.53,6.73l-.11-.12a9.14,9.14,0,0,0-1,.2c-.3-.24-.11-.12-.43-.12s-.46-.24-.63-.39c-1.55-1.51-2.76-3-2.67-5.51.4,2.1,1.12,2.69,2.69,3.84a8.33,8.33,0,0,0,1,.16c2.9,0,5.36-6.06,6.61-8.12.17-.24.05-.63.32-.83.42-.95.79-1.9,1.17-2.85.25-.64,1.82-4.84,1.79-5.15l-4.86.75a4.79,4.79,0,0,1-1.28.36c-.26-.16-1.33.35-1.71.39l-.29.16H105c-.91,0-.58-.83-.75-1.31l.12-.31c.83-2.1,2.93-1.91,4.41-2.34a2.09,2.09,0,0,0,.74.12c.52,0,1.12-.12,1.63-.12,1,0,1.82.12,2.77.12.16,0,.56,0,.65-.24a19.22,19.22,0,0,1,.78-2.3l0-.19c.79-1.39-.11-1.23.3-2.26.31-.8,1-1.43,1.29-2.18a11,11,0,0,0,.53-1.55,5.52,5.52,0,0,0,.51-1.5l.1-.24.38-.87.27-.48V7.41a1,1,0,0,0,.4-.52,8.18,8.18,0,0,0,.23-1.07c.3-.27.26-.15.28-.51a4.34,4.34,0,0,0,.38-.87c-.07-.52.37-1,.16-1.51.1-.16.34-.55.24-.51A5.16,5.16,0,0,1,123.54,0c.59,0-.51,5.11-.88,6.06a17,17,0,0,1-.83,3c0,1-.51,2.3-.63,3.41-.11.2-.11.08-.12.71a7.37,7.37,0,0,0-.22.75,5.54,5.54,0,0,1-2.21,2.1c-.89,0-1.25.16-1.62,1.11a22.33,22.33,0,0,1-.78,2.18,56.87,56.87,0,0,0,8.67-1.19c.27,0,.2.4.12.6C123.67,19.89,117.66,20.88,115.85,21.35Z"/><path class="cls-1" d="M135,24.4a3.71,3.71,0,0,1-1.34,1.39l-.2.39a17,17,0,0,0-1.6,1.47l-.44.2a5.15,5.15,0,0,1-3.86,1.86c-1.38,0-1.12-2.5-1.07-3.53h0c-.41.36-.85.95-1.37,1.07-.16.32-.1,0-.23.28s-1.06.4-1.52,1.15a1,1,0,0,0-.72.44,5,5,0,0,1-1.53.55c-1,0-2.34-2.1-2-3.09a5.67,5.67,0,0,0,.43-1.51,2.14,2.14,0,0,1,.51-.59c.11-.28.2-.4.29-.63a17.15,17.15,0,0,0,1.74-2.1,12.82,12.82,0,0,0,2.37-2.1c.94-.87,2.49-1.51,3.09-2,0,0,.25-.12.3-.16a12.58,12.58,0,0,1,2.63-.83c.51,0,1.87.47,1.87,1,.14.24-.13.83-.34,1.15a3.77,3.77,0,0,1-3.16,1,2.28,2.28,0,0,0-1.36,0c-2,1.5-2.28,2.37-4.14,5a2.57,2.57,0,0,1-.8,1.3l-.14.36a1.41,1.41,0,0,1-.16.71l-.15.4,0,.2h.11a19.6,19.6,0,0,0,5.62-4.91c0-.24-.23-.32-.12-.6a4.91,4.91,0,0,1,2.18-1.5,3.4,3.4,0,0,1,1-.32c.4,0,1.05.55.9.95a10.46,10.46,0,0,1-1.42,1.78,20.56,20.56,0,0,0-2,3.92,3.23,3.23,0,0,0-.24,1.31,1.73,1.73,0,0,0,.43.12c1.55,0,5.81-4.08,6.94-5.55v.4S135.21,24.4,135,24.4Z"/><path class="cls-1" d="M149,22.62c-.32.12-1.26,1.19-2.29,1.78a1.57,1.57,0,0,1-.88.64,22,22,0,0,1-1.86,1.7c-1,.59-1.56,1.15-2.53,1.7-.39.2-3,1.43-3.84,1.31a5.21,5.21,0,0,0-.79,0c-.33.12-.31,0-.55.08a3.84,3.84,0,0,1-1.14-.64c-.65-.35-.81-2.06-.45-3l.34-.87c0-.12.29-.24.27-.47A18.59,18.59,0,0,1,137,22.7c.51-.6,1-1.23,1.57-1.78.39-.4.68-.92,1-1.35a9.78,9.78,0,0,1,3.17-2.22c.15-.08.35,0,.54-.08A2.27,2.27,0,0,1,144,17c.33.16.49,0,.85,0l.52.08c.32,0,.21,0,.29,0a1.31,1.31,0,0,1,1.07,1.63,8.63,8.63,0,0,1-2.87,2.65,9.87,9.87,0,0,1-1.59.71,2.51,2.51,0,0,1-.55,0c-.1,0-.8.52-1,.44a19.85,19.85,0,0,0-1.57,1.27,5.27,5.27,0,0,0-.92,1.23,15,15,0,0,0-1,1.82l-.09.24c0,.39-.16.71,0,1a1,1,0,0,0,.88.48c2.06,0,5.26-2.3,7.16-3.68a19.62,19.62,0,0,0,3.18-2.66c.25-.12,1.25-.55,1.2-.23C149.64,21.55,149.53,22.42,149,22.62Z"/><path class="cls-1" d="M164.61,16.64a66.76,66.76,0,0,1-10.15,1.82,1.32,1.32,0,0,0-.65.24,19.39,19.39,0,0,1-1,2l-.47,1.07c0,.27-.65,1.66-.6,1.74-.9,2-1.8,7,.74,7,1.7,0,4.35-2.1,5.86-3.33.16,0,.12,0,.08.12l-.52.52c-.23.27-.72.91-1,.75-.25.44-.59.48-.54.67l-.2.2c-.36,0-.43.28-.75.4.1-.36-.45.43-.58.55s-.65.16-.66.28a1.62,1.62,0,0,0-.71.4c-.45-.08-1.14.67-1.53.35a4.42,4.42,0,0,0-.7.08c-2.82-.08-3.73-3.72-2.78-5.82a5.54,5.54,0,0,1,.25-1.15.51.51,0,0,0,.19-.48c.14-.35.94-2.29.91-2.41a10,10,0,0,0,.53-1.23,6.73,6.73,0,0,0,.54-1.39h-.35c0,.16-.42,0-.5,0-.78-.12-1.76,1.15-2.86,1.15a.91.91,0,0,1-.92-1.3A3.53,3.53,0,0,1,149.08,17a1.89,1.89,0,0,1,1.08.28c.11-.08,0-.08.47.12l.92-.12a5.35,5.35,0,0,1,.51-.91,2.08,2.08,0,0,1,.34-.75c0-.52.46-1.07.5-1.59a2.46,2.46,0,0,0,.48-1.31c.12-.11.09,0,.19-.47a2.71,2.71,0,0,0,.45-.95c.15-.28,1.07-1.51,1-1.55a1.91,1.91,0,0,1,.3-.55,5.86,5.86,0,0,1,.82-1.07l.51-.2c.13-.31.66-.55.91-.79a3.11,3.11,0,0,1,2.57-1.11c.68,0,1.39.2,1.05,1.07-.05.12-.59,1.39-.64,1.43l-.07.27A12.07,12.07,0,0,0,158.83,11l-.26.28c-.37.83-1,1.19-1.31,2-.26.24-.15.08-.43.67a9.33,9.33,0,0,0-2.07,3c-.14.16-.15.08,0,.24,2.93-.2,4.91-.4,7.71-.67,0,0,2.48-.36,2.42-.32C164.83,16.48,164.85,16.52,164.61,16.64Z"/><path class="cls-1" d="M167.26,23.89c-.11.27-.46.15-.35.47a18.32,18.32,0,0,1-2.19,2.06c-.29.12-.9.67-1.38,1A12.4,12.4,0,0,1,161,28.76a3.81,3.81,0,0,1-1.47.63c-.21.12-.38.16-.46,0l-.53,0c-.69-.08-1-1.11-1.34-1.42-.1-.36-.4-.52-.32-.92a10.2,10.2,0,0,1,.42-1.46.86.86,0,0,1,.11-.79,11.13,11.13,0,0,1,.53-1.15c.23-.48.42-.95.65-1.43.8-1.54,1-1.82,1.77-2.3a12.39,12.39,0,0,1,1.44-1c.29-.11.77,0,1.06-.15l.44.07c.42,0,.4,1.19.11,1.75-.14.24-.36.39-.42.75a7.13,7.13,0,0,1-.65,1.35,4,4,0,0,0-.33.55c-.18.36-.6,1.43-.73,1.75s-.31,1-.61,1.86a2.88,2.88,0,0,0-.16,1.11.51.51,0,0,0,.22,0c.63,0,3-1.66,3.16-1.78a33,33,0,0,0,2.77-2.41c.95-.91.87-.4.87-.4C167.47,23.65,167.46,23.37,167.26,23.89Zm.3-11.93c-.84.12-.75-.12-1.3-.12s-1-1.07-1.07-1.1a6.66,6.66,0,0,0,.27-1.51c.5-1.27,2.14-1.7,3-1.7a1.1,1.1,0,0,1,.4,0A1.82,1.82,0,0,1,170,9.71l-.16.39C169.27,10.81,168.45,11.8,167.56,12Z"/><path class="cls-1" d="M175.05,26.94c-.79.59-1.51,1.1-2.33,1.7a6.16,6.16,0,0,1-2.34.71c-2.06,0-2.89-1.23-3.59-2.65-.08-.12.2-2.14.15-2.5,0-.16.19-.39.12-.51.92-1.94,2.11-2.85,2.26-3.53,0-.08.28-.31.38-.47a5.94,5.94,0,0,1,3.5-2.54c.66-.16,0-.27,1.14-.27,0-.05,0-.05.57-.05s.64.88.5,1.23c-.2.52-1,1.39-1.14,1.71l-.19.47s0,.08.13.08.42,0,.66,0a7,7,0,0,1,1.67-.12,12.22,12.22,0,0,1,2.08.64l.4.71c.16,0,.14.63-.13,1.42A16.78,16.78,0,0,1,175.05,26.94ZM173,21.71h-.28a8.77,8.77,0,0,1-1.44.63c-.46.87-.94,1-1.16,1.55a2,2,0,0,1-.3.55c-.14.36-.09.63-.29,1.15a8.42,8.42,0,0,0-.17,1.15c-.06.63.76,1.38,1.43,1.38,1.23,0,3.8-2.09,4.38-3a7.43,7.43,0,0,0,.74-.87L176,24C176.42,23.05,173.94,21.71,173,21.71Z"/><path class="cls-1" d="M191,29.43c-.05-.16-.42-.24-.59-.31-.51-.2-1-1.87-1-2a6.39,6.39,0,0,1-.08-1.1,13.89,13.89,0,0,1,1.09-3.37c.3-.75-1-.24-1.46.2a30.49,30.49,0,0,0-3.3,2.73c-.29.24-1.89,2-2.05,2s0,0-.06,0a1.3,1.3,0,0,0-.29.44c-.79,0-.44,1.42-1.86,1.3s-2.38-2.1-1.38-3.84c.44-.71.78-1.39,1.24-2.14.62-1.19,1.83-2.33,2.3-3.92.06-.16-.08-.2.12-.51s.32-.32.63-.6a10.61,10.61,0,0,1,3-1.31c.47,0,.81.16.91.6s-.24.91-.31,1.31c-.21.11-.45.63-.45.63-.31.47-.76.83-1,1.27-.15.27-.66.75-.84,1.11-.33.55-1,1.78-1.31,2.33a22.79,22.79,0,0,0-1.18,2.38,71.17,71.17,0,0,1,6.26-6c.7-.48,1.4-.95,2-1.43a2.57,2.57,0,0,1,2.71-.24,1.44,1.44,0,0,1,.43,2.14,11,11,0,0,0-1,2.46c-.78,2-.92,3.64-.36,4.83C193.16,29.75,191.1,29.55,191,29.43Z"/><path class="cls-1" d="M197.75,29.35a1.47,1.47,0,0,1-.44,0,1.76,1.76,0,0,1-1-2.14l.14-.35A4.09,4.09,0,0,1,198.66,25c.8-.12.7.11,1.26.11s1,1,1,1.07c-.1.36-.15,1.19-.26,1.47A3.25,3.25,0,0,1,197.75,29.35Z"/><path class="cls-1" d="M208.49,26a39.56,39.56,0,0,1,4-3.53c.61-.44.79-.91,1.34-1.39a6.06,6.06,0,0,1,3-1.38c1.11,0,1.13,1.34.86,2.14a19.14,19.14,0,0,0-.72,2.13c0,.12-.69,4.88.34,4.88.71,0,1.87-1,2.53-1.51,0,0,.09.08.17.08l-.06.16c-.1,0-.15.28-.37.51a15.2,15.2,0,0,1-1.3,1.19c-.26.08-.26.28-.34.16a2,2,0,0,1-1.3.4c-.12,0-.36.12-.51.08s-.56-.08-.76-.08c-.63,0-2-1.23-2-1.35s-.33-1.07-.4-1.11a28.54,28.54,0,0,1,.55-4.32,5.22,5.22,0,0,0-1.16.76,4.6,4.6,0,0,0-1.07,1,10.75,10.75,0,0,1-1.49,1.26c-.08,0-.29.56-.33.56a8.42,8.42,0,0,0-.6.91c-.67,0,0,.79-1.41,1.27-2.49.28-2.78-2.1-2.09-3.84.28-.72.5-1.39.8-2.14.43-1.19.7-2.18,1.14-3.29.06-.16-.12-.2,0-.52s.28-.31.51-.59a8.86,8.86,0,0,1,2.77-1.31,1,1,0,0,1,1,.6c0,.39-.08.91-.08,1.3a1.75,1.75,0,0,0-.33.64L210.61,21c-.11.28-.49.76-.63,1.11l-.64,1.63C209.12,24.32,208.68,25.43,208.49,26Z"/><path class="cls-1" d="M236.26,22a15.59,15.59,0,0,1-2.4,2,2,2,0,0,1-1,.64,16.22,16.22,0,0,1-2,1.54c-1,.64-2.27,1.35-3.46,1.94a9,9,0,0,1-3.36,1l-.5,0a2.36,2.36,0,0,1-.54-.12c-.27-.12-.5-.16-.83-.32a3.81,3.81,0,0,1-.89-3.56c-.12-.12.43-1.31.51-1.51.08-.4.11-.28-.31-.71-.1-.16-.51-.24-.67-.32-.37-.48-.44-.2-.53-.87a1.07,1.07,0,0,1,.28-.71c.53-.44.67-.6,1.26-.6.16,0,.43.12.59.12s.51.12.71.12c.39,0,1.22-.79,1.36-.95.7-.48,1.39-1.11,1.76-1.35.2-.12.37,0,.62-.16a4.56,4.56,0,0,1,2.4-.87,3.27,3.27,0,0,1,.91.32c.4.28,1.15.39,1.29,1,.09.28-.17.75.1.87-.13.91.09.55-.4,1.31-.17.43.16.2-.34.67l-.18.44c-.47.39-1.07.91-1.51,1.22a9.43,9.43,0,0,1-3.5,1.15l-1,0c-.42.08-.58.68-.58.68a2.64,2.64,0,0,0-.25,1.54c0,.83.92,1,1.47,1a10.44,10.44,0,0,0,3.55-1.07A38.24,38.24,0,0,0,232.89,24c.59-.39,3.47-2.37,3.69-2.93.28-.11.38-.15.32.2C237,20.84,237,21.79,236.26,22Zm-6.66-2.81a4.81,4.81,0,0,0-4.44,2.54c.25.16.37.16.85.16a4.7,4.7,0,0,0,3.57-2.54C229.63,19.21,229.63,19.21,229.6,19.17Z"/><path class="cls-1" d="M238.42,30.58a1.4,1.4,0,0,0-.72.32c-.27-.2-2.08.67-2.32.27-.17-.07-.4,0-.58,0-2.24-.55-1.42-3.44-.73-5.18l.4-1a.43.43,0,0,0,.17-.44,20.3,20.3,0,0,0,1.08-2.34c.13-.31,1.52-2.65,1.46-2.69a5.26,5.26,0,0,0,.56-1.11c-1.25.36-1.78.28-2.87.63s-1.43-.27-.93-1.26a2.57,2.57,0,0,1,2.28-1.55,1.44,1.44,0,0,1,1,.36c.11-.08,0-.08.45.08l.9-.08a3.43,3.43,0,0,1,.57-.83c0-.08.27-.6.36-.72,0-.51.52-1,.59-1.5.51-.79.42-.56.58-1.27.12-.12.09,0,.21-.44a4.2,4.2,0,0,0,.52-.91c.14-.27,1.13-1.46,1.06-1.5a2.63,2.63,0,0,1,.37-.52,4.14,4.14,0,0,1,.84-1l.49-.15c.13-.32.64-.52,1-.72a2.73,2.73,0,0,1,2.5-.91c.67,0,1.33.24.92,1.07-.08.12-.67,1.31-.73,1.35l-.07.27a10.53,10.53,0,0,0-1.7,2l-.25.23c-.49.83-1.07,1.11-1.43,1.9-.23.2-.15.08-.48.64a9.45,9.45,0,0,0-2.21,2.89c-.13.12-.15.08,0,.2,2.75,0,1.7,0,4.15-.08,0,0,2.15-.24,2.1-.2a1.49,1.49,0,0,1-.73.63,36.59,36.59,0,0,1-5.95.84,1.8,1.8,0,0,0-.65.23,14.39,14.39,0,0,1-1.09,1.87l-.52,1c0,.23-1.26,2.49-1.23,2.61-1.33,2.89-2.18,4.95-.73,5.78a4.41,4.41,0,0,0,3.05-.19C240.78,29.12,239.84,29.91,238.42,30.58Z"/></g></g></svg>